<svg id="svg" version="1.1" xmlns="http://www.w3.org/2000/svg" xmlns:xlink="http://www.w3.org/1999/xlink" width="400" height="400" viewBox="0, 0, 400,400"><g id="svgg"><path id="path0" d="M327.200 69.600 C 327.200 69.820,326.840 70.000,326.400 70.000 C 325.960 70.000,325.600 70.180,325.600 70.400 C 325.600 70.620,325.322 70.800,324.982 70.800 C 324.182 70.800,322.400 72.582,322.400 73.382 C 322.400 73.722,322.220 74.000,322.000 74.000 C 321.780 74.000,321.600 74.270,321.600 74.600 C 321.600 74.930,321.420 75.200,321.200 75.200 C 320.448 75.200,320.677 95.867,321.433 96.157 C 322.255 96.473,356.720 96.464,357.900 96.148 L 358.800 95.907 358.800 85.979 C 358.800 80.330,358.628 75.599,358.400 75.000 C 357.784 73.381,354.115 70.000,352.973 70.000 C 352.438 70.000,352.000 69.820,352.000 69.600 C 352.000 69.342,347.600 69.200,339.600 69.200 C 331.600 69.200,327.200 69.342,327.200 69.600 M193.400 122.025 C 189.037 122.291,184.266 122.852,182.200 123.342 C 181.760 123.447,180.320 123.750,179.000 124.017 C 169.502 125.936,152.915 132.649,148.769 136.251 C 148.421 136.553,147.992 136.800,147.816 136.800 C 146.508 136.800,134.652 146.437,129.878 151.381 L 127.155 154.200 63.578 154.304 L 0.000 154.407 0.000 219.604 L 0.000 284.800 63.476 284.800 L 126.952 284.800 130.776 288.508 C 135.771 293.352,143.847 300.000,144.736 300.000 C 144.923 300.000,145.402 300.360,145.800 300.800 C 146.198 301.240,146.667 301.600,146.842 301.600 C 147.017 301.600,147.934 302.120,148.880 302.756 C 151.503 304.519,157.783 307.756,161.800 309.415 C 166.937 311.536,166.842 311.499,168.600 312.029 C 169.480 312.294,170.560 312.645,171.000 312.810 C 171.764 313.096,173.430 313.554,176.700 314.378 C 177.525 314.586,178.650 314.874,179.200 315.019 C 190.845 318.076,211.507 317.629,224.800 314.033 C 225.570 313.824,226.650 313.537,227.200 313.394 C 227.750 313.250,228.560 312.993,229.000 312.822 C 229.440 312.651,230.520 312.294,231.400 312.029 C 232.280 311.764,233.360 311.397,233.800 311.213 C 234.240 311.029,235.680 310.464,237.000 309.958 C 248.118 305.694,259.394 298.147,269.349 288.308 L 272.898 284.800 336.449 284.800 L 400.000 284.800 400.000 219.605 L 400.000 154.410 336.500 154.305 L 273.000 154.200 269.400 150.586 C 249.128 130.236,222.556 120.250,193.400 122.025 M209.800 145.959 C 214.744 146.657,220.576 147.946,222.600 148.787 C 223.040 148.970,224.030 149.336,224.800 149.600 C 246.290 156.979,265.632 177.697,271.226 199.327 C 271.407 200.027,271.740 201.320,271.967 202.200 C 273.347 207.560,273.776 211.657,273.788 219.600 C 273.802 229.341,272.673 236.488,269.933 244.000 C 269.491 245.210,269.028 246.560,268.904 247.000 C 267.791 250.938,260.826 262.449,256.400 267.664 C 247.368 278.308,233.096 287.615,220.800 290.881 C 193.798 298.053,167.872 291.645,148.450 273.000 C 141.299 266.135,132.978 254.049,131.099 247.800 C 130.967 247.360,130.282 245.380,129.577 243.400 C 124.349 228.712,124.240 212.043,129.270 196.600 C 133.439 183.804,143.306 169.220,152.354 162.482 C 153.149 161.889,153.890 161.313,154.000 161.200 C 155.519 159.646,162.568 155.189,166.576 153.249 C 172.692 150.287,173.353 150.000,174.052 150.000 C 174.437 150.000,174.864 149.820,175.000 149.600 C 175.136 149.380,175.599 149.200,176.029 149.200 C 176.459 149.200,177.123 149.042,177.505 148.849 C 178.661 148.265,181.004 147.600,181.905 147.600 C 182.371 147.600,182.864 147.420,183.000 147.200 C 183.136 146.980,183.774 146.800,184.418 146.800 C 185.062 146.800,186.356 146.624,187.294 146.408 C 192.391 145.238,203.168 145.023,209.800 145.959 " stroke="none" fill="#5a6072" fill-rule="evenodd"></path><path id="path1" d="M193.700 121.891 C 194.525 121.978,195.875 121.978,196.700 121.891 C 197.525 121.805,196.850 121.734,195.200 121.734 C 193.550 121.734,192.875 121.805,193.700 121.891 M203.300 121.891 C 204.125 121.978,205.475 121.978,206.300 121.891 C 207.125 121.805,206.450 121.734,204.800 121.734 C 203.150 121.734,202.475 121.805,203.300 121.891 M186.400 122.400 C 185.043 122.686,185.037 122.695,186.200 122.707 C 186.860 122.715,187.850 122.576,188.400 122.400 C 189.712 121.980,188.396 121.980,186.400 122.400 M181.400 123.200 C 180.311 123.477,180.293 123.507,181.200 123.525 C 181.750 123.535,182.560 123.389,183.000 123.200 C 183.986 122.776,183.066 122.776,181.400 123.200 M162.600 128.829 C 161.720 129.252,161.450 129.486,162.000 129.349 C 163.133 129.067,165.212 128.025,164.600 128.046 C 164.380 128.053,163.480 128.406,162.600 128.829 M141.800 140.635 L 140.600 141.666 141.900 140.806 C 142.615 140.333,143.200 139.868,143.200 139.773 C 143.200 139.473,143.031 139.578,141.800 140.635 M265.200 146.600 C 265.946 147.370,266.647 148.000,266.757 148.000 C 266.867 148.000,266.346 147.370,265.600 146.600 C 264.854 145.830,264.153 145.200,264.043 145.200 C 263.933 145.200,264.454 145.830,265.200 146.600 M193.400 145.830 C 170.870 148.008,148.914 161.317,137.796 179.538 C 135.214 183.769,133.897 186.265,131.856 190.800 C 123.600 209.135,124.544 234.853,134.132 252.800 C 138.672 261.299,138.994 261.619,147.400 265.981 C 183.855 284.897,229.302 269.689,247.182 232.590 C 250.642 225.411,251.785 221.969,253.558 213.400 C 255.717 202.965,254.687 188.699,250.943 177.200 C 249.767 173.589,249.816 173.704,247.169 168.200 C 242.249 157.967,240.406 156.401,226.200 150.379 C 218.485 147.109,202.749 144.927,193.400 145.830 M133.381 147.700 L 131.800 149.400 133.500 147.819 C 135.081 146.348,135.384 146.000,135.081 146.000 C 135.016 146.000,134.251 146.765,133.381 147.700 M31.500 154.300 C 48.935 154.358,77.465 154.358,94.900 154.300 C 112.335 154.242,98.070 154.195,63.200 154.195 C 28.330 154.195,14.065 154.242,31.500 154.300 M305.531 154.300 C 322.984 154.358,351.424 154.358,368.731 154.300 C 386.039 154.242,371.760 154.195,337.000 154.195 C 302.240 154.195,288.079 154.242,305.531 154.300 M196.600 167.232 C 203.077 170.251,207.223 179.964,204.500 185.739 C 204.225 186.323,203.775 187.295,203.500 187.900 C 199.238 197.277,184.118 197.993,178.211 189.096 C 170.009 176.743,183.243 161.007,196.600 167.232 M168.451 203.767 C 173.456 205.872,174.090 212.381,169.581 215.365 C 164.276 218.876,157.343 213.270,159.905 207.541 C 161.545 203.874,165.038 202.332,168.451 203.767 M126.446 284.900 C 126.544 284.955,128.329 286.620,130.412 288.600 L 134.200 292.200 130.608 288.500 C 128.633 286.465,126.848 284.800,126.642 284.800 C 126.435 284.800,126.347 284.845,126.446 284.900 M269.349 288.308 C 263.255 294.331,256.691 299.602,251.792 302.405 C 250.560 303.109,249.643 303.776,249.753 303.886 C 249.969 304.102,258.486 298.531,259.800 297.313 C 260.240 296.906,261.004 296.292,261.497 295.951 C 262.852 295.012,268.582 289.761,270.884 287.349 L 272.919 285.217 280.359 285.099 L 287.800 284.981 280.349 284.891 L 272.898 284.800 269.349 288.308 M135.288 293.013 C 135.886 293.643,136.447 294.077,136.535 293.979 C 136.623 293.880,136.133 293.365,135.447 292.834 L 134.200 291.869 135.288 293.013 M138.600 295.807 C 139.480 296.608,141.100 297.889,142.200 298.654 C 144.625 300.339,143.049 298.928,139.543 296.275 C 137.684 294.868,137.430 294.742,138.600 295.807 M145.370 300.940 C 146.488 301.835,150.828 304.380,150.390 303.884 C 149.975 303.415,147.158 301.600,146.844 301.600 C 146.668 301.600,146.198 301.240,145.800 300.800 C 145.402 300.360,144.879 300.001,144.638 300.002 C 144.397 300.003,144.727 300.425,145.370 300.940 M151.600 304.767 C 152.563 305.552,153.200 305.808,153.200 305.410 C 153.200 305.306,152.615 304.935,151.900 304.586 L 150.600 303.952 151.600 304.767 M247.800 304.800 C 247.140 305.237,246.780 305.592,247.000 305.588 C 247.401 305.582,249.576 304.023,249.200 304.012 C 249.090 304.008,248.460 304.363,247.800 304.800 M239.800 308.800 C 238.920 309.225,238.397 309.579,238.639 309.586 C 239.142 309.602,241.600 308.427,241.600 308.171 C 241.600 307.932,241.587 307.937,239.800 308.800 M164.203 310.805 C 164.337 311.022,164.786 311.200,165.200 311.200 C 165.614 311.200,166.064 311.380,166.200 311.600 C 166.336 311.820,166.842 311.986,167.324 311.968 C 167.877 311.948,167.979 311.864,167.600 311.739 C 167.270 311.630,166.640 311.391,166.200 311.207 C 164.606 310.541,163.959 310.410,164.203 310.805 M235.000 310.689 C 234.560 310.798,234.020 311.014,233.800 311.171 C 233.580 311.328,232.590 311.689,231.600 311.974 C 230.610 312.258,229.440 312.636,229.000 312.812 C 228.560 312.989,227.750 313.250,227.200 313.394 C 226.650 313.537,225.570 313.824,224.800 314.033 C 220.091 315.307,212.678 316.578,208.833 316.772 C 208.522 316.787,208.354 316.887,208.460 316.994 C 208.851 317.384,216.511 316.362,221.600 315.240 C 222.590 315.022,223.940 314.730,224.600 314.591 C 225.260 314.453,226.160 314.195,226.600 314.018 C 227.040 313.840,228.750 313.281,230.400 312.776 C 232.050 312.270,233.571 311.708,233.780 311.528 C 233.989 311.348,234.473 311.200,234.856 311.200 C 235.239 311.200,235.664 311.020,235.800 310.800 C 235.936 310.580,235.992 310.421,235.924 310.446 C 235.856 310.472,235.440 310.581,235.000 310.689 M168.623 312.437 C 168.746 312.637,169.199 312.800,169.629 312.800 C 170.059 312.800,170.723 312.958,171.105 313.151 C 172.017 313.611,174.079 314.211,176.800 314.808 C 178.010 315.073,179.413 315.450,179.919 315.645 C 180.424 315.840,181.342 316.000,181.959 316.000 C 182.576 316.000,183.602 316.165,184.240 316.367 C 185.550 316.781,191.851 317.317,191.520 316.987 C 191.402 316.869,189.797 316.604,187.953 316.399 C 184.201 315.980,180.989 315.451,178.600 314.859 C 173.773 313.662,171.918 313.156,171.000 312.788 C 169.638 312.241,168.388 312.057,168.623 312.437 M195.900 317.498 C 198.155 317.570,201.845 317.570,204.100 317.498 C 206.355 317.427,204.510 317.369,200.000 317.369 C 195.490 317.369,193.645 317.427,195.900 317.498 " stroke="none" fill="#6cb4ec" fill-rule="evenodd"></path><path id="path2" d="M140.600 57.200 C 140.464 57.420,139.823 57.600,139.176 57.600 C 138.529 57.600,138.000 57.780,138.000 58.000 C 138.000 58.220,137.668 58.400,137.262 58.400 C 136.189 58.400,131.341 63.269,130.515 65.175 C 130.128 66.069,129.674 66.800,129.506 66.800 C 129.338 66.800,129.200 67.160,129.200 67.600 C 129.200 68.040,129.020 68.400,128.800 68.400 C 128.580 68.400,128.400 68.634,128.400 68.920 C 128.400 69.656,127.459 71.593,127.100 71.597 C 126.935 71.599,126.800 71.960,126.800 72.400 C 126.800 72.840,126.646 73.200,126.457 73.200 C 126.269 73.200,125.594 74.370,124.957 75.799 C 124.321 77.229,123.665 78.399,123.500 78.399 C 123.335 78.400,123.200 78.760,123.200 79.200 C 123.200 79.640,123.020 80.000,122.800 80.000 C 122.580 80.000,122.400 80.360,122.400 80.800 C 122.400 81.240,122.220 81.600,122.000 81.600 C 121.780 81.600,121.600 81.960,121.600 82.400 C 121.600 82.840,121.420 83.200,121.200 83.200 C 120.980 83.200,120.800 83.478,120.800 83.817 C 120.800 84.156,120.440 84.820,120.000 85.292 C 119.560 85.764,119.196 86.432,119.191 86.775 C 119.186 87.119,118.830 87.850,118.400 88.400 C 117.970 88.950,117.614 89.625,117.609 89.900 C 117.604 90.175,117.420 90.400,117.200 90.400 C 116.980 90.400,116.800 90.760,116.800 91.200 C 116.800 91.640,116.664 92.000,116.498 92.000 C 116.331 92.000,115.937 92.585,115.622 93.300 C 115.307 94.015,114.826 94.825,114.553 95.100 C 114.162 95.494,104.005 95.600,66.452 95.600 C 35.147 95.600,18.763 95.737,18.600 96.000 C 18.464 96.220,17.834 96.400,17.200 96.400 C 16.566 96.400,15.936 96.580,15.800 96.800 C 15.664 97.020,15.113 97.200,14.576 97.200 C 14.039 97.200,13.600 97.380,13.600 97.600 C 13.600 97.820,13.240 98.000,12.800 98.000 C 12.360 98.000,12.000 98.180,12.000 98.400 C 12.000 98.620,11.775 98.803,11.500 98.807 C 10.398 98.823,3.600 105.215,3.600 106.235 C 3.600 106.546,3.420 106.800,3.200 106.800 C 2.980 106.800,2.800 107.160,2.800 107.600 C 2.800 108.040,2.620 108.400,2.400 108.400 C 2.180 108.400,2.000 108.670,2.000 109.000 C 2.000 109.330,1.820 109.600,1.600 109.600 C 1.380 109.600,1.200 109.924,1.200 110.320 C 1.200 110.716,0.975 111.265,0.700 111.540 C 0.316 111.924,0.173 116.897,0.083 133.020 L -0.033 154.000 63.486 154.000 L 127.006 154.000 130.203 150.765 C 168.725 111.784,231.743 111.725,269.722 150.635 L 273.000 153.994 336.520 153.997 L 400.040 154.000 399.920 133.020 C 399.828 116.900,399.684 111.924,399.300 111.540 C 399.025 111.265,398.800 110.716,398.800 110.320 C 398.800 109.924,398.620 109.600,398.400 109.600 C 398.180 109.600,398.000 109.330,398.000 109.000 C 398.000 108.670,397.820 108.400,397.600 108.400 C 397.380 108.400,397.200 108.040,397.200 107.600 C 397.200 107.160,397.059 106.800,396.886 106.800 C 396.714 106.800,396.260 106.271,395.878 105.624 C 394.489 103.273,390.192 99.463,387.700 98.373 C 386.985 98.061,386.400 97.669,386.400 97.502 C 386.400 97.336,385.961 97.200,385.424 97.200 C 384.887 97.200,384.336 97.020,384.200 96.800 C 384.064 96.580,383.434 96.400,382.800 96.400 C 382.166 96.400,381.536 96.220,381.400 96.000 C 381.063 95.455,358.937 95.455,358.600 96.000 C 358.264 96.544,321.508 96.548,320.964 96.004 C 320.719 95.759,313.903 95.569,302.984 95.504 L 285.400 95.400 285.005 94.500 C 284.788 94.005,284.473 93.600,284.305 93.600 C 284.137 93.600,284.000 93.255,284.000 92.833 C 284.000 92.412,283.865 92.007,283.700 91.933 C 283.268 91.741,281.600 88.428,281.600 87.762 C 281.600 87.453,281.448 87.200,281.263 87.200 C 281.077 87.200,280.492 86.345,279.963 85.300 C 279.433 84.255,278.865 83.340,278.700 83.267 C 278.535 83.193,278.400 82.788,278.400 82.367 C 278.400 81.945,278.265 81.599,278.100 81.597 C 277.749 81.593,276.800 79.663,276.800 78.954 C 276.800 78.686,276.662 78.407,276.493 78.333 C 276.324 78.260,275.601 77.030,274.886 75.600 C 274.172 74.170,273.140 72.230,272.593 71.289 C 272.047 70.348,271.600 69.313,271.600 68.989 C 271.600 68.665,271.420 68.400,271.200 68.400 C 270.980 68.400,270.800 68.040,270.800 67.600 C 270.800 67.160,270.620 66.800,270.400 66.800 C 270.180 66.800,270.000 66.440,270.000 66.000 C 270.000 65.560,269.820 65.200,269.600 65.200 C 269.380 65.200,269.200 64.964,269.200 64.675 C 269.200 64.386,268.660 63.632,268.000 63.000 C 267.340 62.368,266.799 61.659,266.797 61.425 C 266.795 61.031,265.783 60.286,263.231 58.800 C 262.664 58.470,262.140 58.065,262.067 57.900 C 261.993 57.735,261.419 57.600,260.790 57.600 C 260.162 57.600,259.536 57.420,259.400 57.200 C 259.058 56.647,140.942 56.647,140.600 57.200 M57.422 117.649 C 68.427 124.319,63.990 140.899,51.200 140.904 C 39.925 140.908,34.417 127.583,42.395 119.605 C 46.331 115.669,52.771 114.830,57.422 117.649 M186.800 166.347 C 175.197 168.883,171.717 185.411,181.305 192.446 C 188.636 197.825,200.051 195.487,203.500 187.900 C 203.775 187.295,204.225 186.323,204.500 185.739 C 205.432 183.763,205.127 176.919,204.004 174.600 C 200.993 168.382,193.636 164.853,186.800 166.347 M163.536 203.738 C 158.484 205.983,157.964 212.812,162.636 215.568 C 167.711 218.563,174.192 213.484,172.346 207.960 C 171.125 204.306,166.858 202.261,163.536 203.738 M0.077 306.067 C 0.173 322.637,0.310 327.370,0.700 327.500 C 0.975 327.592,1.200 328.012,1.200 328.433 C 1.200 328.855,1.380 329.200,1.600 329.200 C 1.820 329.200,2.000 329.560,2.000 330.000 C 2.000 330.440,2.180 330.800,2.400 330.800 C 2.620 330.800,2.800 331.120,2.800 331.512 C 2.800 331.903,3.160 332.483,3.600 332.800 C 4.040 333.117,4.400 333.612,4.400 333.899 C 4.400 334.468,7.815 338.051,8.093 337.774 C 8.187 337.680,8.686 338.052,9.201 338.602 C 9.717 339.151,10.280 339.600,10.452 339.600 C 10.624 339.600,11.428 340.050,12.238 340.600 C 13.049 341.150,14.216 341.600,14.832 341.600 C 15.449 341.600,16.064 341.780,16.200 342.000 C 16.336 342.220,17.067 342.400,17.824 342.400 C 18.581 342.400,19.200 342.580,19.200 342.800 C 19.200 343.066,79.733 343.200,200.000 343.200 C 320.267 343.200,380.800 343.066,380.800 342.800 C 380.800 342.580,381.520 342.400,382.400 342.400 C 383.280 342.400,384.000 342.220,384.000 342.000 C 384.000 341.780,384.463 341.600,385.029 341.600 C 386.023 341.600,389.662 339.756,389.933 339.115 C 390.007 338.942,390.298 338.800,390.581 338.800 C 391.231 338.800,395.600 334.495,395.600 333.854 C 395.600 333.591,395.960 333.117,396.400 332.800 C 396.840 332.483,397.200 331.903,397.200 331.512 C 397.200 331.120,397.380 330.800,397.600 330.800 C 397.820 330.800,398.000 330.440,398.000 330.000 C 398.000 329.560,398.180 329.200,398.400 329.200 C 398.620 329.200,398.800 328.855,398.800 328.433 C 398.800 328.012,399.025 327.592,399.300 327.500 C 399.690 327.370,399.826 322.631,399.920 306.029 L 400.040 284.724 336.636 284.862 L 273.233 285.000 269.717 288.475 C 266.000 292.148,262.843 295.014,261.444 295.986 C 260.980 296.308,260.240 296.904,259.800 297.309 C 257.832 299.121,249.849 304.163,245.600 306.276 C 244.390 306.878,243.340 307.512,243.267 307.685 C 243.193 307.858,242.895 308.000,242.604 308.000 C 242.314 308.000,241.294 308.386,240.338 308.857 C 239.382 309.328,238.195 309.868,237.700 310.057 C 236.505 310.512,235.006 311.113,233.900 311.579 C 233.405 311.788,231.740 312.352,230.200 312.832 C 228.660 313.312,227.040 313.848,226.600 314.022 C 226.160 314.197,225.260 314.453,224.600 314.591 C 223.940 314.730,222.590 315.022,221.600 315.240 C 206.662 318.534,188.974 318.204,175.000 314.373 C 174.120 314.132,172.903 313.838,172.295 313.721 C 171.687 313.604,171.092 313.349,170.971 313.154 C 170.851 312.959,170.324 312.800,169.800 312.800 C 169.276 312.800,168.736 312.620,168.600 312.400 C 168.464 312.180,168.001 312.000,167.571 312.000 C 167.141 312.000,166.477 311.841,166.095 311.647 C 165.713 311.452,164.860 311.071,164.200 310.800 C 163.540 310.529,162.687 310.148,162.305 309.953 C 161.923 309.759,161.338 309.600,161.005 309.600 C 160.672 309.600,160.400 309.420,160.400 309.200 C 160.400 308.980,160.159 308.800,159.864 308.800 C 159.238 308.800,152.949 305.611,149.200 303.392 C 143.529 300.036,136.545 294.512,130.154 288.328 L 126.508 284.800 63.231 284.800 L -0.045 284.800 0.077 306.067 " stroke="none" fill="#dcdcdc" fill-rule="evenodd"></path><path id="path3" d="M192.800 145.553 C 192.030 145.689,195.055 145.800,199.522 145.800 C 203.990 145.800,207.230 145.683,206.722 145.540 C 205.558 145.212,194.674 145.222,192.800 145.553 M187.000 146.400 L 186.200 146.744 187.000 146.725 C 187.440 146.714,188.340 146.568,189.000 146.400 L 190.200 146.095 189.000 146.075 C 188.340 146.065,187.440 146.211,187.000 146.400 M209.633 146.144 C 209.725 146.224,210.610 146.406,211.600 146.550 C 212.858 146.733,213.219 146.691,212.800 146.412 C 212.260 146.053,209.232 145.797,209.633 146.144 M183.000 147.200 C 182.716 147.660,183.364 147.660,184.800 147.200 C 185.755 146.894,185.743 146.878,184.524 146.840 C 183.822 146.818,183.136 146.980,183.000 147.200 M215.200 147.200 C 216.742 147.694,217.564 147.694,216.800 147.200 C 216.470 146.987,215.750 146.827,215.200 146.846 L 214.200 146.880 215.200 147.200 M180.000 148.000 C 179.205 148.514,180.204 148.514,181.400 148.000 L 182.200 147.656 181.400 147.634 C 180.960 147.622,180.330 147.787,180.000 148.000 M218.600 148.000 C 219.040 148.189,219.670 148.344,220.000 148.344 C 220.378 148.344,220.304 148.217,219.800 148.000 C 219.360 147.811,218.730 147.656,218.400 147.656 C 218.022 147.656,218.096 147.783,218.600 148.000 M221.400 148.800 C 222.501 149.273,222.892 149.273,222.600 148.800 C 222.464 148.580,221.958 148.413,221.476 148.428 C 220.631 148.455,220.629 148.469,221.400 148.800 M170.000 151.600 C 169.230 152.022,168.713 152.374,168.851 152.383 C 169.265 152.411,172.000 151.205,172.000 150.995 C 172.000 150.646,171.425 150.820,170.000 151.600 M163.800 154.556 C 163.360 154.838,161.740 155.856,160.200 156.818 C 158.660 157.780,156.937 158.934,156.371 159.383 C 155.806 159.832,154.733 160.650,153.988 161.200 C 149.050 164.844,140.567 174.051,137.806 178.762 C 136.768 180.532,138.648 178.350,140.283 175.886 C 144.219 169.955,153.963 161.062,161.625 156.408 C 163.446 155.303,165.025 154.308,165.134 154.199 C 165.533 153.800,164.579 154.056,163.800 154.556 M235.600 154.767 C 236.563 155.552,237.200 155.808,237.200 155.410 C 237.200 155.306,236.615 154.935,235.900 154.586 L 234.600 153.952 235.600 154.767 M238.800 156.553 C 238.800 156.653,239.448 157.135,240.239 157.624 C 241.980 158.700,244.316 162.264,247.169 168.200 C 249.816 173.704,249.767 173.589,250.943 177.200 C 254.687 188.699,255.717 202.965,253.558 213.400 C 251.785 221.969,250.642 225.411,247.182 232.590 C 229.302 269.689,183.855 284.897,147.400 265.981 C 139.732 262.002,138.600 261.014,135.753 255.815 C 130.037 245.377,127.478 236.957,126.346 224.863 C 125.532 216.174,126.857 205.365,129.831 196.442 C 130.593 194.155,131.127 192.194,131.018 192.084 C 130.908 191.975,130.736 192.136,130.634 192.443 C 128.142 199.946,127.676 201.614,126.851 206.000 C 124.488 218.557,125.455 231.818,129.577 243.400 C 130.282 245.380,130.967 247.360,131.099 247.800 C 131.598 249.459,136.033 257.686,138.044 260.682 C 151.000 279.983,171.827 292.083,194.660 293.576 C 202.418 294.083,210.267 293.414,218.000 291.584 C 232.157 288.236,246.554 279.268,256.400 267.664 C 260.826 262.449,267.791 250.938,268.904 247.000 C 269.028 246.560,269.491 245.210,269.933 244.000 C 274.285 232.068,275.167 214.435,272.012 202.400 C 271.810 201.630,271.477 200.337,271.271 199.527 C 269.177 191.290,263.379 180.127,257.387 172.800 C 252.704 167.074,238.800 154.921,238.800 156.553 M135.820 182.020 C 135.021 183.384,134.436 184.569,134.521 184.654 C 134.606 184.739,135.334 183.698,136.140 182.340 C 136.946 180.982,137.530 179.797,137.439 179.706 C 137.348 179.615,136.619 180.656,135.820 182.020 M133.400 186.400 C 133.038 187.101,132.826 187.759,132.929 187.862 C 133.032 187.965,133.406 187.469,133.760 186.760 C 134.114 186.051,134.326 185.393,134.231 185.298 C 134.136 185.203,133.762 185.699,133.400 186.400 M131.782 189.782 C 131.404 190.578,131.198 191.332,131.324 191.458 C 131.450 191.583,131.836 191.009,132.182 190.182 C 132.999 188.225,132.674 187.901,131.782 189.782 " stroke="none" fill="#479ce9" fill-rule="evenodd"></path><path id="path4" d="M47.800 116.349 C 41.548 118.003,37.533 124.739,39.008 131.099 C 42.139 144.598,61.034 144.119,63.513 130.476 C 65.100 121.747,56.527 114.038,47.800 116.349 " stroke="none" fill="#ec5564" fill-rule="evenodd"></path></g></svg>