<svg id="svg" version="1.1" xmlns="http://www.w3.org/2000/svg" xmlns:xlink="http://www.w3.org/1999/xlink" width="400" height="400" viewBox="0, 0, 400,400"><g id="svgg"><path id="path0" d="M81.600 49.810 L 81.600 56.421 87.700 56.310 L 93.800 56.200 93.910 49.700 L 94.020 43.200 87.810 43.200 L 81.600 43.200 81.600 49.810 M143.690 49.700 L 143.800 56.200 150.300 56.310 L 156.800 56.420 156.800 49.810 L 156.800 43.200 150.190 43.200 L 143.580 43.200 143.690 49.700 M106.400 50.200 L 106.400 56.400 118.800 56.400 L 131.200 56.400 131.200 50.200 L 131.200 44.000 118.800 44.000 L 106.400 44.000 106.400 50.200 M341.337 62.821 C 337.369 63.595,333.558 66.929,332.059 70.935 C 330.937 73.933,330.728 99.865,331.796 103.462 C 335.080 114.519,350.209 115.590,355.004 105.105 L 356.054 102.811 356.015 88.512 C 355.991 79.512,355.814 73.619,355.538 72.607 C 353.943 66.763,350.820 64.117,343.800 62.662 C 343.360 62.571,342.252 62.643,341.337 62.821 M53.543 63.663 C 49.342 66.099,49.523 71.947,53.862 73.987 C 57.052 75.487,59.841 74.415,61.519 71.045 C 63.987 66.088,58.354 60.874,53.543 63.663 M81.600 81.400 L 81.600 94.021 87.700 93.910 L 93.800 93.800 93.800 81.400 L 93.800 69.000 87.700 68.890 L 81.600 68.779 81.600 81.400 M106.094 81.294 L 106.200 93.800 118.800 93.800 L 131.400 93.800 131.400 81.400 L 131.400 69.000 118.694 68.894 L 105.989 68.789 106.094 81.294 M143.694 81.300 L 143.800 93.800 150.300 93.910 L 156.800 94.020 156.800 81.410 L 156.800 68.800 150.194 68.800 L 143.589 68.800 143.694 81.300 M54.600 88.148 C 51.419 89.390,50.400 90.758,50.400 93.786 C 50.400 100.623,60.006 102.030,61.936 95.476 C 63.230 91.080,58.694 86.550,54.600 88.148 M150.090 106.310 L 143.579 106.420 143.690 112.510 L 143.800 118.600 149.800 118.700 C 157.432 118.826,156.845 119.381,156.711 112.170 L 156.600 106.200 150.090 106.310 M81.600 112.610 L 81.600 118.821 87.700 118.710 L 93.800 118.600 93.910 112.500 L 94.021 106.400 87.810 106.400 L 81.600 106.400 81.600 112.610 M106.400 112.600 L 106.400 118.800 118.800 118.800 L 131.200 118.800 131.200 112.600 L 131.200 106.400 118.800 106.400 L 106.400 106.400 106.400 112.600 M18.400 143.378 L 18.400 168.400 61.800 168.400 C 85.670 168.400,105.200 168.334,105.200 168.254 C 105.200 168.174,103.181 166.329,100.713 164.154 C 98.246 161.979,95.411 159.458,94.413 158.552 C 93.416 157.645,90.710 155.235,88.400 153.197 C 86.090 151.158,83.479 148.840,82.598 148.045 C 81.211 146.795,78.269 144.185,72.805 139.359 C 68.956 135.960,59.375 127.410,59.200 127.218 C 59.090 127.097,56.930 125.180,54.400 122.958 L 49.800 118.917 34.100 118.637 L 18.400 118.357 18.400 143.378 M160.200 138.625 C 158.708 139.395,157.200 140.971,157.200 141.759 C 157.200 142.086,157.020 142.464,156.800 142.600 C 156.238 142.948,156.302 145.438,156.900 146.490 C 159.098 150.355,163.352 151.095,166.735 148.200 C 171.437 144.176,165.708 135.780,160.200 138.625 M185.759 138.275 C 183.288 138.761,180.756 143.641,181.746 146.007 C 184.734 153.138,195.615 149.711,193.108 142.428 C 191.996 139.197,189.175 137.602,185.759 138.275 M210.200 138.625 C 206.566 140.501,205.361 145.229,207.842 147.871 C 210.340 150.530,213.860 150.660,216.735 148.200 C 221.437 144.176,215.708 135.780,210.200 138.625 M41.303 188.175 C 36.274 190.956,36.507 197.305,41.719 199.524 C 43.870 200.439,63.304 200.167,65.210 199.195 C 69.808 196.849,69.628 190.159,64.914 188.190 C 63.037 187.405,42.717 187.392,41.303 188.175 M197.800 188.629 C 196.139 189.493,194.800 190.814,194.800 191.590 C 194.800 191.947,194.589 192.451,194.332 192.708 C 193.790 193.250,194.564 196.087,195.594 197.332 C 197.314 199.412,198.459 199.600,209.400 199.600 C 221.760 199.600,222.827 199.286,224.296 195.212 C 225.157 192.825,223.298 189.426,220.563 188.386 C 218.738 187.692,199.200 187.901,197.800 188.629 M338.547 195.007 C 335.765 196.375,333.123 199.289,332.041 202.183 C 330.713 205.733,330.893 233.104,332.264 236.070 C 336.898 246.096,350.952 246.111,355.245 236.094 C 356.182 233.910,356.430 207.096,355.544 203.809 C 353.476 196.134,345.087 191.789,338.547 195.007 M126.549 225.610 L 125.298 225.997 152.728 253.431 C 178.207 278.912,180.185 280.798,180.532 279.932 C 181.339 277.914,180.855 269.501,179.603 263.800 C 179.362 262.700,179.061 261.303,178.936 260.695 C 178.810 260.087,178.549 259.492,178.354 259.371 C 178.159 259.251,178.000 258.809,178.000 258.389 C 178.000 257.968,177.675 257.034,177.277 256.312 C 176.880 255.590,176.307 254.370,176.005 253.600 C 175.703 252.830,174.988 251.480,174.416 250.600 C 173.844 249.720,173.127 248.508,172.824 247.907 C 172.520 247.305,171.986 246.495,171.636 246.106 C 171.286 245.718,170.487 244.713,169.860 243.874 C 164.946 237.298,155.003 230.381,147.000 227.971 C 146.120 227.706,145.040 227.346,144.600 227.172 C 141.505 225.944,128.974 224.860,126.549 225.610 M97.708 238.496 C 94.324 241.483,88.400 249.109,88.400 250.479 C 88.400 250.767,103.523 266.121,122.006 284.601 L 155.611 318.200 157.306 317.238 C 160.534 315.404,166.165 310.603,168.960 307.302 L 169.721 306.404 135.360 271.986 C 116.462 253.056,100.694 237.394,100.319 237.180 C 99.785 236.876,99.223 237.159,97.708 238.496 M84.500 257.483 C 84.225 258.075,84.000 258.873,84.000 259.256 C 84.000 259.639,83.840 260.052,83.644 260.173 C 83.449 260.294,83.187 260.979,83.064 261.696 C 82.940 262.413,82.614 264.080,82.339 265.400 C 81.709 268.428,81.680 281.033,82.297 284.000 C 83.315 288.897,83.923 291.019,85.006 293.451 C 86.921 297.752,87.830 299.546,88.865 301.072 C 89.489 301.992,90.000 302.937,90.000 303.172 C 90.000 303.407,90.141 303.600,90.314 303.600 C 90.486 303.600,90.963 304.168,91.373 304.862 C 94.575 310.282,106.687 319.223,114.600 322.008 C 116.877 322.809,118.336 323.200,119.048 323.200 C 119.484 323.200,120.011 323.363,120.220 323.561 C 121.244 324.535,136.236 324.910,140.400 324.067 C 141.610 323.822,143.277 323.507,144.104 323.367 C 144.931 323.226,145.706 322.951,145.827 322.756 C 145.948 322.560,146.476 322.400,147.000 322.400 C 147.524 322.400,148.064 322.220,148.200 322.000 C 148.336 321.780,148.812 321.600,149.257 321.600 C 150.720 321.600,149.831 320.766,146.390 318.911 C 144.525 317.906,141.779 316.300,140.288 315.342 C 138.796 314.384,137.496 313.600,137.400 313.600 C 137.202 313.600,132.309 310.321,132.000 309.981 C 131.890 309.860,131.170 309.329,130.400 308.800 C 129.630 308.271,128.910 307.737,128.800 307.614 C 128.690 307.490,127.160 306.311,125.400 304.994 C 121.257 301.894,104.506 285.143,101.406 281.000 C 100.089 279.240,98.910 277.710,98.786 277.600 C 98.663 277.490,98.126 276.770,97.594 276.000 C 97.062 275.230,96.395 274.362,96.113 274.071 C 95.831 273.781,95.600 273.389,95.600 273.200 C 95.600 273.011,95.366 272.619,95.081 272.329 C 94.376 271.611,92.000 268.118,92.000 267.800 C 92.000 267.659,91.486 266.792,90.857 265.872 C 90.229 264.952,88.757 262.445,87.586 260.300 C 85.227 255.978,85.207 255.960,84.500 257.483 M329.000 301.162 C 324.929 303.055,324.303 307.047,327.553 310.393 C 331.287 314.237,338.364 310.113,336.768 305.023 C 335.569 301.197,332.357 299.600,329.000 301.162 M244.000 331.187 L 244.000 355.985 244.900 356.207 C 245.395 356.329,258.400 356.377,273.800 356.314 C 305.120 356.186,303.541 356.336,305.300 353.325 C 306.552 351.181,306.367 312.151,305.094 309.862 C 303.760 307.465,301.442 306.425,297.400 306.412 L 294.200 306.401 283.255 317.283 C 270.743 329.724,271.968 329.173,270.104 323.200 C 269.201 320.304,269.011 318.821,268.822 313.200 L 268.600 306.600 256.300 306.494 L 244.000 306.388 244.000 331.187 M330.200 325.600 C 330.064 325.820,329.639 326.000,329.255 326.000 C 328.472 326.000,326.000 328.373,326.000 329.124 C 326.000 329.392,325.784 329.957,325.519 330.381 C 325.141 330.986,325.151 331.391,325.566 332.275 C 326.825 334.957,327.242 335.450,329.003 336.335 C 333.667 338.677,338.685 333.683,336.346 329.026 C 335.487 327.315,334.897 326.806,332.305 325.539 C 331.377 325.085,330.502 325.111,330.200 325.600 " stroke="none" fill="#51a0d7" fill-rule="evenodd"></path><path id="path1" d="M187.298 68.500 L 187.400 118.600 215.600 118.800 L 243.800 119.000 243.800 147.000 C 243.800 162.400,243.845 198.894,243.900 228.099 L 244.000 281.197 300.100 281.299 L 356.200 281.400 356.200 331.500 L 356.200 381.600 368.900 381.600 L 381.600 381.600 381.600 318.900 L 381.600 256.200 367.300 256.322 C 340.768 256.550,330.549 254.996,317.741 248.789 C 291.501 236.074,275.275 210.248,275.213 181.100 L 275.200 175.200 328.400 175.200 L 381.600 175.200 381.600 147.000 L 381.600 118.800 345.700 118.792 C 303.396 118.782,301.896 118.681,291.000 115.129 C 287.468 113.977,286.425 113.549,282.000 111.434 C 263.373 102.529,250.038 85.131,245.152 63.358 C 244.311 59.612,244.255 58.303,244.106 38.900 L 243.948 18.400 215.572 18.400 L 187.197 18.400 187.298 68.500 M81.392 81.000 C 81.392 101.900,81.441 110.509,81.500 100.130 C 81.559 89.752,81.559 72.652,81.500 62.130 C 81.441 51.609,81.392 60.100,81.392 81.000 M110.900 43.900 C 115.245 43.964,122.355 43.964,126.700 43.900 C 131.045 43.835,127.490 43.782,118.800 43.782 C 110.110 43.782,106.555 43.835,110.900 43.900 M53.143 63.263 C 47.539 66.513,50.020 75.209,56.549 75.198 C 58.975 75.194,62.408 72.254,62.386 70.200 C 62.380 69.681,62.055 70.033,61.459 71.200 C 58.544 76.914,50.600 75.159,50.600 68.800 C 50.600 64.586,54.598 61.710,58.281 63.275 C 59.849 63.942,61.600 65.617,61.600 66.451 C 61.600 66.837,61.780 67.264,62.000 67.400 C 62.714 67.842,62.423 66.552,61.500 65.189 C 59.638 62.439,56.007 61.602,53.143 63.263 M53.357 87.991 C 48.234 90.062,49.473 100.119,54.831 99.959 L 56.200 99.918 55.000 99.628 C 51.102 98.685,49.081 93.963,51.136 90.600 C 51.826 89.471,52.364 89.100,54.800 88.075 C 55.643 87.720,55.674 87.654,55.000 87.652 C 54.560 87.651,53.821 87.804,53.357 87.991 M57.800 88.095 C 60.083 89.056,60.703 89.581,61.566 91.287 C 62.302 92.744,62.396 92.820,62.192 91.800 C 61.856 90.115,59.705 88.064,58.000 87.804 L 56.600 87.590 57.800 88.095 M61.758 95.908 C 61.452 97.439,60.152 98.698,58.138 99.417 C 56.990 99.826,56.835 99.969,57.526 99.982 C 59.797 100.025,63.446 96.113,62.251 94.917 C 62.116 94.783,61.894 95.228,61.758 95.908 M106.162 143.800 C 106.162 147.320,106.224 148.706,106.298 146.881 C 106.372 145.056,106.372 142.176,106.297 140.481 C 106.222 138.786,106.161 140.280,106.162 143.800 M123.400 225.407 C 121.640 225.690,119.480 226.129,118.600 226.383 C 117.720 226.637,116.457 226.986,115.794 227.159 C 113.949 227.640,108.867 229.978,105.600 231.849 C 100.665 234.675,93.196 241.711,89.937 246.603 C 87.595 250.119,84.400 255.919,84.400 256.654 C 84.400 256.960,84.220 257.568,84.000 258.005 C 83.780 258.442,83.420 259.158,83.200 259.595 C 82.980 260.032,82.800 260.806,82.800 261.315 C 82.800 261.824,82.637 262.411,82.439 262.620 C 81.112 264.016,81.114 285.575,82.441 286.980 C 82.638 287.189,82.800 287.853,82.800 288.456 C 82.800 289.059,82.980 289.664,83.200 289.800 C 83.420 289.936,83.600 290.476,83.600 291.000 C 83.600 291.524,83.780 292.064,84.000 292.200 C 84.220 292.336,84.400 292.712,84.400 293.035 C 84.400 297.798,95.435 311.563,103.528 316.895 C 107.190 319.307,108.333 319.927,111.900 321.434 C 112.725 321.782,113.713 322.232,114.095 322.434 C 114.477 322.635,115.141 322.800,115.571 322.800 C 116.001 322.800,116.452 322.960,116.573 323.156 C 116.694 323.351,117.379 323.613,118.096 323.736 C 118.813 323.860,120.480 324.186,121.800 324.461 C 126.143 325.366,142.799 324.972,143.431 323.950 C 143.550 323.757,144.166 323.600,144.800 323.600 C 145.434 323.600,146.064 323.420,146.200 323.200 C 146.336 322.980,146.799 322.800,147.229 322.800 C 147.659 322.800,148.323 322.635,148.705 322.433 C 149.087 322.231,150.970 321.294,152.889 320.349 C 162.960 315.393,171.929 306.377,176.713 296.400 C 178.515 292.643,179.829 288.896,179.471 288.537 C 179.343 288.410,179.126 288.822,178.988 289.453 C 178.851 290.084,178.572 291.005,178.369 291.500 C 178.166 291.995,177.842 292.805,177.649 293.300 C 177.118 294.661,174.645 299.772,174.407 300.000 C 174.293 300.110,173.931 300.718,173.604 301.352 C 170.517 307.331,159.206 317.138,151.400 320.603 C 150.080 321.189,148.687 321.833,148.305 322.034 C 147.923 322.235,147.259 322.400,146.829 322.400 C 146.399 322.400,145.948 322.560,145.827 322.756 C 145.706 322.951,144.931 323.226,144.104 323.367 C 143.277 323.507,141.610 323.822,140.400 324.067 C 136.236 324.910,121.244 324.535,120.220 323.561 C 120.011 323.363,119.484 323.200,119.048 323.200 C 118.336 323.200,116.877 322.809,114.600 322.008 C 106.687 319.223,94.575 310.282,91.373 304.862 C 90.963 304.168,90.486 303.600,90.314 303.600 C 90.141 303.600,90.000 303.407,90.000 303.172 C 90.000 302.937,89.489 301.992,88.865 301.072 C 87.830 299.546,86.921 297.752,85.006 293.451 C 83.923 291.019,83.315 288.897,82.297 284.000 C 81.680 281.033,81.709 268.428,82.339 265.400 C 82.614 264.080,82.940 262.413,83.064 261.696 C 83.187 260.979,83.449 260.294,83.644 260.173 C 83.840 260.052,84.000 259.637,84.000 259.252 C 84.000 258.866,84.336 257.841,84.747 256.975 C 85.158 256.109,85.822 254.680,86.221 253.800 C 87.226 251.587,92.153 244.236,93.932 242.294 C 95.311 240.790,97.430 238.715,100.197 236.163 C 103.282 233.317,111.320 229.012,116.828 227.255 C 117.614 227.005,118.613 226.800,119.048 226.800 C 119.484 226.800,120.011 226.633,120.220 226.428 C 122.174 224.517,139.592 225.400,146.600 227.765 C 155.844 230.885,164.801 237.113,169.949 244.000 C 170.524 244.770,171.095 245.490,171.217 245.600 C 172.077 246.377,174.680 250.741,176.226 254.000 C 176.800 255.210,177.434 256.513,177.635 256.895 C 177.836 257.277,178.000 257.864,178.000 258.200 C 178.000 258.536,178.162 259.123,178.361 259.505 C 179.101 260.929,180.191 265.830,180.740 270.200 C 181.066 272.796,181.095 272.859,181.146 271.063 C 181.176 269.997,180.835 267.333,180.388 265.142 C 175.028 238.840,149.698 221.178,123.400 225.407 M180.703 279.200 C 180.258 282.502,180.327 284.509,180.842 283.221 C 181.057 282.682,181.181 281.062,181.116 279.621 L 181.000 277.000 180.703 279.200 M179.873 285.753 C 179.723 286.145,179.611 286.766,179.625 287.133 C 179.642 287.575,179.781 287.474,180.037 286.834 C 180.249 286.303,180.361 285.682,180.285 285.454 C 180.209 285.227,180.024 285.361,179.873 285.753 " stroke="none" fill="#949c9c" fill-rule="evenodd"></path><path id="path2" d="M244.106 38.900 C 244.255 58.303,244.311 59.612,245.152 63.358 C 250.038 85.131,263.373 102.529,282.000 111.434 C 286.425 113.549,287.468 113.977,291.000 115.129 C 301.896 118.681,303.396 118.782,345.700 118.792 L 381.600 118.800 381.600 68.600 L 381.600 18.400 312.774 18.400 L 243.948 18.400 244.106 38.900 M347.505 62.766 C 347.887 62.968,348.859 63.419,349.665 63.768 C 351.467 64.551,354.410 67.758,355.550 70.184 C 356.372 71.931,356.400 72.518,356.400 87.758 C 356.400 104.616,356.352 105.043,354.200 107.447 C 353.980 107.693,353.421 108.323,352.957 108.847 C 347.117 115.450,336.119 113.647,332.158 105.436 L 331.200 103.450 331.200 87.521 C 331.200 71.906,331.218 71.554,332.087 69.696 C 333.091 67.552,336.003 64.472,337.800 63.654 C 338.460 63.353,339.270 62.959,339.600 62.777 C 340.425 62.323,346.650 62.315,347.505 62.766 M131.500 118.695 L 106.400 118.806 106.400 128.203 L 106.400 137.600 116.539 137.600 C 129.311 137.600,131.200 138.378,131.200 143.640 C 131.200 149.057,129.013 150.000,116.446 150.000 L 106.400 150.000 106.400 159.400 L 106.400 168.800 62.400 168.800 L 18.400 168.800 18.400 256.197 L 18.400 343.594 43.500 343.697 L 68.600 343.800 68.704 362.701 L 68.808 381.601 212.504 381.501 L 356.200 381.400 356.200 331.400 L 356.200 281.400 300.100 281.299 L 244.000 281.197 243.900 228.099 C 243.845 198.894,243.859 162.445,243.930 147.099 C 244.037 124.195,243.965 119.168,243.530 119.032 C 242.796 118.803,162.099 118.560,131.500 118.695 M166.011 138.500 C 169.443 140.824,169.872 145.975,166.855 148.652 C 162.845 152.209,156.000 149.468,156.000 144.305 C 156.000 139.232,161.975 135.767,166.011 138.500 M190.320 138.162 C 193.066 139.591,194.721 143.693,193.622 146.347 C 191.028 152.609,181.200 150.903,181.200 144.190 C 181.200 139.204,186.099 135.966,190.320 138.162 M216.011 138.500 C 220.575 141.590,219.515 148.545,214.255 150.021 C 208.384 151.669,204.019 145.727,207.226 140.453 C 208.957 137.607,213.275 136.647,216.011 138.500 M275.213 181.100 C 275.275 210.248,291.501 236.074,317.741 248.789 C 330.535 254.990,340.742 256.544,367.200 256.320 L 381.400 256.200 381.502 215.700 L 381.604 175.200 328.402 175.200 L 275.200 175.200 275.213 181.100 M64.913 187.751 C 70.749 190.248,69.958 198.722,63.769 200.007 C 59.184 200.958,41.988 200.368,40.264 199.200 C 36.124 196.394,36.409 190.306,40.785 188.100 C 43.010 186.978,62.449 186.697,64.913 187.751 M221.326 188.050 C 223.499 189.169,225.200 191.694,225.200 193.800 C 225.200 195.906,223.499 198.431,221.326 199.550 C 220.741 199.851,216.802 200.000,209.400 200.000 C 201.998 200.000,198.059 199.851,197.474 199.550 C 192.458 196.967,192.418 190.822,197.400 188.067 C 198.518 187.449,220.129 187.433,221.326 188.050 M347.715 194.140 C 351.198 195.352,354.648 198.802,355.860 202.285 C 356.261 203.437,356.389 207.500,356.394 219.221 L 356.400 234.643 355.412 236.621 C 350.680 246.102,336.770 246.541,332.446 237.346 C 332.149 236.716,331.748 235.887,331.553 235.505 C 331.359 235.123,331.200 227.606,331.200 218.800 C 331.200 209.994,331.359 202.477,331.553 202.095 C 331.748 201.713,332.153 200.874,332.453 200.232 C 333.168 198.705,336.317 195.548,337.819 194.854 C 338.468 194.553,339.270 194.159,339.600 193.977 C 340.556 193.451,346.054 193.561,347.715 194.140 M138.800 200.418 C 167.446 203.947,189.055 220.136,200.711 246.800 C 209.681 267.321,207.448 294.314,195.129 314.259 C 188.295 325.325,176.096 336.787,165.903 341.721 C 161.392 343.905,158.487 345.135,155.800 346.002 C 154.260 346.499,152.640 347.048,152.200 347.222 C 151.760 347.397,150.860 347.653,150.200 347.791 C 149.540 347.930,148.190 348.224,147.200 348.445 C 142.830 349.422,140.108 349.688,132.600 349.873 C 123.968 350.085,119.840 349.648,112.600 347.759 C 111.500 347.472,110.150 347.123,109.600 346.985 C 109.050 346.846,108.240 346.587,107.800 346.408 C 107.360 346.228,105.470 345.498,103.600 344.785 C 85.496 337.880,68.699 321.496,61.992 304.200 C 61.821 303.760,61.407 302.770,61.070 302.000 C 59.689 298.837,57.604 290.572,56.781 285.000 C 56.234 281.295,56.483 265.882,57.146 262.400 C 58.305 256.315,60.142 249.916,61.828 246.091 C 71.255 224.703,88.198 209.791,111.000 202.815 C 118.427 200.543,131.010 199.458,138.800 200.418 M334.398 300.847 C 336.341 301.939,337.609 304.180,337.571 306.454 C 337.457 313.227,328.025 314.770,325.367 308.451 C 323.131 303.133,329.269 297.964,334.398 300.847 M291.807 306.400 C 307.708 306.400,306.332 304.009,306.371 331.711 L 306.400 352.821 304.611 354.611 L 302.821 356.400 273.211 356.400 L 243.600 356.400 243.600 331.467 C 243.600 317.753,243.735 306.389,243.900 306.213 C 244.065 306.037,252.555 306.007,262.766 306.146 C 272.977 306.286,286.045 306.400,291.807 306.400 M333.916 325.557 C 338.644 327.971,338.908 333.673,334.431 336.690 C 330.161 339.568,324.010 335.339,324.976 330.189 C 325.723 326.205,330.419 323.773,333.916 325.557 " stroke="none" fill="#dbe3e3" fill-rule="evenodd"></path><path id="path3" d="M142.800 18.000 C 142.800 18.220,142.260 18.400,141.600 18.400 C 140.940 18.400,140.400 18.580,140.400 18.800 C 140.400 19.020,140.119 19.200,139.776 19.200 C 139.433 19.200,134.570 23.788,128.971 29.395 L 118.789 39.589 108.575 29.395 C 102.957 23.788,98.100 19.200,97.780 19.200 C 97.461 19.200,97.200 19.020,97.200 18.800 C 97.200 18.567,95.863 18.400,93.989 18.400 L 90.779 18.400 88.989 20.189 L 87.200 21.979 87.200 25.189 C 87.200 27.063,87.367 28.400,87.600 28.400 C 87.820 28.400,88.000 28.679,88.000 29.020 C 88.000 29.361,91.088 32.736,94.862 36.520 L 101.724 43.400 118.762 43.400 L 135.800 43.400 142.700 36.506 C 146.495 32.715,149.600 29.340,149.600 29.006 C 149.600 28.673,149.780 28.400,150.000 28.400 C 150.220 28.400,150.400 27.860,150.400 27.200 C 150.400 26.540,150.580 26.000,150.800 26.000 C 151.020 26.000,151.200 25.550,151.200 25.000 C 151.200 24.450,151.020 24.000,150.800 24.000 C 150.580 24.000,150.400 23.460,150.400 22.800 C 150.400 22.140,150.220 21.600,150.000 21.600 C 149.780 21.600,149.600 21.317,149.600 20.971 C 149.600 20.163,148.637 19.200,147.829 19.200 C 147.483 19.200,147.200 19.020,147.200 18.800 C 147.200 18.580,146.660 18.400,146.000 18.400 C 145.340 18.400,144.800 18.220,144.800 18.000 C 144.800 17.780,144.350 17.600,143.800 17.600 C 143.250 17.600,142.800 17.780,142.800 18.000 M30.800 80.757 C 30.800 114.635,30.862 118.338,31.433 118.557 C 31.781 118.691,43.121 118.800,56.633 118.800 L 81.200 118.800 81.200 81.000 L 81.200 43.200 56.000 43.200 L 30.800 43.200 30.800 80.757 M58.905 62.900 C 63.643 65.548,63.838 71.745,59.265 74.315 C 53.755 77.412,47.717 71.170,50.843 65.608 C 52.365 62.900,56.450 61.528,58.905 62.900 M60.560 89.162 C 63.696 92.201,63.057 97.536,59.318 99.537 C 53.412 102.698,47.010 95.010,51.257 89.857 C 53.562 87.061,58.047 86.725,60.560 89.162 M106.400 143.800 L 106.400 150.000 116.446 150.000 C 129.013 150.000,131.200 149.057,131.200 143.640 C 131.200 138.378,129.311 137.600,116.539 137.600 L 106.400 137.600 106.400 143.800 M122.200 200.616 C 118.350 201.157,112.964 202.215,111.000 202.815 C 88.198 209.791,71.255 224.703,61.828 246.091 C 60.142 249.916,58.305 256.315,57.146 262.400 C 56.483 265.882,56.234 281.295,56.781 285.000 C 57.604 290.572,59.689 298.837,61.070 302.000 C 61.407 302.770,61.821 303.760,61.992 304.200 C 68.699 321.496,85.496 337.880,103.600 344.785 C 105.470 345.498,107.360 346.228,107.800 346.408 C 108.240 346.587,109.050 346.846,109.600 346.985 C 110.150 347.123,111.500 347.472,112.600 347.759 C 119.840 349.648,123.968 350.085,132.600 349.873 C 140.108 349.688,142.830 349.422,147.200 348.445 C 148.190 348.224,149.540 347.930,150.200 347.791 C 150.860 347.653,151.760 347.397,152.200 347.222 C 152.640 347.048,154.260 346.499,155.800 346.002 C 165.953 342.728,175.162 336.941,183.409 328.655 C 205.603 306.355,212.494 273.754,200.711 246.800 C 186.717 214.788,154.832 196.031,122.200 200.616 M138.400 225.387 C 160.154 229.052,176.113 244.163,180.388 265.142 C 181.265 269.443,181.554 281.138,180.841 283.440 C 180.643 284.078,180.163 286.040,179.774 287.800 C 176.902 300.776,166.109 313.844,152.889 320.349 C 150.970 321.294,149.087 322.231,148.705 322.433 C 148.323 322.635,147.659 322.800,147.229 322.800 C 146.799 322.800,146.336 322.980,146.200 323.200 C 146.064 323.420,145.434 323.600,144.800 323.600 C 144.166 323.600,143.550 323.757,143.431 323.950 C 142.799 324.972,126.143 325.366,121.800 324.461 C 120.480 324.186,118.813 323.860,118.096 323.736 C 117.379 323.613,116.694 323.351,116.573 323.156 C 116.452 322.960,116.001 322.800,115.571 322.800 C 115.141 322.800,114.477 322.635,114.095 322.434 C 113.713 322.232,112.725 321.782,111.900 321.434 C 108.333 319.927,107.190 319.307,103.528 316.895 C 95.435 311.563,84.400 297.798,84.400 293.035 C 84.400 292.712,84.220 292.336,84.000 292.200 C 83.780 292.064,83.600 291.524,83.600 291.000 C 83.600 290.476,83.420 289.936,83.200 289.800 C 82.980 289.664,82.800 289.059,82.800 288.456 C 82.800 287.853,82.638 287.189,82.441 286.980 C 81.114 285.575,81.112 264.016,82.439 262.620 C 82.637 262.411,82.800 261.824,82.800 261.315 C 82.800 260.806,82.980 260.032,83.200 259.595 C 83.420 259.158,83.780 258.442,84.000 258.005 C 84.220 257.568,84.400 256.960,84.400 256.654 C 84.400 255.919,87.595 250.119,89.937 246.603 C 93.196 241.711,100.665 234.675,105.600 231.849 C 108.867 229.978,113.949 227.640,115.794 227.159 C 116.457 226.986,117.720 226.637,118.600 226.383 C 123.868 224.863,132.663 224.420,138.400 225.387 M18.400 362.597 L 18.400 381.600 43.604 381.600 L 68.808 381.600 68.704 362.700 L 68.600 343.800 43.500 343.697 L 18.400 343.594 18.400 362.597 " stroke="none" fill="#fbcb07" fill-rule="evenodd"></path><path id="path4" d="M93.910 49.665 L 93.800 56.200 87.700 56.310 L 81.600 56.421 81.600 62.600 L 81.600 68.779 87.700 68.890 L 93.800 69.000 93.800 81.400 L 93.800 93.800 87.700 93.910 L 81.600 94.021 81.600 100.210 L 81.600 106.400 87.810 106.400 L 94.021 106.400 93.910 112.500 L 93.800 118.600 71.848 118.800 L 49.896 119.000 54.448 122.996 C 56.952 125.194,59.090 127.092,59.200 127.215 C 59.374 127.408,68.800 135.822,72.805 139.359 C 78.269 144.185,81.211 146.795,82.598 148.045 C 83.479 148.840,86.090 151.158,88.400 153.197 C 90.710 155.235,93.416 157.645,94.413 158.552 C 95.411 159.458,98.269 162.000,100.765 164.200 L 105.304 168.200 61.752 168.403 L 18.200 168.605 62.357 168.703 L 106.514 168.800 106.357 153.300 C 106.271 144.775,106.245 130.735,106.300 122.100 L 106.400 106.400 118.800 106.400 L 131.200 106.400 131.200 112.600 L 131.200 118.800 137.500 118.801 L 143.800 118.801 143.681 112.611 L 143.561 106.420 150.081 106.310 L 156.600 106.200 156.710 100.110 L 156.821 94.020 150.310 93.910 L 143.800 93.800 143.694 81.300 L 143.589 68.800 150.194 68.800 L 156.800 68.800 156.800 62.610 L 156.800 56.420 150.300 56.310 L 143.800 56.200 143.690 49.665 L 143.580 43.130 139.290 43.349 C 136.930 43.469,134.145 43.683,133.100 43.824 L 131.200 44.081 131.200 50.240 L 131.200 56.400 118.800 56.400 L 106.400 56.400 106.400 50.240 L 106.400 44.081 104.500 43.824 C 103.455 43.683,100.670 43.469,98.310 43.349 L 94.020 43.130 93.910 49.665 M339.815 62.776 C 339.676 63.001,340.191 63.059,341.091 62.920 C 343.100 62.610,343.261 62.400,341.490 62.400 C 340.697 62.400,339.943 62.569,339.815 62.776 M343.800 62.583 C 344.020 62.649,345.010 62.926,346.000 63.198 C 351.130 64.608,353.906 67.196,355.440 72.000 C 355.615 72.550,355.864 79.210,355.992 86.800 L 356.225 100.600 356.313 86.296 C 356.397 72.451,356.373 71.933,355.550 70.184 C 354.410 67.758,351.467 64.551,349.665 63.768 C 348.859 63.419,347.887 62.968,347.505 62.766 C 347.123 62.565,346.043 62.414,345.105 62.432 C 344.167 62.449,343.580 62.517,343.800 62.583 M336.333 64.590 C 333.833 66.424,331.183 70.422,331.209 72.319 C 331.215 72.693,331.657 71.935,332.192 70.633 C 333.249 68.062,335.764 65.183,338.000 63.985 C 338.770 63.573,339.130 63.232,338.800 63.228 C 338.470 63.223,337.360 63.836,336.333 64.590 M131.400 81.400 L 131.400 93.800 118.800 93.800 L 106.200 93.800 106.094 81.294 L 105.989 68.789 118.694 68.894 L 131.400 69.000 131.400 81.400 M356.056 102.000 C 356.021 102.550,355.552 103.945,355.014 105.100 C 354.477 106.255,354.164 107.197,354.318 107.193 C 354.914 107.178,356.453 103.221,356.289 102.127 C 356.131 101.074,356.116 101.065,356.056 102.000 M331.200 102.910 C 331.200 103.483,331.387 104.068,331.616 104.210 C 331.889 104.379,331.938 104.077,331.760 103.334 C 331.392 101.801,331.200 101.656,331.200 102.910 M332.001 105.055 C 332.008 106.645,335.845 110.523,338.705 111.831 C 342.494 113.564,348.674 112.914,351.120 110.525 C 351.406 110.246,351.856 109.879,352.120 109.709 C 352.384 109.539,352.960 108.953,353.400 108.406 C 353.882 107.807,353.539 107.992,352.535 108.873 C 346.238 114.400,337.861 113.430,333.300 106.644 C 332.585 105.580,332.001 104.865,332.001 105.055 M159.159 138.503 C 154.794 141.404,155.671 150.009,160.331 149.999 C 160.736 149.998,160.464 149.670,159.642 149.169 C 156.902 147.499,155.208 143.584,156.800 142.600 C 157.020 142.464,157.200 142.068,157.200 141.720 C 157.200 141.372,157.745 140.566,158.411 139.929 C 161.829 136.663,166.154 137.784,168.035 142.424 C 168.705 144.075,168.755 144.116,168.748 143.000 C 168.724 138.740,162.908 136.012,159.159 138.503 M184.368 138.193 C 182.977 138.949,181.195 141.725,181.222 143.091 C 181.243 144.095,181.309 144.041,181.927 142.522 C 183.824 137.852,188.233 136.638,191.497 139.886 C 194.673 143.046,193.960 147.616,190.000 149.476 C 189.286 149.812,189.196 149.954,189.686 149.973 C 190.063 149.988,190.986 149.461,191.737 148.802 C 197.319 143.901,190.891 134.646,184.368 138.193 M209.296 138.398 C 204.825 141.124,205.617 150.009,210.331 149.999 C 210.736 149.998,210.464 149.670,209.642 149.169 C 206.771 147.419,206.066 145.920,206.784 143.090 C 208.395 136.732,215.555 136.309,218.035 142.424 C 218.705 144.075,218.755 144.116,218.748 143.000 C 218.724 138.832,213.087 136.087,209.296 138.398 M168.192 146.070 C 167.848 147.206,166.037 149.200,165.349 149.200 C 165.073 149.200,164.717 149.411,164.558 149.668 C 164.138 150.348,165.435 149.789,166.811 148.697 C 167.949 147.793,169.094 145.760,168.690 145.357 C 168.571 145.238,168.346 145.558,168.192 146.070 M181.232 145.753 C 181.198 146.563,184.385 150.000,185.171 150.000 C 185.433 150.000,185.536 149.820,185.400 149.600 C 185.264 149.380,184.925 149.200,184.646 149.200 C 183.982 149.200,182.351 147.447,181.745 146.081 C 181.376 145.251,181.257 145.175,181.232 145.753 M218.192 146.070 C 217.848 147.206,216.037 149.200,215.349 149.200 C 215.073 149.200,214.717 149.411,214.558 149.668 C 214.138 150.348,215.435 149.789,216.811 148.697 C 217.949 147.793,219.094 145.760,218.690 145.357 C 218.571 145.238,218.346 145.558,218.192 146.070 M161.700 150.276 C 162.085 150.376,162.715 150.376,163.100 150.276 C 163.485 150.175,163.170 150.093,162.400 150.093 C 161.630 150.093,161.315 150.175,161.700 150.276 M186.900 150.276 C 187.285 150.376,187.915 150.376,188.300 150.276 C 188.685 150.175,188.370 150.093,187.600 150.093 C 186.830 150.093,186.515 150.175,186.900 150.276 M211.700 150.276 C 212.085 150.376,212.715 150.376,213.100 150.276 C 213.485 150.175,213.170 150.093,212.400 150.093 C 211.630 150.093,211.315 150.175,211.700 150.276 M53.200 187.588 C 66.250 187.840,66.780 187.990,68.256 191.874 L 68.837 193.400 68.611 192.014 C 67.927 187.808,65.847 187.182,52.913 187.288 L 42.200 187.375 53.200 187.588 M40.119 188.384 C 38.872 189.145,37.320 191.454,37.761 191.894 C 37.882 192.015,38.102 191.774,38.249 191.357 C 38.616 190.322,40.437 188.400,41.051 188.400 C 41.327 188.400,41.664 188.220,41.800 188.000 C 42.185 187.377,41.522 187.529,40.119 188.384 M197.400 188.067 C 192.418 190.822,192.458 196.967,197.474 199.550 C 198.059 199.851,201.998 200.000,209.400 200.000 C 220.836 200.000,221.271 199.945,223.135 198.250 C 226.382 195.298,225.476 190.187,221.326 188.050 C 220.129 187.433,198.518 187.449,197.400 188.067 M220.563 188.386 C 223.298 189.426,225.157 192.825,224.296 195.212 C 222.827 199.286,221.760 199.600,209.400 199.600 C 198.459 199.600,197.314 199.412,195.594 197.332 C 194.564 196.087,193.790 193.250,194.332 192.708 C 194.589 192.451,194.800 191.947,194.800 191.590 C 194.800 190.814,196.139 189.493,197.800 188.629 C 199.200 187.901,218.738 187.692,220.563 188.386 M37.250 193.574 C 37.153 196.225,40.032 200.080,42.025 199.968 C 42.341 199.950,42.121 199.722,41.536 199.462 C 39.217 198.432,38.157 196.910,37.591 193.800 L 37.300 192.200 37.250 193.574 M339.600 193.977 C 339.270 194.159,338.526 194.528,337.946 194.797 C 335.814 195.786,331.977 199.955,332.018 201.238 C 332.027 201.547,332.373 201.161,332.786 200.380 C 337.853 190.797,352.110 192.572,355.445 203.200 C 355.618 203.750,355.864 210.410,355.992 218.000 L 356.225 231.800 356.307 217.800 C 356.405 200.952,356.047 199.472,351.020 195.929 C 348.025 193.818,341.817 192.757,339.600 193.977 M68.445 195.000 C 68.363 196.367,66.902 198.326,65.317 199.194 C 64.299 199.752,64.129 199.940,64.800 199.767 C 66.730 199.267,69.055 196.328,68.671 194.873 C 68.529 194.338,68.483 194.364,68.445 195.000 M48.123 200.299 C 50.941 200.368,55.441 200.368,58.123 200.299 C 60.805 200.230,58.500 200.173,53.000 200.173 C 47.500 200.174,45.305 200.230,48.123 200.299 M331.467 202.267 C 331.320 202.413,331.211 202.908,331.225 203.367 C 331.249 204.133,331.282 204.123,331.634 203.242 C 332.026 202.263,331.944 201.789,331.467 202.267 M122.200 225.894 C 121.320 225.982,120.429 226.221,120.220 226.427 C 120.011 226.632,119.484 226.800,119.048 226.800 C 116.617 226.800,108.349 230.506,103.300 233.859 C 101.485 235.065,100.000 236.186,100.000 236.351 C 100.000 236.516,115.702 252.359,134.892 271.557 L 169.785 306.463 170.716 305.332 C 172.275 303.437,174.000 300.879,174.000 300.461 C 174.000 300.244,174.136 300.007,174.302 299.933 C 174.587 299.807,176.894 295.237,177.649 293.300 C 177.842 292.805,178.159 291.995,178.354 291.500 C 178.549 291.005,178.922 289.790,179.182 288.800 C 179.441 287.810,179.822 286.447,180.027 285.772 C 180.232 285.096,180.400 283.768,180.400 282.821 L 180.400 281.099 152.645 253.349 C 137.380 238.087,124.645 225.630,124.345 225.667 C 124.045 225.704,123.080 225.806,122.200 225.894 M356.060 233.251 C 356.027 233.829,355.728 234.954,355.395 235.751 C 354.627 237.588,354.948 237.652,355.811 235.833 C 356.168 235.082,356.383 233.957,356.290 233.333 C 356.121 232.205,356.120 232.204,356.060 233.251 M331.200 234.110 C 331.200 234.683,331.387 235.268,331.616 235.410 C 331.889 235.579,331.938 235.277,331.760 234.534 C 331.392 233.001,331.200 232.856,331.200 234.110 M332.000 236.384 C 332.000 237.979,335.714 241.663,338.697 243.027 C 342.209 244.634,350.796 243.838,350.799 241.906 C 350.800 241.745,350.035 242.015,349.100 242.506 C 343.768 245.308,336.707 243.147,333.146 237.622 C 332.516 236.644,332.000 236.087,332.000 236.384 M352.800 239.731 C 351.810 240.853,351.379 241.508,351.843 241.186 C 352.829 240.501,354.968 238.030,354.750 237.828 C 354.667 237.752,353.790 238.609,352.800 239.731 M87.468 251.382 C 87.183 251.832,86.556 253.053,86.075 254.096 L 85.200 255.991 87.462 260.096 C 88.706 262.353,90.236 264.952,90.862 265.872 C 91.488 266.792,92.000 267.659,92.000 267.800 C 92.000 268.118,94.376 271.611,95.081 272.329 C 95.366 272.619,95.600 273.011,95.600 273.200 C 95.600 273.389,95.831 273.781,96.113 274.071 C 96.395 274.362,97.062 275.230,97.594 276.000 C 98.126 276.770,98.663 277.490,98.786 277.600 C 98.910 277.710,100.089 279.240,101.406 281.000 C 102.723 282.760,107.940 288.340,113.000 293.400 C 118.060 298.460,123.640 303.677,125.400 304.994 C 127.160 306.311,128.690 307.490,128.800 307.614 C 128.910 307.737,129.630 308.271,130.400 308.800 C 131.170 309.329,131.890 309.860,132.000 309.981 C 132.309 310.321,137.202 313.600,137.400 313.600 C 137.496 313.600,138.796 314.383,140.288 315.340 C 141.779 316.297,144.440 317.853,146.200 318.796 C 147.960 319.740,149.599 320.668,149.843 320.858 C 150.114 321.069,151.365 320.663,153.065 319.813 L 155.844 318.422 139.004 301.600 C 129.742 292.347,114.474 277.079,105.075 267.670 C 89.052 251.632,87.953 250.614,87.468 251.382 M327.965 300.912 C 325.299 302.709,324.242 305.775,325.367 308.451 C 328.025 314.770,337.457 313.227,337.571 306.454 C 337.653 301.527,331.943 298.231,327.965 300.912 M333.251 300.965 C 336.401 302.285,337.780 305.575,336.406 308.498 C 334.084 313.439,327.602 312.906,325.704 307.618 C 324.246 303.558,329.141 299.243,333.251 300.965 M243.900 306.213 C 243.164 306.999,243.558 356.402,244.300 356.368 C 244.718 356.350,244.799 356.256,244.500 356.135 C 244.108 355.977,244.000 350.605,244.000 331.161 L 244.000 306.388 256.300 306.494 L 268.600 306.600 268.822 313.200 C 269.011 318.821,269.201 320.304,270.104 323.200 C 271.968 329.173,270.743 329.724,283.255 317.283 L 294.200 306.401 287.766 306.400 C 284.227 306.400,272.977 306.286,262.766 306.146 C 252.555 306.007,244.065 306.037,243.900 306.213 M302.394 307.340 C 305.903 309.134,305.772 308.280,306.007 330.800 L 306.215 350.600 306.278 330.600 C 306.336 312.199,306.286 310.504,305.641 309.400 C 304.799 307.958,302.603 306.396,301.441 306.411 C 300.853 306.419,301.140 306.698,302.394 307.340 M328.993 325.357 C 326.344 326.511,324.330 330.075,324.944 332.521 C 326.370 338.200,333.382 339.341,336.690 334.431 C 339.936 329.616,334.345 323.025,328.993 325.357 M332.305 325.539 C 334.897 326.806,335.487 327.315,336.346 329.026 C 338.685 333.683,333.667 338.677,329.003 336.335 C 327.242 335.450,326.825 334.957,325.566 332.275 C 325.151 331.391,325.141 330.986,325.519 330.381 C 325.784 329.957,326.000 329.392,326.000 329.124 C 326.000 328.373,328.472 326.000,329.255 326.000 C 329.639 326.000,330.064 325.820,330.200 325.600 C 330.502 325.111,331.377 325.085,332.305 325.539 M305.869 351.956 C 305.541 353.593,304.066 355.139,302.200 355.799 C 300.764 356.307,300.714 356.367,301.711 356.382 C 303.183 356.406,306.400 353.269,306.400 351.811 C 306.400 350.463,306.154 350.531,305.869 351.956 " stroke="none" fill="#83d3f3" fill-rule="evenodd"></path></g></svg>