<svg id="svg" version="1.1" xmlns="http://www.w3.org/2000/svg" xmlns:xlink="http://www.w3.org/1999/xlink" width="400" height="400" viewBox="0, 0, 400,400"><g id="svgg"><path id="path0" d="M55.467 234.666 C 55.320 234.813,55.200 235.263,55.200 235.667 C 55.200 236.070,55.020 236.400,54.800 236.400 C 54.580 236.400,54.400 236.760,54.400 237.200 C 54.400 237.640,54.220 238.000,54.000 238.000 C 53.780 238.000,53.600 238.360,53.600 238.800 C 53.600 239.240,53.420 239.600,53.200 239.600 C 52.980 239.600,52.800 239.945,52.800 240.367 C 52.800 240.788,52.656 241.193,52.480 241.267 C 52.114 241.419,49.600 246.548,49.600 247.141 C 49.600 247.357,49.465 247.593,49.300 247.667 C 49.135 247.740,48.575 248.700,48.056 249.800 C 47.537 250.900,46.952 252.113,46.756 252.495 C 46.560 252.877,46.400 253.462,46.400 253.795 C 46.400 254.128,46.220 254.400,46.000 254.400 C 45.780 254.400,45.600 254.760,45.600 255.200 C 45.600 255.640,45.420 256.000,45.200 256.000 C 44.980 256.000,44.800 256.360,44.800 256.800 C 44.800 257.240,44.620 257.600,44.400 257.600 C 44.180 257.600,44.000 257.960,44.000 258.400 C 44.000 258.840,43.820 259.200,43.600 259.200 C 43.380 259.200,43.228 259.335,43.262 259.500 C 43.296 259.665,43.026 260.469,42.662 261.287 C 42.298 262.105,42.000 262.960,42.000 263.187 C 42.000 263.414,41.820 263.600,41.600 263.600 C 41.380 263.600,41.200 263.960,41.200 264.400 C 41.200 264.840,41.009 265.200,40.776 265.200 C 40.543 265.200,40.455 265.365,40.580 265.568 C 40.705 265.770,40.536 266.207,40.204 266.539 C 39.872 266.871,39.600 267.426,39.600 267.771 C 39.600 268.117,39.420 268.400,39.200 268.400 C 38.980 268.400,38.800 268.672,38.800 269.005 C 38.800 269.338,38.620 269.968,38.400 270.405 C 38.180 270.842,37.820 271.558,37.600 271.995 C 37.380 272.432,37.200 273.062,37.200 273.395 C 37.200 273.728,37.054 274.000,36.875 274.000 C 36.696 274.000,36.302 274.630,36.000 275.400 C 35.698 276.170,35.304 276.800,35.125 276.800 C 34.946 276.800,34.800 277.160,34.800 277.600 C 34.800 278.040,34.620 278.400,34.400 278.400 C 34.180 278.400,34.000 278.760,34.000 279.200 C 34.000 279.640,33.820 280.000,33.600 280.000 C 33.380 280.000,33.200 280.360,33.200 280.800 C 33.200 281.240,33.020 281.600,32.800 281.600 C 32.580 281.600,32.400 281.960,32.400 282.400 C 32.400 282.840,32.220 283.200,32.000 283.200 C 31.780 283.200,31.600 283.465,31.600 283.788 C 31.600 284.287,30.072 287.700,28.776 290.095 C 28.569 290.477,28.400 291.047,28.400 291.361 C 28.400 291.676,28.256 291.993,28.079 292.067 C 27.738 292.208,24.800 298.166,24.800 298.715 C 24.800 299.299,23.808 301.194,23.500 301.197 C 23.335 301.199,23.200 301.560,23.200 302.000 C 23.200 302.440,23.020 302.800,22.800 302.800 C 22.580 302.800,22.400 303.160,22.400 303.600 C 22.400 304.040,22.220 304.400,22.000 304.400 C 21.780 304.400,21.600 304.760,21.600 305.200 C 21.600 305.640,21.420 306.000,21.200 306.000 C 20.980 306.000,20.800 306.349,20.800 306.776 C 20.800 307.203,20.620 307.664,20.400 307.800 C 20.180 307.936,20.000 308.497,20.000 309.047 C 20.000 309.612,19.826 309.940,19.600 309.800 C 19.380 309.664,19.200 309.923,19.200 310.376 C 19.200 310.829,19.020 311.200,18.800 311.200 C 18.580 311.200,18.400 311.560,18.400 312.000 C 18.400 312.440,18.220 312.800,18.000 312.800 C 17.780 312.800,17.600 313.034,17.600 313.320 C 17.600 314.056,16.659 315.993,16.300 315.997 C 16.135 315.999,16.000 316.234,16.000 316.520 C 16.000 317.256,15.059 319.193,14.700 319.197 C 14.535 319.199,14.400 319.560,14.400 320.000 C 14.400 320.440,14.220 320.800,14.000 320.800 C 13.780 320.800,13.600 321.045,13.600 321.344 C 13.600 321.643,13.078 322.948,12.441 324.244 C 10.471 328.249,9.020 331.388,9.010 331.667 C 9.004 331.813,8.865 332.068,8.700 332.233 C 8.535 332.398,8.400 332.863,8.400 333.267 C 8.400 333.670,8.220 334.000,8.000 334.000 C 7.780 334.000,7.600 334.360,7.600 334.800 C 7.600 335.240,7.420 335.600,7.200 335.600 C 6.980 335.600,6.800 335.960,6.800 336.400 C 6.800 336.840,6.620 337.200,6.400 337.200 C 6.180 337.200,6.000 337.560,6.000 338.000 C 6.000 338.440,5.820 338.800,5.600 338.800 C 5.380 338.800,5.200 339.261,5.200 339.824 C 5.200 340.404,5.027 340.740,4.800 340.600 C 4.580 340.464,4.400 340.723,4.400 341.176 C 4.400 341.629,4.220 342.000,4.000 342.000 C 3.780 342.000,3.600 342.360,3.600 342.800 C 3.600 343.240,3.420 343.600,3.200 343.600 C 2.980 343.600,2.800 344.050,2.800 344.600 C 2.800 345.150,2.620 345.600,2.400 345.600 C 2.180 345.600,2.000 345.960,2.000 346.400 C 2.000 346.840,1.820 347.200,1.600 347.200 C 1.380 347.200,1.200 347.545,1.200 347.967 C 1.200 348.388,0.975 348.809,0.700 348.901 C 0.332 349.024,0.200 350.530,0.200 354.601 C 0.200 358.671,0.332 360.178,0.700 360.300 C 0.975 360.392,1.200 360.902,1.200 361.433 C 1.200 361.965,1.380 362.400,1.600 362.400 C 1.820 362.400,2.000 362.670,2.000 363.000 C 2.000 363.330,2.180 363.600,2.400 363.600 C 2.620 363.600,2.800 363.825,2.801 364.100 C 2.801 364.375,3.341 365.230,4.000 366.000 C 4.659 366.770,5.201 367.670,5.205 368.000 C 5.211 368.533,5.255 368.533,5.600 368.000 C 5.909 367.522,5.995 367.603,6.025 368.400 C 6.046 368.950,6.148 369.192,6.253 368.937 C 6.365 368.661,7.047 369.066,7.935 369.937 C 9.625 371.593,10.897 372.400,11.818 372.400 C 12.164 372.400,12.336 372.580,12.200 372.800 C 12.060 373.027,12.396 373.200,12.976 373.200 C 13.539 373.200,14.000 373.364,14.000 373.565 C 14.000 373.765,14.315 373.880,14.700 373.821 C 15.085 373.761,15.754 373.956,16.188 374.255 C 17.411 375.099,382.601 375.064,384.227 374.220 C 384.841 373.901,385.470 373.720,385.626 373.816 C 385.782 373.912,386.123 373.734,386.384 373.419 C 386.645 373.105,387.115 372.946,387.429 373.067 C 387.743 373.187,388.000 373.086,388.000 372.843 C 388.000 372.599,388.248 372.400,388.551 372.400 C 388.854 372.400,389.324 372.132,389.596 371.804 C 389.868 371.477,390.212 371.284,390.361 371.376 C 390.509 371.468,391.231 370.929,391.965 370.178 C 392.698 369.428,393.484 368.929,393.711 369.069 C 393.938 369.209,394.007 369.135,393.864 368.904 C 393.722 368.673,394.414 367.664,395.402 366.661 C 396.391 365.658,397.200 364.559,397.200 364.219 C 397.200 363.879,397.380 363.600,397.600 363.600 C 397.820 363.600,398.000 363.240,398.000 362.800 C 398.000 362.360,398.180 362.000,398.400 362.000 C 398.620 362.000,398.800 361.655,398.800 361.233 C 398.800 360.812,399.025 360.392,399.300 360.300 C 400.016 360.062,400.016 349.140,399.300 348.901 C 399.025 348.809,398.800 348.388,398.800 347.967 C 398.800 347.545,398.620 347.200,398.400 347.200 C 398.180 347.200,398.000 346.840,398.000 346.400 C 398.000 345.960,397.820 345.600,397.600 345.600 C 397.380 345.600,397.200 345.150,397.200 344.600 C 397.200 344.050,397.020 343.600,396.800 343.600 C 396.580 343.600,396.400 343.240,396.400 342.800 C 396.400 342.360,396.265 341.999,396.100 341.997 C 395.741 341.993,394.800 340.056,394.800 339.320 C 394.800 339.034,394.665 338.799,394.500 338.797 C 394.141 338.793,393.200 336.856,393.200 336.120 C 393.200 335.834,393.020 335.600,392.800 335.600 C 392.580 335.600,392.400 335.240,392.400 334.800 C 392.400 334.360,392.220 334.000,392.000 334.000 C 391.780 334.000,391.600 333.698,391.600 333.330 C 391.600 332.709,390.452 330.128,387.559 324.244 C 386.921 322.948,386.400 321.643,386.400 321.344 C 386.400 321.045,386.220 320.800,386.000 320.800 C 385.780 320.800,385.600 320.440,385.600 320.000 C 385.600 319.560,385.465 319.199,385.300 319.197 C 384.941 319.193,384.000 317.256,384.000 316.520 C 384.000 316.234,383.820 316.000,383.600 316.000 C 383.380 316.000,383.200 315.640,383.200 315.200 C 383.200 314.760,383.065 314.399,382.900 314.397 C 382.541 314.393,381.600 312.456,381.600 311.720 C 381.600 311.434,381.420 311.200,381.200 311.200 C 380.980 311.200,380.800 310.829,380.800 310.376 C 380.800 309.923,380.620 309.664,380.400 309.800 C 380.174 309.940,380.000 309.612,380.000 309.047 C 380.000 308.497,379.820 307.936,379.600 307.800 C 379.380 307.664,379.200 307.203,379.200 306.776 C 379.200 306.349,379.020 306.000,378.800 306.000 C 378.580 306.000,378.400 305.640,378.400 305.200 C 378.400 304.760,378.220 304.400,378.000 304.400 C 377.780 304.400,377.600 304.040,377.600 303.600 C 377.600 303.160,377.420 302.800,377.200 302.800 C 376.980 302.800,376.800 302.440,376.800 302.000 C 376.800 301.560,376.620 301.200,376.400 301.200 C 376.180 301.200,376.000 300.840,376.000 300.400 C 376.000 299.960,375.820 299.600,375.600 299.600 C 375.380 299.600,375.200 299.298,375.200 298.930 C 375.200 298.153,372.381 292.265,371.914 292.067 C 371.741 291.993,371.600 291.712,371.600 291.442 C 371.600 290.946,370.363 288.080,369.510 286.600 C 369.256 286.160,368.716 285.080,368.310 284.200 C 367.903 283.320,367.397 282.287,367.185 281.905 C 366.973 281.523,366.800 280.938,366.800 280.605 C 366.800 280.272,366.620 280.000,366.400 280.000 C 366.180 280.000,366.000 279.640,366.000 279.200 C 366.000 278.760,365.820 278.400,365.600 278.400 C 365.380 278.400,365.200 278.040,365.200 277.600 C 365.200 277.160,365.054 276.800,364.875 276.800 C 364.696 276.800,364.302 276.170,364.000 275.400 C 363.698 274.630,363.304 274.000,363.125 274.000 C 362.946 274.000,362.800 273.728,362.800 273.395 C 362.800 273.062,362.620 272.432,362.400 271.995 C 362.180 271.558,361.820 270.842,361.600 270.405 C 361.380 269.968,361.200 269.338,361.200 269.005 C 361.200 268.672,361.020 268.400,360.800 268.400 C 360.580 268.400,360.400 268.040,360.400 267.600 C 360.400 267.160,360.220 266.800,360.000 266.800 C 359.780 266.800,359.600 266.440,359.600 266.000 C 359.600 265.560,359.440 265.200,359.245 265.200 C 359.049 265.200,358.771 264.570,358.626 263.800 C 358.482 263.030,358.192 262.400,357.982 262.400 C 357.772 262.400,357.600 262.062,357.600 261.649 C 357.600 261.236,357.332 260.676,357.004 260.404 C 356.677 260.132,356.507 259.750,356.628 259.555 C 356.749 259.360,356.657 259.200,356.424 259.200 C 356.191 259.200,356.000 258.840,356.000 258.400 C 356.000 257.960,355.820 257.600,355.600 257.600 C 355.380 257.600,355.200 257.240,355.200 256.800 C 355.200 256.360,355.020 256.000,354.800 256.000 C 354.580 256.000,354.400 255.640,354.400 255.200 C 354.400 254.760,354.220 254.400,354.000 254.400 C 353.780 254.400,353.600 254.128,353.600 253.795 C 353.600 253.462,353.443 252.877,353.250 252.495 C 353.058 252.113,352.549 251.080,352.120 250.200 C 351.691 249.320,351.147 248.240,350.912 247.800 C 350.677 247.360,349.881 245.740,349.144 244.200 C 348.407 242.660,347.668 241.340,347.502 241.267 C 347.336 241.193,347.200 240.788,347.200 240.367 C 347.200 239.945,347.020 239.600,346.800 239.600 C 346.580 239.600,346.400 239.240,346.400 238.800 C 346.400 238.360,346.220 238.000,346.000 238.000 C 345.780 238.000,345.600 237.640,345.600 237.200 C 345.600 236.760,345.433 236.400,345.228 236.400 C 345.023 236.400,344.798 235.995,344.728 235.500 L 344.600 234.600 200.167 234.499 C 120.729 234.444,55.614 234.519,55.467 234.666 M94.729 242.926 C 94.909 243.864,92.473 250.046,91.665 250.700 C 90.957 251.273,73.773 251.425,72.893 250.866 C 72.502 250.618,72.662 249.874,73.593 247.617 C 74.257 246.007,74.800 244.528,74.800 244.331 C 74.800 244.133,75.093 243.525,75.451 242.979 L 76.102 241.986 85.345 242.093 C 93.911 242.192,94.600 242.253,94.729 242.926 M119.539 242.354 C 119.983 242.635,119.994 243.182,119.599 245.448 C 119.334 246.962,119.029 248.769,118.920 249.464 C 118.653 251.156,118.457 251.189,108.600 251.188 C 98.923 251.188,98.836 251.164,99.584 248.731 C 100.818 244.713,101.245 243.464,101.626 242.752 C 102.063 241.935,118.309 241.574,119.539 242.354 M145.535 242.351 C 146.258 242.809,144.979 249.953,144.038 250.719 C 143.357 251.273,125.548 251.284,124.996 250.730 C 124.848 250.581,125.107 249.321,125.572 247.930 C 126.037 246.538,126.619 244.770,126.865 244.000 C 127.111 243.230,127.512 242.468,127.756 242.306 C 128.377 241.895,144.881 241.937,145.535 242.351 M170.522 242.500 C 171.107 242.934,171.144 243.319,170.801 245.400 C 170.583 246.720,170.404 248.454,170.402 249.253 C 170.400 250.421,170.223 250.754,169.500 250.948 C 168.096 251.324,151.866 251.230,151.254 250.842 C 150.575 250.412,151.782 243.475,152.694 242.563 C 153.464 241.793,169.491 241.737,170.522 242.500 M196.167 242.243 C 197.104 242.602,197.104 250.598,196.167 250.957 C 195.329 251.279,179.266 251.260,178.055 250.936 C 177.199 250.707,177.134 250.529,177.363 249.042 C 177.501 248.139,177.723 246.410,177.855 245.200 C 177.994 243.922,178.358 242.790,178.724 242.500 C 179.384 241.975,194.875 241.747,196.167 242.243 M221.279 242.500 C 221.626 242.775,222.008 243.810,222.128 244.800 C 222.248 245.790,222.470 247.518,222.622 248.641 C 222.881 250.556,222.839 250.697,221.949 250.935 C 220.735 251.260,204.673 251.280,203.833 250.957 C 203.006 250.640,202.884 242.594,203.700 242.265 C 204.873 241.792,220.650 242.003,221.279 242.500 M273.002 242.306 C 273.535 242.695,274.400 245.218,274.400 246.382 C 274.400 246.891,274.613 248.017,274.873 248.885 C 275.580 251.246,276.140 251.188,252.800 251.188 C 228.132 251.189,229.608 251.338,229.576 248.853 C 229.563 247.834,229.410 246.131,229.235 245.070 C 228.697 241.799,227.257 241.999,251.329 242.006 C 263.028 242.009,272.781 242.144,273.002 242.306 M298.535 242.900 C 299.675 244.756,300.987 250.437,300.366 250.830 C 299.749 251.220,283.540 251.334,282.139 250.958 C 281.516 250.791,281.218 250.322,281.062 249.263 C 280.944 248.459,280.655 246.642,280.419 245.226 C 279.859 241.862,279.432 242.013,289.491 242.006 C 297.869 242.000,297.989 242.012,298.535 242.900 M324.579 243.200 C 324.869 243.750,325.283 244.650,325.500 245.200 C 325.873 246.149,326.065 246.629,327.171 249.364 C 327.878 251.114,327.505 251.187,317.776 251.194 C 307.500 251.201,308.172 251.458,306.450 246.866 C 304.480 241.611,303.704 242.035,315.126 242.128 L 324.051 242.200 324.579 243.200 M117.307 255.200 C 117.167 256.698,115.527 262.527,115.084 263.103 C 114.779 263.499,109.712 263.584,91.248 263.503 L 67.800 263.400 67.894 262.506 C 67.946 262.014,68.790 259.897,69.769 257.802 L 71.548 253.993 94.474 254.097 L 117.400 254.200 117.307 255.200 M143.060 256.300 C 142.711 259.694,142.210 262.536,141.861 263.102 C 141.483 263.712,122.190 263.831,121.815 263.224 C 121.605 262.884,122.601 258.571,123.647 255.300 L 124.062 254.000 133.679 254.000 L 143.296 254.000 143.060 256.300 M170.123 255.200 C 169.384 264.783,170.935 263.664,158.600 263.513 L 149.400 263.400 149.449 261.800 C 149.505 259.960,150.195 255.735,150.610 254.693 C 150.869 254.040,151.629 253.994,160.545 254.093 L 170.200 254.200 170.123 255.200 M196.713 258.700 L 196.600 263.400 186.600 263.400 L 176.600 263.400 176.634 262.000 C 176.676 260.272,177.210 255.180,177.420 254.500 C 177.538 254.118,179.849 254.000,187.200 254.000 L 196.825 254.000 196.713 258.700 M222.996 256.900 C 223.168 258.495,223.329 260.610,223.354 261.600 L 223.400 263.400 213.400 263.400 L 203.400 263.400 203.287 258.700 L 203.175 254.000 212.929 254.000 L 222.684 254.000 222.996 256.900 M249.356 254.329 C 249.599 254.722,250.374 259.030,250.682 261.700 L 250.902 263.600 241.284 263.600 C 229.714 263.600,230.403 263.786,230.390 260.657 C 230.385 259.306,230.219 257.503,230.022 256.651 C 229.385 253.908,229.052 254.000,239.619 254.000 C 244.863 254.000,249.244 254.148,249.356 254.329 M276.311 255.100 C 277.261 257.661,278.470 262.763,278.222 263.165 C 277.866 263.741,258.555 263.774,258.199 263.199 C 257.890 262.698,257.277 259.335,256.943 256.300 L 256.689 254.000 266.296 254.000 L 275.903 254.000 276.311 255.100 M302.818 254.800 C 302.986 255.130,303.320 256.165,303.561 257.100 C 303.803 258.035,304.177 259.475,304.394 260.300 C 305.291 263.712,306.229 263.387,295.155 263.507 C 287.582 263.589,285.216 263.497,284.905 263.107 C 284.379 262.446,283.145 257.873,282.906 255.693 L 282.718 253.986 292.616 254.093 C 300.937 254.183,302.562 254.296,302.818 254.800 M328.676 254.500 C 329.566 255.688,332.463 262.774,332.220 263.167 C 332.040 263.458,328.772 263.600,322.244 263.600 C 311.316 263.600,312.407 263.916,311.200 260.400 C 310.699 258.941,310.404 258.156,309.650 256.281 C 308.697 253.911,308.342 254.000,318.751 254.000 C 325.926 254.000,328.395 254.124,328.676 254.500 M85.802 266.803 C 85.938 267.024,85.692 268.239,85.254 269.503 C 84.815 270.766,84.076 273.105,83.611 274.700 L 82.766 277.600 72.407 277.600 C 61.924 277.600,61.217 277.500,61.955 276.116 C 62.486 275.123,64.805 269.070,64.802 268.686 C 64.801 268.513,65.091 267.928,65.446 267.386 L 66.092 266.400 75.822 266.400 C 81.918 266.400,85.646 266.550,85.802 266.803 M113.291 266.873 C 113.462 267.386,111.857 274.873,111.213 276.565 L 110.820 277.600 100.378 277.600 L 89.936 277.600 90.205 276.300 C 90.487 274.933,91.878 270.362,92.427 269.000 C 92.605 268.560,92.863 267.795,93.002 267.300 L 93.254 266.400 103.194 266.400 C 110.491 266.400,113.175 266.526,113.291 266.873 M140.683 268.700 C 140.433 271.769,139.672 276.759,139.384 277.226 C 138.945 277.937,118.400 277.702,118.400 276.985 C 118.400 276.254,120.412 267.133,120.669 266.700 C 120.767 266.535,125.353 266.400,130.859 266.400 L 140.871 266.400 140.683 268.700 M168.984 266.774 C 169.196 267.117,168.779 271.217,168.085 275.600 L 167.800 277.400 157.642 277.507 L 147.483 277.614 147.705 272.707 C 148.023 265.667,146.755 266.400,158.619 266.400 C 164.466 266.400,168.850 266.558,168.984 266.774 M196.497 270.800 C 196.440 273.110,196.296 275.588,196.177 276.307 L 195.961 277.614 185.881 277.507 L 175.800 277.400 175.687 272.422 C 175.625 269.684,175.665 267.206,175.777 266.915 C 175.940 266.492,178.034 266.408,186.290 266.493 L 196.600 266.600 196.497 270.800 M224.311 272.100 L 224.423 277.600 214.257 277.600 L 204.092 277.600 203.860 275.500 C 203.313 270.557,203.131 267.236,203.384 266.826 C 203.573 266.521,206.788 266.419,213.928 266.493 L 224.200 266.600 224.311 272.100 M251.832 267.300 C 252.338 268.895,252.637 277.288,252.193 277.458 C 251.969 277.544,247.378 277.566,241.992 277.507 L 232.200 277.400 231.943 275.600 C 231.160 270.104,230.846 267.049,231.035 266.744 C 231.152 266.555,235.814 266.400,241.397 266.400 L 251.546 266.400 251.832 267.300 M307.888 269.800 C 308.425 271.560,309.196 273.956,309.602 275.124 C 310.539 277.819,311.346 277.635,299.193 277.507 L 289.000 277.400 287.934 273.200 C 287.347 270.890,286.852 268.412,286.834 267.693 L 286.800 266.386 296.856 266.493 L 306.912 266.600 307.888 269.800 M335.193 268.700 C 335.680 269.965,336.216 271.360,336.385 271.800 C 336.555 272.240,336.875 273.050,337.097 273.600 C 337.319 274.150,337.703 275.103,337.950 275.719 C 338.198 276.334,338.400 277.009,338.400 277.219 C 338.400 277.451,334.275 277.600,327.864 277.600 L 317.328 277.600 316.867 276.100 C 316.613 275.275,315.866 272.915,315.206 270.857 C 314.546 268.798,314.106 266.953,314.227 266.757 C 314.348 266.560,318.916 266.400,324.377 266.400 L 334.307 266.400 335.193 268.700 M280.038 270.000 C 280.401 271.430,281.357 275.390,282.163 278.800 C 282.969 282.210,283.984 286.408,284.419 288.130 C 285.468 292.280,286.209 292.000,274.190 292.000 C 262.048 292.000,263.115 292.385,262.366 287.732 C 261.543 282.625,261.275 281.003,260.821 278.400 C 259.733 272.154,259.589 271.322,259.351 269.919 C 258.867 267.067,258.455 267.174,269.480 267.293 L 279.379 267.400 280.038 270.000 M81.443 280.968 C 81.707 281.657,78.158 291.251,77.480 291.682 C 76.549 292.274,56.399 292.062,56.167 291.457 C 55.972 290.949,56.600 289.357,59.107 284.000 C 60.921 280.126,59.996 280.400,71.275 280.400 C 79.505 280.400,81.263 280.498,81.443 280.968 M109.700 282.600 C 109.644 283.700,109.439 285.050,109.242 285.600 C 109.046 286.150,108.652 287.680,108.366 289.000 C 107.679 292.176,108.428 291.987,96.500 291.994 C 86.108 292.000,86.000 291.991,86.000 291.163 C 86.000 290.013,88.355 282.410,89.057 281.293 L 89.627 280.386 99.714 280.493 L 109.800 280.600 109.700 282.600 M225.504 284.200 C 225.790 286.180,225.973 288.700,225.912 289.800 L 225.800 291.800 170.800 291.895 C 140.550 291.947,115.560 291.837,115.267 291.651 C 114.838 291.378,114.825 290.971,115.199 289.556 C 115.454 288.590,115.818 287.170,116.006 286.400 C 116.195 285.630,116.573 284.100,116.845 283.000 C 117.118 281.900,117.534 280.867,117.770 280.705 C 118.007 280.543,142.226 280.453,171.592 280.505 L 224.984 280.600 225.504 284.200 M253.291 281.100 C 253.629 281.485,254.015 282.790,254.149 284.000 C 254.283 285.210,254.549 287.280,254.741 288.600 C 255.259 292.169,255.794 292.000,244.000 292.000 C 236.235 292.000,233.601 291.877,233.304 291.500 C 232.671 290.698,232.315 280.902,232.910 280.662 C 234.474 280.028,252.694 280.420,253.291 281.100 M311.317 281.900 C 312.397 284.434,314.289 290.971,314.097 291.500 C 313.957 291.882,311.494 292.000,303.634 292.000 C 295.998 292.000,293.198 291.871,292.749 291.500 C 292.231 291.071,291.069 286.983,290.193 282.510 C 289.778 280.389,289.724 280.400,300.563 280.400 L 310.679 280.400 311.317 281.900 M339.269 281.100 C 339.596 281.485,340.344 282.835,340.931 284.100 C 341.519 285.365,342.470 287.388,343.045 288.595 C 344.731 292.138,345.124 292.001,333.313 291.994 C 327.641 291.991,322.804 291.856,322.564 291.694 C 321.920 291.260,318.320 281.585,318.565 280.947 C 318.923 280.013,338.471 280.158,339.269 281.100 " stroke="none" fill="#e8eaee" fill-rule="evenodd"></path><path id="path1" d="M69.399 25.602 C 69.264 25.821,68.758 26.006,68.276 26.013 C 67.794 26.020,67.058 26.284,66.641 26.600 C 66.224 26.916,65.729 27.080,65.541 26.964 C 65.353 26.848,65.200 26.943,65.200 27.176 C 65.200 27.409,64.931 27.600,64.603 27.600 C 63.726 27.600,58.400 33.117,58.400 34.025 C 58.400 34.451,58.220 34.800,58.000 34.800 C 57.780 34.800,57.600 35.149,57.600 35.576 C 57.600 36.003,57.420 36.464,57.200 36.600 C 56.980 36.736,56.800 37.467,56.800 38.224 C 56.800 38.981,56.620 39.600,56.400 39.600 C 56.134 39.600,56.000 72.267,56.000 136.800 L 56.000 234.000 200.000 234.000 L 344.000 234.000 344.000 136.800 C 344.000 72.267,343.866 39.600,343.600 39.600 C 343.380 39.600,343.200 38.981,343.200 38.224 C 343.200 37.467,343.020 36.736,342.800 36.600 C 342.580 36.464,342.400 36.003,342.400 35.576 C 342.400 35.149,342.220 34.800,342.000 34.800 C 341.780 34.800,341.600 34.451,341.600 34.025 C 341.600 33.117,336.274 27.600,335.397 27.600 C 335.069 27.600,334.800 27.409,334.800 27.176 C 334.800 26.943,334.647 26.848,334.459 26.964 C 334.271 27.080,333.776 26.916,333.359 26.600 C 332.942 26.284,332.206 26.020,331.724 26.013 C 331.242 26.006,330.736 25.821,330.601 25.602 C 330.260 25.051,69.740 25.051,69.399 25.602 M325.800 130.400 L 325.800 217.400 200.224 217.501 C 100.027 217.581,74.584 217.500,74.330 217.101 C 73.963 216.523,73.877 44.786,74.243 43.832 C 74.464 43.256,85.818 43.208,200.143 43.299 L 325.800 43.400 325.800 130.400 M75.721 244.100 C 75.493 244.595,75.127 245.450,74.907 246.000 C 74.687 246.550,74.319 247.450,74.090 248.000 C 73.002 250.606,72.285 250.400,82.425 250.400 C 90.835 250.400,91.644 250.340,91.849 249.700 C 91.972 249.315,92.236 248.595,92.436 248.100 C 93.507 245.451,93.723 244.942,94.047 244.305 C 94.241 243.923,94.400 243.518,94.400 243.405 C 94.400 242.570,76.112 243.250,75.721 244.100 M101.785 243.700 C 101.681 243.975,101.166 245.595,100.641 247.300 L 99.687 250.400 108.856 250.400 C 115.833 250.400,118.066 250.280,118.197 249.900 C 118.292 249.625,118.624 248.005,118.936 246.300 L 119.504 243.200 110.739 243.200 C 104.096 243.200,101.929 243.321,101.785 243.700 M127.218 244.900 C 126.938 245.835,126.563 246.960,126.385 247.400 C 126.206 247.840,125.982 248.695,125.886 249.300 L 125.711 250.400 134.848 250.400 L 143.985 250.400 144.171 249.500 C 144.273 249.005,144.465 247.970,144.597 247.200 C 144.730 246.430,144.939 245.215,145.063 244.500 L 145.288 243.200 136.508 243.200 L 127.728 243.200 127.218 244.900 M152.386 244.300 C 152.378 244.905,152.131 246.525,151.836 247.900 L 151.299 250.400 160.442 250.400 L 169.585 250.400 169.767 249.500 C 169.867 249.005,170.044 247.385,170.159 245.900 L 170.370 243.200 161.385 243.200 L 152.400 243.200 152.386 244.300 M178.400 245.550 C 178.400 246.843,178.288 248.463,178.150 249.150 L 177.900 250.400 187.150 250.400 L 196.400 250.400 196.400 246.800 L 196.400 243.200 187.400 243.200 L 178.400 243.200 178.400 245.550 M203.600 246.800 L 203.600 250.400 212.852 250.400 L 222.105 250.400 221.857 248.900 C 221.720 248.075,221.607 246.455,221.604 245.300 L 221.600 243.200 212.600 243.200 L 203.600 243.200 203.600 246.800 M229.899 245.900 C 229.975 247.385,230.122 249.005,230.226 249.500 L 230.415 250.400 252.631 250.400 C 270.260 250.400,274.784 250.297,274.539 249.902 C 274.370 249.628,274.096 248.593,273.931 247.602 C 273.766 246.611,273.513 245.215,273.370 244.500 L 273.109 243.200 251.436 243.200 L 229.762 243.200 229.899 245.900 M280.800 244.023 C 280.800 244.475,280.970 245.600,281.177 246.523 C 281.384 247.445,281.658 248.695,281.785 249.300 L 282.015 250.400 291.195 250.400 C 298.350 250.400,300.343 250.290,300.230 249.900 C 300.150 249.625,299.660 248.006,299.142 246.302 L 298.200 243.204 289.500 243.202 C 280.985 243.200,280.800 243.218,280.800 244.023 M306.065 244.300 C 306.311 244.905,306.782 246.019,307.111 246.776 C 307.441 247.533,307.833 248.613,307.984 249.176 L 308.257 250.200 317.736 250.307 C 326.691 250.409,327.196 250.375,326.852 249.707 C 326.412 248.854,325.070 245.819,324.459 244.300 L 324.017 243.200 314.817 243.200 L 305.617 243.200 306.065 244.300 M70.307 257.979 C 69.492 259.728,68.710 261.620,68.569 262.183 L 68.312 263.207 91.439 263.103 L 114.567 263.000 115.033 261.600 C 115.804 259.284,116.320 257.473,116.599 256.100 L 116.864 254.800 94.326 254.800 L 71.789 254.800 70.307 257.979 M124.100 255.883 C 123.825 256.475,123.600 257.363,123.600 257.856 C 123.600 258.349,123.440 258.852,123.244 258.973 C 123.049 259.094,122.807 259.779,122.708 260.496 C 122.609 261.213,122.454 262.070,122.364 262.400 C 122.222 262.919,123.478 263.014,131.654 263.107 C 142.367 263.229,141.369 263.565,142.057 259.600 C 142.267 258.390,142.540 256.815,142.663 256.100 L 142.888 254.800 133.744 254.803 L 124.600 254.806 124.100 255.883 M151.047 255.500 C 150.855 256.148,149.600 262.694,149.600 263.044 C 149.600 263.130,153.834 263.200,159.010 263.200 C 169.953 263.200,168.965 263.691,169.281 258.100 L 169.468 254.800 160.361 254.800 C 152.033 254.800,151.236 254.860,151.047 255.500 M177.597 256.893 C 177.595 258.052,177.479 259.948,177.340 261.107 L 177.087 263.215 186.643 263.107 L 196.200 263.000 196.200 259.000 L 196.200 255.000 186.900 254.893 L 177.600 254.785 177.597 256.893 M203.771 255.332 C 203.659 255.624,203.619 257.469,203.683 259.432 L 203.800 263.000 213.358 263.107 L 222.916 263.215 222.658 260.749 C 222.516 259.392,222.400 257.499,222.400 256.541 L 222.400 254.800 213.187 254.800 C 205.894 254.800,203.932 254.911,203.771 255.332 M230.867 258.500 C 231.091 263.621,230.180 263.200,241.042 263.200 L 250.436 263.200 250.206 261.700 C 249.939 259.962,249.179 256.031,248.969 255.300 C 248.859 254.919,246.670 254.800,239.765 254.800 L 230.705 254.800 230.867 258.500 M257.370 256.100 C 257.514 256.815,257.785 258.390,257.974 259.600 C 258.587 263.531,257.624 263.200,268.443 263.200 C 277.932 263.200,279.482 262.963,277.600 261.800 C 277.380 261.664,277.200 261.171,277.200 260.705 C 277.200 259.906,276.800 258.433,275.896 255.900 L 275.503 254.800 266.306 254.800 L 257.109 254.800 257.370 256.100 M283.391 255.960 C 283.531 256.598,284.048 258.443,284.540 260.060 L 285.434 263.000 294.917 263.107 C 302.369 263.192,304.398 263.106,304.392 262.707 C 304.381 262.070,302.532 255.737,302.199 255.198 C 302.047 254.952,298.361 254.800,292.545 254.800 L 283.136 254.800 283.391 255.960 M309.868 255.300 C 310.069 255.575,310.463 256.520,310.743 257.400 C 311.023 258.280,311.403 259.360,311.586 259.800 C 311.769 260.240,312.139 261.185,312.408 261.900 L 312.897 263.200 322.182 263.200 C 331.791 263.200,332.181 263.153,331.611 262.057 C 330.985 260.853,329.253 257.014,328.834 255.900 L 328.420 254.800 318.961 254.800 C 311.466 254.800,309.578 254.904,309.868 255.300 M65.207 269.500 C 64.720 270.765,64.184 272.160,64.015 272.600 C 63.474 274.006,62.718 275.779,62.350 276.500 C 62.015 277.158,62.609 277.200,72.181 277.200 L 82.369 277.200 82.806 275.500 C 83.047 274.565,83.684 272.449,84.222 270.799 C 84.760 269.148,85.200 267.663,85.200 267.499 C 85.200 267.334,80.901 267.200,75.646 267.200 L 66.093 267.200 65.207 269.500 M93.467 267.467 C 93.320 267.613,93.200 268.143,93.200 268.643 C 93.200 269.143,93.020 269.664,92.800 269.800 C 92.580 269.936,92.400 270.399,92.400 270.829 C 92.400 271.259,92.242 271.923,92.049 272.305 C 91.513 273.367,90.800 275.776,90.800 276.528 C 90.800 277.139,91.704 277.200,100.800 277.200 L 110.800 277.200 110.800 276.328 C 110.800 275.849,110.968 274.904,111.173 274.228 C 111.758 272.301,112.338 269.919,112.569 268.500 L 112.780 267.200 103.257 267.200 C 98.019 267.200,93.613 267.320,93.467 267.467 M120.864 268.500 C 120.645 269.215,120.249 270.790,119.983 272.000 C 119.718 273.210,119.343 274.722,119.150 275.360 C 118.958 275.998,118.800 276.673,118.800 276.860 C 118.800 277.047,123.271 277.200,128.736 277.200 L 138.672 277.200 139.122 275.100 C 139.369 273.945,139.669 272.280,139.787 271.400 C 139.906 270.520,140.113 269.215,140.247 268.500 L 140.491 267.200 130.876 267.200 L 121.262 267.200 120.864 268.500 M148.671 268.700 C 148.544 269.525,148.317 271.775,148.165 273.700 L 147.890 277.200 157.527 277.200 L 167.164 277.200 167.380 275.900 C 168.502 269.167,168.695 267.760,168.536 267.500 C 168.435 267.335,163.976 267.200,158.628 267.200 L 148.902 267.200 148.671 268.700 M176.000 272.200 L 176.000 277.200 185.750 277.200 L 195.500 277.200 195.750 275.950 C 195.888 275.263,196.000 273.013,196.000 270.950 L 196.000 267.200 186.000 267.200 L 176.000 267.200 176.000 272.200 M204.000 270.344 C 204.000 272.073,204.114 274.323,204.254 275.344 L 204.509 277.200 214.254 277.200 L 224.000 277.200 224.000 272.200 L 224.000 267.200 214.000 267.200 L 204.000 267.200 204.000 270.344 M231.608 268.500 C 231.612 269.215,231.876 271.240,232.194 273.000 C 232.512 274.760,232.778 276.425,232.786 276.700 C 232.797 277.086,235.002 277.200,242.439 277.200 L 252.079 277.200 251.792 272.500 C 251.634 269.915,251.426 267.665,251.329 267.500 C 251.232 267.335,246.753 267.200,241.376 267.200 L 231.600 267.200 231.608 268.500 M287.529 267.404 C 287.325 267.608,287.439 268.280,288.444 272.800 C 288.664 273.790,288.944 275.185,289.066 275.900 L 289.288 277.200 299.244 277.200 L 309.200 277.200 309.200 276.195 C 309.200 275.642,309.037 274.877,308.838 274.495 C 308.639 274.113,308.029 272.360,307.482 270.600 L 306.488 267.400 297.118 267.293 C 291.964 267.234,287.649 267.284,287.529 267.404 M315.065 267.494 C 314.961 267.664,315.284 269.062,315.785 270.601 C 316.286 272.141,316.922 274.255,317.200 275.300 L 317.704 277.200 327.805 277.200 L 337.907 277.200 335.993 272.300 L 334.079 267.400 324.668 267.293 C 319.491 267.234,315.170 267.324,315.065 267.494 M259.782 269.093 C 259.935 269.702,260.221 271.190,260.417 272.400 C 261.025 276.157,262.765 286.192,263.450 289.900 L 263.691 291.200 274.045 291.200 C 280.075 291.200,284.400 291.046,284.400 290.832 C 284.400 290.630,284.141 289.415,283.824 288.132 C 283.508 286.850,282.782 283.820,282.211 281.400 C 281.641 278.980,280.985 276.280,280.754 275.400 C 280.523 274.520,280.182 273.170,279.995 272.400 C 279.809 271.630,279.502 270.370,279.314 269.600 L 278.970 268.200 269.237 268.093 L 259.504 267.986 259.782 269.093 M60.932 281.700 C 60.731 281.975,60.368 282.650,60.125 283.200 C 59.291 285.090,57.479 289.001,56.926 290.107 L 56.373 291.213 66.843 291.107 C 78.136 290.992,77.360 291.148,78.313 288.800 C 78.537 288.250,78.936 287.170,79.200 286.400 C 79.766 284.753,80.363 283.259,80.823 282.343 C 81.005 281.982,81.044 281.577,80.910 281.443 C 80.398 280.931,61.315 281.176,60.932 281.700 M89.005 282.649 C 88.672 283.446,88.400 284.406,88.400 284.782 C 88.400 285.159,88.274 285.592,88.121 285.746 C 87.968 285.899,87.539 287.189,87.169 288.612 L 86.496 291.200 97.006 291.200 L 107.516 291.200 107.758 289.600 C 107.891 288.720,108.109 287.279,108.242 286.397 C 108.375 285.516,108.645 284.695,108.842 284.574 C 109.039 284.452,109.200 283.643,109.200 282.776 L 109.200 281.200 99.405 281.200 L 89.611 281.200 89.005 282.649 M117.590 282.226 C 117.376 282.790,117.200 283.473,117.200 283.742 C 117.200 284.011,116.953 285.215,116.651 286.416 C 116.349 287.617,115.993 289.185,115.861 289.900 L 115.620 291.200 170.655 291.200 L 225.691 291.200 225.442 289.900 C 225.305 289.185,225.080 286.935,224.942 284.900 L 224.691 281.200 171.336 281.200 L 117.980 281.200 117.590 282.226 M233.203 283.500 C 233.204 284.765,233.320 287.015,233.461 288.500 L 233.716 291.200 244.114 291.200 L 254.511 291.200 254.263 289.300 C 253.715 285.105,253.179 281.889,252.971 281.554 C 252.851 281.359,248.353 281.200,242.976 281.200 L 233.200 281.200 233.203 283.500 M290.931 282.693 C 291.051 283.522,291.333 285.010,291.558 286.000 C 291.783 286.990,292.113 288.520,292.291 289.400 L 292.613 291.000 303.136 291.107 L 313.658 291.213 313.394 290.307 C 312.782 288.202,312.271 286.549,312.001 285.800 C 311.843 285.360,311.446 284.190,311.120 283.200 L 310.526 281.400 300.620 281.293 L 290.715 281.186 290.931 282.693 M319.226 281.693 C 319.240 281.972,320.005 284.180,320.926 286.600 L 322.600 291.000 333.136 291.107 C 338.930 291.165,343.610 291.075,343.536 290.907 C 343.184 290.110,340.284 284.042,339.662 282.800 L 338.961 281.400 329.081 281.293 C 321.303 281.209,319.205 281.294,319.226 281.693 " stroke="none" fill="#445c6c" fill-rule="evenodd"></path><path id="path2" d="M74.400 130.400 L 74.400 217.200 200.000 217.200 L 325.600 217.200 325.600 130.400 L 325.600 43.600 200.000 43.600 L 74.400 43.600 74.400 130.400 " stroke="none" fill="#54c4ec" fill-rule="evenodd"></path><path id="path3" d="M199.900 43.500 L 325.600 43.601 325.600 130.400 L 325.600 217.199 200.100 217.300 L 74.600 217.402 200.200 217.401 L 325.800 217.400 325.800 130.400 L 325.800 43.400 200.000 43.399 L 74.200 43.398 199.900 43.500 M74.196 130.400 C 74.196 178.030,74.243 197.515,74.300 173.700 C 74.357 149.885,74.357 110.915,74.300 87.100 C 74.243 63.285,74.196 82.770,74.196 130.400 M128.500 234.300 C 167.825 234.356,232.175 234.356,271.500 234.300 C 310.825 234.244,278.650 234.198,200.000 234.198 C 121.350 234.198,89.175 234.244,128.500 234.300 M75.669 243.239 C 75.380 243.700,75.243 244.176,75.363 244.296 C 75.483 244.416,75.695 244.219,75.833 243.857 C 76.057 243.274,77.118 243.200,85.243 243.200 C 91.081 243.200,94.400 243.055,94.400 242.800 C 94.400 241.878,76.253 242.304,75.669 243.239 M101.867 242.667 C 101.205 243.328,102.126 243.393,110.614 243.285 C 116.264 243.213,119.540 243.027,119.391 242.785 C 119.123 242.352,102.295 242.238,101.867 242.667 M127.917 242.900 C 127.567 243.175,127.179 243.850,127.055 244.400 C 126.849 245.314,126.870 245.306,127.292 244.300 L 127.754 243.200 136.477 243.200 C 142.856 243.200,145.200 243.325,145.200 243.667 C 145.200 243.923,145.294 244.039,145.409 243.924 C 146.894 242.440,129.777 241.438,127.917 242.900 M152.800 242.800 C 152.403 243.057,155.277 243.190,161.300 243.194 C 167.963 243.198,170.400 243.325,170.400 243.667 C 170.400 243.923,170.516 244.018,170.657 243.876 C 171.990 242.543,154.801 241.507,152.800 242.800 M178.800 242.800 C 178.403 243.057,181.277 243.190,187.300 243.194 L 196.400 243.200 196.400 246.800 L 196.400 250.400 187.223 250.400 L 178.047 250.400 178.279 247.500 C 178.406 245.905,178.421 244.690,178.311 244.800 C 178.201 244.910,177.995 246.308,177.852 247.907 L 177.593 250.814 187.097 250.707 L 196.600 250.600 196.716 247.060 C 196.791 244.795,196.665 243.319,196.367 242.960 C 195.810 242.289,179.817 242.142,178.800 242.800 M203.633 242.960 C 203.335 243.319,203.209 244.795,203.284 247.060 L 203.400 250.600 212.910 250.707 L 222.420 250.815 222.155 247.507 C 222.009 245.688,221.800 244.110,221.689 244.000 C 221.579 243.890,221.598 245.285,221.732 247.100 L 221.975 250.400 212.787 250.400 L 203.600 250.400 203.600 246.800 L 203.600 243.200 212.700 243.194 C 218.723 243.190,221.597 243.057,221.200 242.800 C 220.183 242.142,204.190 242.289,203.633 242.960 M229.683 242.900 C 229.351 243.299,233.697 243.378,251.234 243.293 L 273.200 243.187 273.206 244.093 C 273.209 244.592,273.389 245.270,273.606 245.600 C 273.882 246.022,273.923 245.785,273.743 244.800 C 273.279 242.257,274.614 242.400,251.400 242.400 C 234.846 242.400,230.005 242.511,229.683 242.900 M280.556 242.971 C 280.435 243.285,280.416 243.960,280.514 244.471 C 280.673 245.303,280.697 245.286,280.746 244.300 L 280.800 243.200 289.624 243.200 C 295.404 243.200,298.362 243.062,298.200 242.800 C 297.773 242.109,280.823 242.274,280.556 242.971 M305.800 242.800 C 305.638 243.062,308.723 243.200,314.757 243.200 C 323.100 243.200,323.998 243.265,324.368 243.900 C 324.592 244.285,324.775 244.420,324.775 244.200 C 324.773 242.531,324.052 242.400,314.880 242.400 C 309.423 242.400,305.953 242.553,305.800 242.800 M229.724 246.200 C 229.726 247.520,229.801 248.012,229.890 247.293 C 229.979 246.574,229.977 245.494,229.886 244.893 C 229.795 244.292,229.722 244.880,229.724 246.200 M170.120 246.800 C 170.120 248.010,170.195 248.505,170.287 247.900 C 170.378 247.295,170.378 246.305,170.287 245.700 C 170.195 245.095,170.120 245.590,170.120 246.800 M144.673 246.153 C 144.523 246.545,144.411 247.166,144.425 247.533 C 144.442 247.975,144.581 247.874,144.837 247.234 C 145.049 246.703,145.161 246.082,145.085 245.854 C 145.009 245.627,144.824 245.761,144.673 246.153 M100.229 247.429 C 100.081 248.015,100.038 248.572,100.132 248.666 C 100.227 248.760,100.424 248.358,100.571 247.771 C 100.719 247.185,100.762 246.628,100.668 246.534 C 100.573 246.440,100.376 246.842,100.229 247.429 M274.006 248.033 C 274.009 248.565,274.189 249.270,274.406 249.600 C 274.682 250.022,274.723 249.785,274.542 248.800 C 274.225 247.075,273.998 246.749,274.006 248.033 M281.246 248.126 C 281.135 250.823,281.050 250.800,291.190 250.800 C 300.302 250.800,301.122 250.691,300.336 249.581 C 300.001 249.107,299.966 249.129,300.150 249.700 C 300.360 250.353,299.757 250.400,291.195 250.400 L 282.015 250.400 281.823 249.500 C 281.718 249.005,281.555 248.240,281.462 247.800 C 281.344 247.241,281.279 247.339,281.246 248.126 M125.443 249.433 C 125.309 249.781,125.200 250.234,125.200 250.440 C 125.200 251.061,144.111 250.713,144.237 250.090 C 144.294 249.810,144.249 249.764,144.137 249.990 C 143.687 250.897,125.646 250.511,125.884 249.600 C 126.132 248.652,125.792 248.523,125.443 249.433 M151.078 249.624 C 150.959 250.080,151.076 250.531,151.340 250.632 C 152.547 251.096,169.736 250.592,169.837 250.090 C 169.894 249.810,169.849 249.764,169.737 249.990 C 169.287 250.897,151.246 250.511,151.484 249.600 C 151.599 249.160,151.603 248.800,151.493 248.800 C 151.383 248.800,151.196 249.171,151.078 249.624 M73.067 249.467 C 72.920 249.613,72.800 249.973,72.800 250.267 C 72.800 250.858,91.375 251.087,91.739 250.500 C 91.841 250.335,87.715 250.251,82.569 250.314 C 74.293 250.415,73.241 250.357,73.450 249.814 C 73.697 249.172,73.521 249.012,73.067 249.467 M230.103 250.000 C 230.246 250.524,233.094 250.601,252.633 250.605 L 275.000 250.610 252.821 250.502 C 235.717 250.418,230.562 250.280,230.291 249.897 C 230.033 249.532,229.983 249.559,230.103 250.000 M108.800 250.400 L 99.400 250.622 108.676 250.711 C 114.527 250.767,118.044 250.652,118.200 250.400 C 118.336 250.180,118.392 250.040,118.324 250.089 C 118.256 250.138,113.970 250.278,108.800 250.400 M308.347 250.508 C 308.516 250.677,312.873 250.766,318.028 250.707 L 327.400 250.599 317.719 250.399 C 312.395 250.290,308.177 250.338,308.347 250.508 M71.777 254.567 C 71.350 254.879,71.136 255.269,71.301 255.434 C 71.465 255.599,71.600 255.523,71.600 255.267 C 71.600 254.917,77.255 254.800,94.232 254.800 L 116.864 254.800 116.636 256.100 C 116.410 257.394,116.411 257.395,116.842 256.287 C 117.776 253.886,118.884 254.000,94.689 254.000 C 76.211 254.000,72.425 254.094,71.777 254.567 M124.155 255.012 C 123.790 255.569,123.613 256.146,123.762 256.295 C 123.910 256.444,124.136 256.168,124.263 255.683 C 124.533 254.649,142.800 254.239,142.800 255.267 C 142.800 255.523,142.894 255.639,143.009 255.524 C 144.271 254.263,142.677 254.000,133.766 254.000 L 124.818 254.000 124.155 255.012 M151.300 254.265 C 151.025 254.376,150.814 254.767,150.832 255.133 C 150.851 255.549,150.939 255.612,151.065 255.300 C 151.218 254.920,153.479 254.800,160.457 254.800 C 166.482 254.800,169.562 254.662,169.400 254.400 C 169.149 253.993,152.285 253.868,151.300 254.265 M178.000 254.396 C 177.605 254.648,180.615 254.817,186.800 254.889 L 196.200 255.000 196.200 259.063 C 196.200 261.297,196.335 263.041,196.500 262.939 C 197.251 262.473,196.827 254.842,196.026 254.414 C 195.039 253.886,178.824 253.869,178.000 254.396 M203.829 254.629 C 203.162 255.295,202.876 262.551,203.500 262.939 C 203.665 263.041,203.800 261.297,203.800 259.063 L 203.800 255.000 213.200 254.800 C 224.631 254.557,224.350 254.000,212.796 254.000 C 205.749 254.000,204.360 254.097,203.829 254.629 M230.567 254.542 C 230.452 254.840,230.423 256.235,230.502 257.642 L 230.646 260.200 230.723 257.486 L 230.800 254.771 240.000 254.886 C 248.540 254.992,250.195 254.868,248.567 254.243 C 247.162 253.703,230.784 253.976,230.567 254.542 M257.400 254.400 C 257.238 254.662,260.320 254.800,266.349 254.800 C 275.306 254.800,275.553 254.822,275.810 255.630 C 275.954 256.087,276.153 256.380,276.251 256.282 C 276.350 256.184,276.214 255.630,275.951 255.052 L 275.472 254.000 266.559 254.000 C 261.049 254.000,257.553 254.153,257.400 254.400 M282.936 254.622 C 282.805 254.964,282.896 255.639,283.138 256.122 C 283.544 256.931,283.560 256.913,283.344 255.893 L 283.110 254.785 292.655 254.893 L 302.200 255.000 302.677 256.400 C 302.940 257.170,303.165 257.476,303.177 257.080 C 303.190 256.684,302.925 255.829,302.590 255.180 L 301.979 254.000 292.577 254.000 C 284.440 254.000,283.143 254.084,282.936 254.622 M309.600 254.386 C 309.600 254.620,313.378 254.817,319.208 254.886 C 326.972 254.978,328.685 254.904,328.132 254.500 C 327.283 253.880,309.600 253.772,309.600 254.386 M222.528 257.600 C 222.528 259.030,222.601 259.615,222.689 258.900 C 222.778 258.185,222.778 257.015,222.689 256.300 C 222.601 255.585,222.528 256.170,222.528 257.600 M169.328 258.400 C 169.328 259.830,169.401 260.415,169.489 259.700 C 169.578 258.985,169.578 257.815,169.489 257.100 C 169.401 256.385,169.328 256.970,169.328 258.400 M177.324 258.200 C 177.326 259.520,177.401 260.012,177.490 259.293 C 177.579 258.574,177.577 257.494,177.486 256.893 C 177.395 256.292,177.322 256.880,177.324 258.200 M249.268 256.600 C 249.262 257.040,249.411 257.760,249.600 258.200 C 250.038 259.219,250.038 258.168,249.600 256.800 C 249.343 255.996,249.277 255.957,249.268 256.600 M150.256 257.284 C 150.121 257.788,150.027 258.560,150.046 259.000 C 150.065 259.440,150.245 259.098,150.446 258.240 C 150.836 256.578,150.670 255.740,150.256 257.284 M257.246 257.200 C 257.265 257.530,257.424 258.250,257.600 258.800 L 257.920 259.800 257.954 258.800 C 257.973 258.250,257.813 257.530,257.600 257.200 C 257.255 256.667,257.216 256.667,257.246 257.200 M142.249 257.815 C 142.112 258.173,142.018 258.856,142.041 259.333 C 142.067 259.881,142.203 259.686,142.410 258.803 C 142.760 257.316,142.665 256.733,142.249 257.815 M283.656 258.000 C 283.656 258.330,283.811 258.960,284.000 259.400 C 284.217 259.904,284.344 259.978,284.344 259.600 C 284.344 259.270,284.189 258.640,284.000 258.200 C 283.783 257.696,283.656 257.622,283.656 258.000 M115.800 258.800 C 115.650 259.273,115.617 259.750,115.727 259.860 C 115.837 259.970,116.050 259.673,116.200 259.200 C 116.350 258.727,116.383 258.250,116.273 258.140 C 116.163 258.030,115.950 258.327,115.800 258.800 M303.444 259.000 C 303.773 260.471,304.002 260.790,303.994 259.767 C 303.991 259.345,303.805 258.730,303.582 258.400 C 303.285 257.962,303.248 258.124,303.444 259.000 M222.901 261.800 C 222.905 262.680,222.987 262.993,223.083 262.495 C 223.179 261.998,223.175 261.278,223.075 260.895 C 222.975 260.513,222.896 260.920,222.901 261.800 M284.572 261.400 C 284.729 262.060,285.029 262.776,285.239 262.991 C 285.450 263.206,285.410 262.756,285.151 261.991 C 284.546 260.200,284.205 259.852,284.572 261.400 M114.900 262.100 C 114.470 263.275,114.480 263.326,115.012 262.624 C 115.521 261.952,115.821 260.800,115.488 260.800 C 115.426 260.800,115.161 261.385,114.900 262.100 M176.893 262.000 C 176.893 262.770,176.975 263.085,177.076 262.700 C 177.176 262.315,177.176 261.685,177.076 261.300 C 176.975 260.915,176.893 261.230,176.893 262.000 M250.056 261.200 C 250.056 261.530,250.211 262.160,250.400 262.600 C 250.617 263.104,250.744 263.178,250.744 262.800 C 250.744 262.470,250.589 261.840,250.400 261.400 C 250.183 260.896,250.056 260.822,250.056 261.200 M65.788 267.220 C 65.640 267.458,65.628 267.761,65.760 267.893 C 65.892 268.025,66.000 267.923,66.000 267.667 C 66.000 267.051,85.032 266.995,85.337 267.610 C 85.449 267.836,85.494 267.791,85.437 267.510 C 85.300 266.832,66.202 266.550,65.788 267.220 M93.461 267.100 C 93.359 267.265,97.674 267.349,103.049 267.286 L 112.822 267.173 112.605 268.286 C 112.426 269.201,112.455 269.257,112.766 268.600 C 113.626 266.780,113.729 266.800,103.424 266.800 C 98.047 266.800,93.564 266.935,93.461 267.100 M120.814 267.574 C 120.586 267.999,120.414 268.584,120.432 268.874 C 120.449 269.163,120.643 268.908,120.863 268.307 L 121.262 267.214 130.931 267.100 L 140.600 266.985 130.914 266.893 C 121.696 266.804,121.208 266.837,120.814 267.574 M148.554 267.377 C 148.432 267.694,148.417 268.279,148.520 268.677 C 148.641 269.144,148.724 269.007,148.754 268.287 L 148.800 267.173 158.800 267.287 C 164.300 267.349,168.800 267.265,168.800 267.100 C 168.800 266.476,148.795 266.749,148.554 267.377 M185.878 267.100 L 195.957 267.214 196.106 269.107 L 196.256 271.000 196.328 268.900 L 196.400 266.800 186.100 266.893 L 175.800 266.986 185.878 267.100 M203.667 268.500 L 203.734 270.200 203.891 268.707 L 204.047 267.214 214.124 267.100 L 224.200 266.986 213.900 266.893 L 203.600 266.800 203.667 268.500 M231.270 268.700 L 231.340 270.600 231.494 268.887 L 231.647 267.173 241.624 267.287 C 247.111 267.349,251.600 267.265,251.600 267.100 C 251.600 266.935,247.010 266.800,241.400 266.800 L 231.200 266.800 231.270 268.700 M287.002 267.197 C 286.867 267.415,286.951 267.910,287.188 268.297 C 287.584 268.942,287.611 268.934,287.510 268.200 C 287.403 267.419,287.630 267.400,297.062 267.400 C 302.376 267.400,306.641 267.265,306.538 267.100 C 306.252 266.637,287.290 266.731,287.002 267.197 M314.662 267.100 C 314.560 267.265,318.942 267.400,324.400 267.400 C 329.858 267.400,334.240 267.265,334.138 267.100 C 334.036 266.935,329.654 266.800,324.400 266.800 C 319.146 266.800,314.764 266.935,314.662 267.100 M269.160 267.989 C 278.448 268.190,278.935 268.239,279.232 269.000 C 279.447 269.553,279.552 269.608,279.572 269.180 C 279.639 267.702,278.903 267.598,269.020 267.689 L 259.400 267.779 269.160 267.989 M168.255 270.255 C 168.113 271.286,168.074 272.208,168.169 272.302 C 168.263 272.396,168.465 271.639,168.618 270.618 C 168.771 269.598,168.810 268.676,168.704 268.571 C 168.598 268.465,168.396 269.223,168.255 270.255 M139.856 270.084 C 139.721 270.588,139.628 271.450,139.649 272.000 C 139.672 272.589,139.831 272.271,140.036 271.225 C 140.403 269.352,140.273 268.527,139.856 270.084 M251.709 271.200 C 251.709 272.190,251.787 272.595,251.882 272.100 C 251.978 271.605,251.978 270.795,251.882 270.300 C 251.787 269.805,251.709 270.210,251.709 271.200 M259.838 271.000 C 260.170 272.984,260.402 273.304,260.394 271.767 C 260.391 271.125,260.204 270.330,259.979 270.000 C 259.686 269.570,259.646 269.854,259.838 271.000 M315.426 270.559 C 315.849 272.247,316.764 274.618,316.782 274.075 C 316.804 273.436,315.573 269.600,315.346 269.600 C 315.257 269.600,315.293 270.032,315.426 270.559 M148.101 271.800 C 148.105 272.680,148.187 272.993,148.283 272.495 C 148.379 271.998,148.375 271.278,148.275 270.895 C 148.175 270.513,148.096 270.920,148.101 271.800 M287.634 270.800 C 287.646 271.130,287.811 271.760,288.000 272.200 L 288.344 273.000 288.366 272.200 C 288.378 271.760,288.213 271.130,288.000 270.800 C 287.655 270.267,287.615 270.267,287.634 270.800 M279.612 271.200 C 279.612 271.530,279.787 272.070,280.000 272.400 C 280.345 272.933,280.388 272.933,280.388 272.400 C 280.388 272.070,280.213 271.530,280.000 271.200 C 279.655 270.667,279.612 270.667,279.612 271.200 M232.093 274.000 C 232.093 274.770,232.175 275.085,232.276 274.700 C 232.376 274.315,232.376 273.685,232.276 273.300 C 232.175 272.915,232.093 273.230,232.093 274.000 M167.693 274.400 C 167.693 275.170,167.775 275.485,167.876 275.100 C 167.976 274.715,167.976 274.085,167.876 273.700 C 167.775 273.315,167.693 273.630,167.693 274.400 M119.029 274.629 C 118.881 275.215,118.838 275.772,118.932 275.866 C 119.027 275.960,119.224 275.558,119.371 274.971 C 119.519 274.385,119.562 273.828,119.468 273.734 C 119.373 273.640,119.176 274.042,119.029 274.629 M111.049 274.615 C 110.912 274.973,110.815 275.566,110.834 275.933 C 110.853 276.300,111.027 276.069,111.221 275.420 C 111.598 274.158,111.465 273.533,111.049 274.615 M252.109 275.600 C 252.109 276.590,252.187 276.995,252.282 276.500 C 252.378 276.005,252.378 275.195,252.282 274.700 C 252.187 274.205,252.109 274.610,252.109 275.600 M280.412 274.400 C 280.412 274.730,280.587 275.270,280.800 275.600 C 281.145 276.133,281.188 276.133,281.188 275.600 C 281.188 275.270,281.013 274.730,280.800 274.400 C 280.455 273.867,280.412 273.867,280.412 274.400 M139.000 275.600 C 138.848 276.291,138.807 276.941,138.909 277.042 C 139.011 277.144,139.209 276.653,139.350 275.950 C 139.683 274.283,139.360 273.960,139.000 275.600 M260.668 275.800 C 260.971 277.777,261.202 278.114,261.194 276.567 C 261.191 275.925,261.016 275.130,260.805 274.800 C 260.545 274.391,260.501 274.710,260.668 275.800 M147.693 276.000 C 147.693 276.770,147.775 277.085,147.876 276.700 C 147.976 276.315,147.976 275.685,147.876 275.300 C 147.775 274.915,147.693 275.230,147.693 276.000 M204.093 276.000 C 204.093 276.770,204.175 277.085,204.276 276.700 C 204.376 276.315,204.376 275.685,204.276 275.300 C 204.175 274.915,204.093 275.230,204.093 276.000 M281.256 277.600 C 281.256 277.930,281.411 278.560,281.600 279.000 C 281.817 279.504,281.944 279.578,281.944 279.200 C 281.944 278.870,281.789 278.240,281.600 277.800 C 281.383 277.296,281.256 277.222,281.256 277.600 M261.473 280.400 C 261.604 281.390,261.776 282.275,261.856 282.367 C 262.157 282.714,261.928 280.164,261.590 279.400 C 261.353 278.866,261.314 279.198,261.473 280.400 M60.749 281.500 C 60.259 282.125,60.271 282.145,60.858 281.686 C 61.362 281.292,63.802 281.199,71.320 281.286 C 76.712 281.349,81.041 281.265,80.939 281.100 C 80.494 280.381,61.328 280.761,60.749 281.500 M89.466 281.093 C 89.361 281.262,93.746 281.349,99.210 281.287 L 109.144 281.173 109.321 282.192 C 109.487 283.149,109.495 283.144,109.449 282.105 L 109.400 281.000 99.528 280.893 C 94.098 280.834,89.570 280.924,89.466 281.093 M144.900 281.100 C 159.585 281.158,183.615 281.158,198.300 281.100 C 212.985 281.042,200.970 280.994,171.600 280.994 C 142.230 280.994,130.215 281.042,144.900 281.100 M232.967 281.342 C 232.852 281.640,232.823 283.035,232.902 284.442 L 233.046 287.000 233.123 284.087 L 233.200 281.173 243.162 281.287 C 248.641 281.349,253.041 281.265,252.939 281.100 C 252.572 280.509,233.196 280.744,232.967 281.342 M290.550 281.387 C 290.426 281.710,290.417 282.205,290.531 282.487 C 290.644 282.769,290.751 282.595,290.768 282.100 L 290.800 281.200 300.599 281.200 L 310.398 281.200 310.995 282.500 C 311.418 283.422,311.521 283.509,311.347 282.800 C 310.854 280.787,310.924 280.800,300.538 280.800 C 292.326 280.800,290.739 280.893,290.550 281.387 M318.954 281.376 C 318.832 281.692,318.931 282.277,319.172 282.676 C 319.538 283.280,319.570 283.218,319.362 282.300 L 319.113 281.200 328.877 281.200 C 336.122 281.200,338.785 281.329,339.201 281.700 C 339.678 282.125,339.682 282.096,339.232 281.500 C 338.500 280.533,319.322 280.416,318.954 281.376 M224.847 284.633 C 224.873 285.935,225.036 287.540,225.209 288.200 C 225.390 288.890,225.431 287.956,225.306 286.000 C 225.054 282.031,224.779 281.213,224.847 284.633 M253.701 285.000 C 253.705 285.880,253.787 286.193,253.883 285.695 C 253.979 285.198,253.975 284.478,253.875 284.095 C 253.775 283.713,253.696 284.120,253.701 285.000 M340.400 284.084 C 340.400 284.516,341.615 287.200,341.811 287.200 C 341.921 287.200,341.733 286.534,341.393 285.721 C 340.793 284.286,340.400 283.638,340.400 284.084 M108.667 284.667 C 108.520 284.813,108.411 285.308,108.425 285.767 C 108.449 286.533,108.482 286.523,108.834 285.642 C 109.226 284.663,109.144 284.189,108.667 284.667 M262.493 286.000 C 262.493 286.770,262.575 287.085,262.676 286.700 C 262.776 286.315,262.776 285.685,262.676 285.300 C 262.575 284.915,262.493 285.230,262.493 286.000 M283.656 287.600 C 283.656 287.930,283.811 288.560,284.000 289.000 C 284.217 289.504,284.344 289.578,284.344 289.200 C 284.344 288.870,284.189 288.240,284.000 287.800 C 283.783 287.296,283.656 287.222,283.656 287.600 M107.849 288.215 C 107.712 288.573,107.618 289.256,107.641 289.733 C 107.667 290.281,107.803 290.086,108.010 289.203 C 108.360 287.716,108.265 287.133,107.849 288.215 M233.309 289.200 C 233.309 290.190,233.387 290.595,233.482 290.100 C 233.578 289.605,233.578 288.795,233.482 288.300 C 233.387 287.805,233.309 288.210,233.309 289.200 M291.844 288.600 C 292.173 290.071,292.402 290.390,292.394 289.367 C 292.391 288.945,292.205 288.330,291.982 288.000 C 291.685 287.562,291.648 287.724,291.844 288.600 M263.058 289.400 C 263.189 290.280,263.422 291.138,263.575 291.307 C 264.087 291.871,284.520 291.466,284.637 290.890 C 284.694 290.610,284.649 290.565,284.537 290.790 C 284.406 291.054,280.647 291.200,273.967 291.200 L 263.600 291.200 263.572 290.300 C 263.556 289.805,263.381 289.040,263.181 288.600 C 262.928 288.040,262.891 288.280,263.058 289.400 M115.488 289.700 C 115.377 290.415,115.411 291.136,115.564 291.301 C 115.718 291.467,140.583 291.557,170.821 291.500 L 225.800 291.397 170.725 291.299 L 115.650 291.200 115.877 289.800 C 116.002 289.030,116.012 288.400,115.898 288.400 C 115.784 288.400,115.600 288.985,115.488 289.700 M254.446 290.093 L 254.400 291.187 243.900 291.300 L 233.400 291.414 243.913 291.507 C 255.086 291.606,255.165 291.593,254.680 289.723 C 254.557 289.247,254.477 289.374,254.446 290.093 M86.278 290.424 C 85.966 291.617,86.045 291.625,97.207 291.500 L 107.400 291.386 96.937 291.293 C 86.694 291.202,86.479 291.183,86.684 290.400 C 86.799 289.960,86.803 289.600,86.693 289.600 C 86.583 289.600,86.396 289.971,86.278 290.424 M313.412 290.313 L 313.662 291.226 303.069 291.113 C 297.243 291.051,292.559 291.135,292.661 291.300 C 292.949 291.764,313.510 291.669,313.798 291.203 C 313.933 290.985,313.845 290.490,313.603 290.103 C 313.223 289.497,313.196 289.526,313.412 290.313 M322.012 290.251 C 321.979 291.486,323.145 291.613,333.449 291.500 L 343.800 291.386 333.320 291.293 C 323.819 291.209,322.802 291.135,322.432 290.500 C 322.208 290.115,322.019 290.003,322.012 290.251 M77.367 290.793 C 77.136 291.024,72.694 291.233,66.587 291.300 L 56.200 291.414 66.651 291.507 C 75.531 291.586,77.177 291.510,77.600 291.000 C 78.154 290.332,77.981 290.179,77.367 290.793 " stroke="none" fill="#82929e" fill-rule="evenodd"></path><path id="path4" d="M75.451 242.979 C 75.093 243.525,74.804 244.203,74.809 244.486 C 74.814 244.769,75.107 244.415,75.459 243.700 L 76.100 242.400 85.250 242.400 C 95.523 242.400,95.091 242.249,93.786 245.371 C 92.317 248.888,91.569 250.971,91.910 250.600 C 92.593 249.857,94.870 243.658,94.729 242.926 C 94.600 242.253,93.911 242.192,85.345 242.093 L 76.102 241.986 75.451 242.979 M101.862 242.300 C 101.759 242.465,105.656 242.600,110.520 242.600 L 119.363 242.600 119.642 243.600 L 119.920 244.600 119.960 243.543 C 119.984 242.920,119.740 242.386,119.367 242.243 C 118.449 241.891,102.082 241.944,101.862 242.300 M127.700 242.265 C 127.425 242.376,127.200 242.638,127.200 242.847 C 127.200 243.077,127.507 243.064,127.974 242.814 C 129.161 242.179,145.184 242.259,145.256 242.900 C 145.287 243.175,145.297 244.120,145.279 245.000 C 145.246 246.589,145.248 246.586,145.643 244.636 C 145.950 243.116,145.923 242.597,145.520 242.342 C 144.969 241.993,128.551 241.921,127.700 242.265 M152.937 242.306 C 152.682 242.468,156.341 242.545,161.069 242.478 C 170.818 242.339,170.763 242.324,170.566 245.107 L 170.431 247.000 170.804 245.000 C 171.360 242.013,171.316 241.999,161.624 242.006 C 157.101 242.009,153.191 242.144,152.937 242.306 M178.700 242.432 C 178.278 242.678,178.022 243.269,178.054 243.920 C 178.109 244.998,178.109 244.999,178.295 244.000 C 178.397 243.450,178.688 242.868,178.940 242.706 C 179.759 242.182,195.783 242.343,196.320 242.880 C 196.641 243.201,196.800 243.215,196.800 242.923 C 196.800 241.938,180.316 241.491,178.700 242.432 M203.700 242.265 C 203.425 242.376,203.200 242.668,203.200 242.913 C 203.200 243.224,203.346 243.214,203.680 242.880 C 204.217 242.343,220.256 242.182,221.040 242.706 C 221.282 242.868,221.583 243.270,221.708 243.600 C 221.893 244.085,221.943 244.068,221.968 243.514 C 221.986 243.137,221.652 242.642,221.226 242.414 C 220.450 241.999,204.692 241.864,203.700 242.265 M229.620 242.379 C 229.063 242.731,228.936 245.873,229.458 246.388 C 229.576 246.505,229.621 245.875,229.558 244.989 C 229.495 244.103,229.579 243.158,229.745 242.889 C 230.178 242.188,272.419 242.179,273.120 242.880 C 273.441 243.201,273.600 243.215,273.600 242.923 C 273.600 242.682,273.315 242.376,272.967 242.243 C 271.930 241.845,230.258 241.976,229.620 242.379 M280.500 242.265 C 280.225 242.376,280.011 242.857,280.025 243.333 C 280.051 244.200,280.051 244.200,280.412 243.300 C 280.772 242.406,280.829 242.400,289.386 242.400 L 297.998 242.400 298.566 243.700 C 298.879 244.415,299.149 244.725,299.167 244.389 C 299.286 242.168,298.586 241.998,289.477 242.032 C 284.815 242.049,280.775 242.154,280.500 242.265 M305.700 242.265 C 305.425 242.376,305.211 242.857,305.225 243.333 C 305.251 244.200,305.251 244.200,305.612 243.300 C 305.973 242.404,306.016 242.400,314.937 242.400 L 323.900 242.400 324.541 243.700 C 324.893 244.415,325.186 244.769,325.191 244.486 C 325.196 244.203,324.909 243.528,324.554 242.986 L 323.908 242.000 315.054 242.032 C 310.184 242.049,305.975 242.154,305.700 242.265 M151.822 244.622 C 151.672 245.425,151.628 246.162,151.726 246.260 C 151.824 246.357,152.027 245.781,152.178 244.978 C 152.328 244.175,152.372 243.438,152.274 243.340 C 152.176 243.243,151.973 243.819,151.822 244.622 M126.649 244.215 C 126.512 244.573,126.415 245.166,126.434 245.533 C 126.453 245.900,126.627 245.669,126.821 245.020 C 127.198 243.758,127.065 243.133,126.649 244.215 M273.838 245.400 C 274.170 247.384,274.402 247.704,274.394 246.167 C 274.391 245.525,274.204 244.730,273.979 244.400 C 273.686 243.970,273.646 244.254,273.838 245.400 M74.067 246.380 C 73.833 247.051,73.727 247.600,73.831 247.600 C 74.101 247.600,74.856 245.522,74.657 245.324 C 74.567 245.233,74.301 245.708,74.067 246.380 M280.446 246.000 C 280.427 246.550,280.587 247.270,280.800 247.600 C 281.294 248.364,281.294 247.542,280.800 246.000 L 280.480 245.000 280.446 246.000 M119.000 246.800 C 118.848 247.491,118.814 248.147,118.924 248.257 C 119.034 248.367,119.248 247.891,119.400 247.200 C 119.552 246.509,119.586 245.853,119.476 245.743 C 119.366 245.633,119.152 246.109,119.000 246.800 M222.070 246.800 C 222.057 247.350,222.195 248.520,222.377 249.400 L 222.708 251.000 222.707 249.600 C 222.705 247.835,222.109 245.212,222.070 246.800 M125.429 248.429 C 125.058 249.561,124.827 250.560,124.915 250.649 C 125.003 250.737,125.376 249.879,125.743 248.743 C 126.110 247.607,126.341 246.608,126.256 246.523 C 126.172 246.438,125.799 247.296,125.429 248.429 M177.400 248.400 C 177.245 249.528,177.208 250.541,177.318 250.651 C 177.428 250.761,177.645 249.928,177.800 248.800 C 177.955 247.672,177.992 246.659,177.882 246.549 C 177.772 246.439,177.555 247.272,177.400 248.400 M306.598 247.165 C 307.075 248.713,307.994 250.800,308.200 250.800 C 308.414 250.800,306.849 246.707,306.517 246.400 C 306.398 246.290,306.434 246.634,306.598 247.165 M144.783 247.100 C 144.773 247.265,144.615 248.179,144.430 249.132 C 144.246 250.085,144.231 250.715,144.397 250.532 C 144.756 250.136,145.299 246.800,145.005 246.800 C 144.892 246.800,144.792 246.935,144.783 247.100 M151.050 248.450 C 150.717 250.117,151.040 250.440,151.400 248.800 C 151.552 248.109,151.593 247.459,151.491 247.358 C 151.389 247.256,151.191 247.747,151.050 248.450 M274.468 248.400 C 274.488 249.439,275.118 251.146,275.132 250.200 C 275.138 249.760,274.989 249.040,274.800 248.600 C 274.589 248.110,274.461 248.032,274.468 248.400 M99.449 249.015 C 99.312 249.373,99.215 249.966,99.234 250.333 C 99.253 250.700,99.427 250.469,99.621 249.820 C 99.998 248.558,99.865 247.933,99.449 249.015 M229.600 249.600 C 229.600 250.260,229.749 250.800,229.931 250.800 C 230.113 250.800,230.182 250.260,230.085 249.600 C 229.988 248.940,229.840 248.400,229.755 248.400 C 229.670 248.400,229.600 248.940,229.600 249.600 M169.902 249.800 C 169.797 250.350,169.866 250.800,170.055 250.800 C 170.245 250.800,170.400 250.350,170.400 249.800 C 170.400 249.250,170.331 248.800,170.247 248.800 C 170.162 248.800,170.007 249.250,169.902 249.800 M77.723 251.099 C 80.320 251.169,84.460 251.168,86.923 251.098 C 89.385 251.028,87.260 250.971,82.200 250.972 C 77.140 250.972,75.125 251.029,77.723 251.099 M104.300 251.099 C 106.775 251.169,110.825 251.169,113.300 251.099 C 115.775 251.028,113.750 250.971,108.800 250.971 C 103.850 250.971,101.825 251.028,104.300 251.099 M130.300 251.099 C 132.775 251.169,136.825 251.169,139.300 251.099 C 141.775 251.028,139.750 250.971,134.800 250.971 C 129.850 250.971,127.825 251.028,130.300 251.099 M155.900 251.099 C 158.375 251.169,162.425 251.169,164.900 251.099 C 167.375 251.028,165.350 250.971,160.400 250.971 C 155.450 250.971,153.425 251.028,155.900 251.099 M182.700 251.099 C 185.175 251.169,189.225 251.169,191.700 251.099 C 194.175 251.028,192.150 250.971,187.200 250.971 C 182.250 250.971,180.225 251.028,182.700 251.099 M208.300 251.099 C 210.775 251.169,214.825 251.169,217.300 251.099 C 219.775 251.028,217.750 250.971,212.800 250.971 C 207.850 250.971,205.825 251.028,208.300 251.099 M241.728 251.100 C 247.849 251.162,257.749 251.162,263.728 251.100 C 269.708 251.037,264.700 250.987,252.600 250.987 C 240.500 250.987,235.608 251.038,241.728 251.100 M286.700 251.099 C 289.175 251.169,293.225 251.169,295.700 251.099 C 298.175 251.028,296.150 250.971,291.200 250.971 C 286.250 250.971,284.225 251.028,286.700 251.099 M313.323 251.099 C 315.920 251.169,320.060 251.168,322.523 251.098 C 324.985 251.028,322.860 250.971,317.800 250.972 C 312.740 250.972,310.725 251.029,313.323 251.099 M169.569 256.299 L 169.737 258.600 170.046 256.625 C 170.346 254.708,170.246 254.001,169.676 253.999 C 169.524 253.999,169.476 255.034,169.569 256.299 M177.350 254.587 C 177.226 254.910,177.217 255.405,177.331 255.687 C 177.444 255.969,177.551 255.810,177.568 255.333 C 177.586 254.857,177.825 254.376,178.100 254.265 C 178.492 254.107,178.489 254.056,178.087 254.032 C 177.806 254.014,177.474 254.264,177.350 254.587 M229.880 254.535 C 229.767 254.830,229.808 255.685,229.972 256.435 C 230.268 257.796,230.269 257.795,230.437 255.900 C 230.598 254.085,230.317 253.396,229.880 254.535 M248.642 254.306 C 248.886 254.468,249.286 255.320,249.532 256.200 L 249.980 257.800 249.754 256.203 C 249.489 254.338,249.323 253.998,248.676 254.006 C 248.339 254.010,248.329 254.098,248.642 254.306 M256.832 255.900 C 256.866 257.991,257.061 257.822,257.291 255.500 C 257.372 254.675,257.296 254.000,257.120 254.000 C 256.944 254.000,256.814 254.855,256.832 255.900 M275.620 254.000 C 275.616 254.110,275.871 254.920,276.188 255.800 C 276.505 256.680,276.766 257.040,276.768 256.600 C 276.771 255.935,275.645 253.385,275.620 254.000 M302.456 254.945 C 302.739 255.575,303.042 255.873,303.131 255.606 C 303.220 255.340,302.989 254.824,302.618 254.461 C 301.986 253.842,301.976 253.873,302.456 254.945 M309.206 254.633 C 309.209 255.055,309.395 255.670,309.618 256.000 C 309.915 256.438,309.952 256.276,309.756 255.400 C 309.427 253.929,309.198 253.610,309.206 254.633 M328.100 254.432 C 328.485 254.656,328.800 255.090,328.800 255.396 C 328.800 255.702,328.978 256.063,329.195 256.197 C 329.431 256.343,329.487 256.150,329.333 255.721 C 328.962 254.680,328.370 253.998,327.851 254.012 C 327.603 254.019,327.715 254.208,328.100 254.432 M150.200 256.000 C 150.048 256.691,150.014 257.347,150.124 257.457 C 150.234 257.567,150.448 257.091,150.600 256.400 C 150.752 255.709,150.786 255.053,150.676 254.943 C 150.566 254.833,150.352 255.309,150.200 256.000 M70.415 256.298 C 69.331 258.619,68.797 260.000,68.983 260.000 C 69.254 260.000,71.269 255.535,71.082 255.349 C 70.998 255.265,70.698 255.692,70.415 256.298 M142.854 256.400 C 142.819 256.950,142.696 257.850,142.583 258.400 L 142.377 259.400 142.807 258.415 C 143.043 257.874,143.165 256.974,143.078 256.415 L 142.920 255.400 142.854 256.400 M116.629 257.029 C 116.481 257.615,116.438 258.172,116.532 258.266 C 116.627 258.360,116.824 257.958,116.971 257.371 C 117.119 256.785,117.162 256.228,117.068 256.134 C 116.973 256.040,116.776 256.442,116.629 257.029 M123.246 256.467 C 123.221 256.834,123.096 257.464,122.970 257.867 C 122.752 258.562,122.763 258.563,123.197 257.887 C 123.448 257.496,123.573 256.866,123.473 256.487 C 123.311 255.868,123.288 255.866,123.246 256.467 M282.812 256.400 C 282.812 256.730,282.987 257.270,283.200 257.600 C 283.545 258.133,283.588 258.133,283.588 257.600 C 283.588 257.270,283.413 256.730,283.200 256.400 C 282.855 255.867,282.812 255.867,282.812 256.400 M303.212 257.200 C 303.212 257.530,303.387 258.070,303.600 258.400 C 303.945 258.933,303.988 258.933,303.988 258.400 C 303.988 258.070,303.813 257.530,303.600 257.200 C 303.255 256.667,303.212 256.667,303.212 257.200 M329.600 256.884 C 329.600 257.316,330.815 260.000,331.011 260.000 C 331.121 260.000,330.933 259.334,330.593 258.521 C 329.993 257.086,329.600 256.438,329.600 256.884 M223.067 260.514 L 223.296 263.227 213.267 263.114 C 207.752 263.051,203.377 263.138,203.547 263.307 C 203.716 263.476,208.252 263.566,213.627 263.507 L 223.400 263.400 223.516 262.200 C 223.580 261.540,223.454 260.280,223.235 259.400 C 222.896 258.035,222.871 258.199,223.067 260.514 M176.618 260.593 C 176.467 261.799,176.457 262.969,176.596 263.193 C 176.889 263.668,196.246 263.772,196.539 263.300 C 196.641 263.135,192.223 263.051,186.721 263.114 L 176.718 263.227 176.998 260.814 C 177.152 259.486,177.192 258.400,177.085 258.400 C 176.979 258.400,176.769 259.387,176.618 260.593 M250.068 259.600 C 250.062 260.150,250.211 260.960,250.400 261.400 L 250.744 262.200 250.732 261.400 C 250.726 260.960,250.576 260.150,250.400 259.600 L 250.080 258.600 250.068 259.600 M277.352 259.600 C 277.442 260.150,277.647 261.185,277.808 261.900 L 278.100 263.200 268.283 263.200 C 261.978 263.200,258.394 263.053,258.263 262.790 C 258.151 262.565,258.106 262.610,258.163 262.890 C 258.243 263.283,260.527 263.424,268.143 263.507 C 279.296 263.628,278.862 263.761,277.820 260.545 C 277.473 259.475,277.263 259.050,277.352 259.600 M283.656 259.200 C 283.656 259.530,283.811 260.160,284.000 260.600 C 284.217 261.104,284.344 261.178,284.344 260.800 C 284.344 260.470,284.189 259.840,284.000 259.400 C 283.783 258.896,283.656 258.822,283.656 259.200 M149.378 260.578 C 149.227 261.381,149.194 262.127,149.304 262.237 C 149.414 262.347,149.627 261.781,149.778 260.978 C 149.928 260.175,149.962 259.428,149.852 259.318 C 149.742 259.208,149.528 259.775,149.378 260.578 M257.693 260.800 C 257.693 261.570,257.775 261.885,257.876 261.500 C 257.976 261.115,257.976 260.485,257.876 260.100 C 257.775 259.715,257.693 260.030,257.693 260.800 M142.060 260.867 C 141.923 263.307,142.394 263.200,131.787 263.200 C 123.433 263.200,122.032 263.114,121.870 262.592 C 121.738 262.167,121.701 262.197,121.746 262.692 C 121.806 263.345,122.575 263.408,131.687 263.507 C 142.652 263.626,142.701 263.613,142.285 260.880 L 142.120 259.800 142.060 260.867 M230.457 261.457 C 230.381 263.669,230.094 263.615,241.333 263.511 L 251.000 263.421 241.000 263.211 L 231.000 263.000 230.757 261.400 L 230.514 259.800 230.457 261.457 M331.420 261.000 C 332.223 263.372,333.016 263.175,322.145 263.300 L 312.200 263.415 322.113 263.507 C 332.975 263.609,333.105 263.580,331.805 261.333 C 331.444 260.710,331.271 260.560,331.420 261.000 M169.293 262.000 C 169.293 262.770,169.375 263.085,169.476 262.700 C 169.576 262.315,169.576 261.685,169.476 261.300 C 169.375 260.915,169.293 261.230,169.293 262.000 M284.425 262.020 C 284.365 263.487,285.124 263.600,295.056 263.600 C 300.389 263.600,304.836 263.465,304.939 263.300 C 305.041 263.135,300.638 263.051,295.154 263.113 L 285.184 263.227 284.817 262.313 C 284.596 261.762,284.441 261.646,284.425 262.020 M115.062 262.583 C 114.772 263.338,68.237 263.542,67.863 262.790 C 67.752 262.565,67.706 262.610,67.763 262.890 C 67.934 263.731,114.509 263.833,115.205 262.994 C 115.485 262.656,115.621 262.287,115.506 262.173 C 115.392 262.059,115.192 262.243,115.062 262.583 M154.300 263.499 C 156.995 263.568,161.405 263.568,164.100 263.499 C 166.795 263.430,164.590 263.373,159.200 263.373 C 153.810 263.373,151.605 263.430,154.300 263.499 M65.862 266.700 C 65.759 266.865,70.114 267.000,75.538 267.000 L 85.400 267.000 85.305 268.000 C 85.221 268.882,85.261 268.914,85.639 268.276 C 86.695 266.489,86.228 266.400,75.836 266.400 C 70.452 266.400,65.964 266.535,65.862 266.700 M93.043 267.033 C 92.909 267.381,92.813 267.876,92.828 268.133 C 92.844 268.390,92.997 268.240,93.168 267.800 C 93.465 267.038,93.952 266.990,103.440 266.789 L 113.400 266.579 103.343 266.489 C 94.488 266.411,93.257 266.476,93.043 267.033 M120.667 266.667 C 120.520 266.813,120.405 267.218,120.412 267.567 C 120.422 268.103,120.487 268.093,120.832 267.500 C 121.357 266.598,140.175 266.407,140.535 267.300 C 140.656 267.599,140.750 267.518,140.768 267.100 C 140.801 266.380,121.372 265.962,120.667 266.667 M148.237 267.047 C 148.098 267.411,147.907 269.349,147.812 271.354 L 147.641 275.000 148.030 271.400 C 148.244 269.420,148.500 267.575,148.597 267.300 C 148.733 266.918,151.133 266.800,158.761 266.800 L 168.747 266.800 168.922 267.805 C 169.083 268.725,169.093 268.717,169.049 267.705 L 169.000 266.600 158.745 266.493 C 149.519 266.397,148.465 266.453,148.237 267.047 M175.775 266.922 C 175.664 267.209,175.625 269.684,175.687 272.422 L 175.800 277.400 185.800 277.410 L 195.800 277.421 185.900 277.303 L 176.000 277.186 176.000 271.993 L 176.000 266.800 186.224 266.800 L 196.448 266.800 196.250 271.700 L 196.051 276.600 196.446 272.042 C 196.663 269.534,196.747 267.239,196.633 266.942 C 196.333 266.160,176.074 266.141,175.775 266.922 M203.367 266.941 C 203.250 267.246,203.335 269.274,203.555 271.448 L 203.955 275.400 203.765 271.100 L 203.575 266.800 213.787 266.800 L 224.000 266.800 224.000 271.993 L 224.000 277.186 213.900 277.300 L 203.800 277.414 214.111 277.507 L 224.423 277.600 224.311 272.100 L 224.200 266.600 213.890 266.493 C 205.400 266.405,203.543 266.484,203.367 266.941 M230.950 266.987 C 230.826 267.310,230.817 267.805,230.931 268.087 C 231.044 268.369,231.151 268.198,231.168 267.707 L 231.200 266.814 241.500 266.700 L 251.800 266.586 241.487 266.493 C 232.733 266.414,231.141 266.489,230.950 266.987 M286.800 266.693 C 286.800 266.862,291.162 266.949,296.495 266.886 C 305.412 266.781,306.233 266.829,306.731 267.486 C 307.241 268.159,307.264 268.155,307.131 267.400 C 306.984 266.572,286.801 265.870,286.800 266.693 M314.223 266.763 C 314.099 266.963,314.177 267.548,314.396 268.063 L 314.793 269.000 314.696 268.000 L 314.600 267.000 324.284 266.893 L 333.967 266.786 334.568 267.893 C 335.280 269.207,335.399 268.873,334.736 267.419 L 334.272 266.400 324.359 266.400 C 318.855 266.400,314.347 266.561,314.223 266.763 M251.892 270.400 C 252.012 272.270,252.175 273.875,252.255 273.967 C 252.535 274.288,252.350 270.184,252.014 268.600 C 251.777 267.483,251.740 268.027,251.892 270.400 M259.473 267.460 C 259.102 267.831,259.178 270.413,259.590 271.400 C 259.793 271.886,259.838 271.297,259.706 269.900 L 259.488 267.600 269.064 267.600 C 276.175 267.600,278.776 267.729,279.170 268.100 C 279.598 268.504,279.665 268.484,279.517 268.000 C 279.323 267.364,260.087 266.846,259.473 267.460 M112.656 268.884 C 112.521 269.388,112.427 270.160,112.446 270.600 C 112.465 271.040,112.645 270.698,112.846 269.840 C 113.236 268.178,113.070 267.340,112.656 268.884 M140.464 268.650 C 140.429 269.118,140.305 270.108,140.189 270.850 C 139.996 272.086,140.015 272.117,140.408 271.214 C 140.645 270.672,140.768 269.682,140.683 269.014 C 140.591 268.297,140.502 268.148,140.464 268.650 M286.846 268.400 C 286.865 268.730,287.024 269.450,287.200 270.000 L 287.520 271.000 287.554 270.000 C 287.573 269.450,287.413 268.730,287.200 268.400 C 286.855 267.867,286.816 267.867,286.846 268.400 M120.049 268.800 C 120.016 269.130,119.889 269.850,119.767 270.400 C 119.575 271.264,119.607 271.303,119.999 270.688 C 120.248 270.297,120.375 269.577,120.281 269.088 C 120.186 268.600,120.082 268.470,120.049 268.800 M279.606 269.633 C 279.609 270.165,279.789 270.870,280.006 271.200 C 280.282 271.622,280.323 271.385,280.142 270.400 C 279.825 268.675,279.598 268.349,279.606 269.633 M231.280 271.200 C 231.280 271.750,231.424 272.650,231.600 273.200 L 231.920 274.200 231.920 273.200 C 231.920 272.650,231.776 271.750,231.600 271.200 L 231.280 270.200 231.280 271.200 M168.200 272.400 C 168.046 273.310,168.011 274.144,168.121 274.254 C 168.231 274.364,168.446 273.710,168.600 272.800 C 168.754 271.890,168.789 271.056,168.679 270.946 C 168.569 270.836,168.354 271.490,168.200 272.400 M91.051 273.160 C 90.693 274.255,90.411 275.386,90.425 275.675 C 90.439 275.964,90.800 275.136,91.227 273.835 C 91.654 272.534,91.936 271.403,91.853 271.320 C 91.770 271.237,91.409 272.065,91.051 273.160 M111.631 273.631 C 111.385 274.778,111.260 275.793,111.353 275.886 C 111.446 275.979,111.723 275.117,111.969 273.969 C 112.215 272.822,112.340 271.807,112.247 271.714 C 112.154 271.621,111.877 272.483,111.631 273.631 M287.668 272.000 C 287.688 273.039,288.318 274.746,288.332 273.800 C 288.338 273.360,288.189 272.640,288.000 272.200 C 287.789 271.710,287.661 271.632,287.668 272.000 M119.050 273.250 C 118.717 274.917,119.040 275.240,119.400 273.600 C 119.552 272.909,119.593 272.259,119.491 272.158 C 119.389 272.056,119.191 272.547,119.050 273.250 M280.406 272.833 C 280.409 273.365,280.589 274.070,280.806 274.400 C 281.082 274.822,281.123 274.585,280.942 273.600 C 280.625 271.875,280.398 271.549,280.406 272.833 M139.660 273.650 C 139.627 274.228,139.488 275.262,139.350 275.950 L 139.100 277.200 128.978 277.200 L 118.856 277.200 118.682 276.300 C 118.535 275.533,118.501 275.563,118.454 276.507 L 118.400 277.613 128.875 277.507 L 139.350 277.400 139.697 276.057 C 139.888 275.319,139.972 274.239,139.882 273.657 L 139.720 272.600 139.660 273.650 M260.040 273.833 C 260.062 274.475,260.233 275.450,260.420 276.000 C 260.649 276.674,260.684 276.349,260.528 275.000 C 260.269 272.750,259.979 272.059,260.040 273.833 M309.023 274.601 C 309.181 275.260,309.472 276.115,309.669 276.500 C 310.007 277.158,309.404 277.200,299.646 277.200 L 289.264 277.200 288.972 275.900 C 288.811 275.185,288.611 274.798,288.527 275.039 C 288.443 275.281,288.555 275.956,288.777 276.539 L 289.180 277.600 299.523 277.600 C 311.173 277.600,310.493 277.741,309.716 275.487 C 309.013 273.446,308.627 272.953,309.023 274.601 M83.029 275.429 C 82.881 276.015,82.838 276.572,82.932 276.666 C 83.027 276.760,83.224 276.358,83.371 275.771 C 83.519 275.185,83.562 274.628,83.468 274.534 C 83.373 274.440,83.176 274.842,83.029 275.429 M316.412 274.800 C 316.412 275.130,316.587 275.670,316.800 276.000 C 317.145 276.533,317.188 276.533,317.188 276.000 C 317.188 275.670,317.013 275.130,316.800 274.800 C 316.455 274.267,316.412 274.267,316.412 274.800 M232.161 276.400 L 232.200 277.400 242.173 277.507 C 247.658 277.566,252.284 277.476,252.453 277.307 C 252.623 277.138,248.192 277.051,242.608 277.113 L 232.456 277.226 232.289 276.313 C 232.140 275.494,232.127 275.503,232.161 276.400 M167.632 276.293 L 167.600 277.186 157.500 277.300 L 147.400 277.414 157.513 277.507 C 168.062 277.604,168.520 277.533,167.869 275.913 C 167.756 275.631,167.649 275.802,167.632 276.293 M281.268 276.200 C 281.262 276.640,281.411 277.360,281.600 277.800 C 282.038 278.819,282.038 277.768,281.600 276.400 C 281.343 275.596,281.277 275.557,281.268 276.200 M337.799 276.293 L 338.050 277.187 327.525 277.300 L 317.000 277.414 327.700 277.507 C 338.802 277.603,339.063 277.565,337.968 276.000 C 337.638 275.529,337.602 275.593,337.799 276.293 M61.778 276.435 C 61.144 277.461,62.658 277.609,72.627 277.500 L 83.000 277.386 72.457 277.293 C 63.275 277.212,61.944 277.123,62.145 276.600 C 62.411 275.905,62.173 275.797,61.778 276.435 M90.032 276.907 C 89.991 277.826,110.851 277.809,111.037 276.890 C 111.094 276.610,111.049 276.565,110.937 276.790 C 110.618 277.432,90.525 277.345,90.265 276.700 C 90.145 276.404,90.050 276.488,90.032 276.907 M260.828 278.633 C 260.844 279.275,261.016 280.160,261.210 280.600 C 261.447 281.134,261.486 280.802,261.327 279.600 C 261.046 277.480,260.788 276.980,260.828 278.633 M282.034 279.800 C 282.022 280.240,282.187 280.870,282.400 281.200 C 282.914 281.995,282.914 280.996,282.400 279.800 L 282.056 279.000 282.034 279.800 M60.668 281.125 C 60.301 281.531,60.000 282.024,60.000 282.220 C 60.000 282.417,60.280 282.178,60.623 281.689 C 61.608 280.282,80.610 280.292,81.209 281.700 C 81.586 282.587,81.591 282.585,81.496 281.600 L 81.400 280.600 71.368 280.493 C 62.046 280.394,61.289 280.439,60.668 281.125 M89.027 281.282 C 88.682 281.775,88.407 282.363,88.416 282.589 C 88.425 282.815,88.702 282.502,89.032 281.893 L 89.633 280.786 99.499 280.893 L 109.364 281.000 109.661 282.000 C 109.937 282.931,109.952 282.917,109.878 281.800 L 109.800 280.600 99.727 280.493 C 89.692 280.387,89.653 280.390,89.027 281.282 M117.700 280.664 C 117.425 280.776,117.200 281.038,117.200 281.247 C 117.200 281.477,117.507 281.464,117.974 281.214 C 119.695 280.293,224.717 280.678,224.925 281.606 C 225.076 282.277,225.097 282.260,225.053 281.506 L 225.000 280.600 171.600 280.531 C 142.230 280.493,117.975 280.553,117.700 280.664 M232.900 280.665 C 232.598 280.787,232.422 281.527,232.457 282.533 L 232.514 284.200 232.757 282.600 L 233.000 281.000 243.000 281.000 L 253.000 281.000 253.477 282.400 C 253.906 283.656,253.957 283.693,253.977 282.762 C 254.026 280.519,253.452 280.397,242.969 280.432 C 237.706 280.449,233.175 280.554,232.900 280.665 M290.267 280.667 C 290.120 280.813,290.011 281.308,290.025 281.767 C 290.050 282.567,290.065 282.564,290.412 281.700 C 290.847 280.619,309.685 280.249,310.744 281.300 C 311.148 281.701,311.195 281.661,310.981 281.100 C 310.707 280.381,290.966 279.968,290.267 280.667 M318.667 280.667 C 318.520 280.813,318.405 281.218,318.412 281.567 C 318.422 282.103,318.487 282.093,318.832 281.500 C 319.546 280.274,338.509 280.449,339.377 281.689 C 339.720 282.178,340.000 282.386,340.000 282.151 C 340.000 280.579,338.848 280.400,328.735 280.400 C 323.344 280.400,318.813 280.520,318.667 280.667 M311.448 283.000 C 311.591 283.660,311.866 284.470,312.059 284.800 C 312.284 285.184,312.318 284.968,312.152 284.200 C 312.009 283.540,311.734 282.730,311.541 282.400 C 311.316 282.016,311.282 282.232,311.448 283.000 M116.600 283.600 C 116.448 284.291,116.407 284.941,116.509 285.042 C 116.611 285.144,116.809 284.653,116.950 283.950 C 117.283 282.283,116.960 281.960,116.600 283.600 M261.675 283.400 C 261.665 284.060,261.811 284.960,262.000 285.400 L 262.344 286.200 262.325 285.400 C 262.314 284.960,262.168 284.060,262.000 283.400 L 261.695 282.200 261.675 283.400 M282.856 283.000 C 282.856 283.440,283.011 284.160,283.200 284.600 L 283.544 285.400 283.544 284.600 C 283.544 284.160,283.389 283.440,283.200 283.000 L 282.856 282.200 282.856 283.000 M319.058 283.198 C 319.200 283.747,319.650 284.917,320.059 285.798 C 320.467 286.679,320.685 286.951,320.542 286.402 C 320.400 285.853,319.950 284.683,319.541 283.802 C 319.133 282.921,318.915 282.649,319.058 283.198 M58.768 284.700 C 58.299 285.745,57.634 287.230,57.291 288.000 C 56.947 288.770,56.595 289.535,56.509 289.700 C 56.423 289.865,56.446 290.000,56.560 290.000 C 56.755 290.000,58.869 285.664,59.631 283.700 C 60.279 282.029,59.627 282.785,58.768 284.700 M290.445 283.400 C 290.440 283.840,290.685 285.100,290.991 286.200 C 291.296 287.300,291.550 287.840,291.555 287.400 C 291.560 286.960,291.315 285.700,291.009 284.600 C 290.704 283.500,290.450 282.960,290.445 283.400 M87.829 284.229 C 87.681 284.815,87.638 285.372,87.732 285.466 C 87.827 285.560,88.024 285.158,88.171 284.571 C 88.319 283.985,88.362 283.428,88.268 283.334 C 88.173 283.240,87.976 283.642,87.829 284.229 M109.254 283.867 C 109.225 284.344,109.096 285.064,108.970 285.467 C 108.752 286.161,108.764 286.162,109.196 285.488 C 109.447 285.097,109.575 284.377,109.481 283.888 C 109.309 283.001,109.309 283.001,109.254 283.867 M225.491 287.501 L 225.715 291.603 170.557 291.501 L 115.400 291.400 115.484 290.200 L 115.568 289.000 115.135 290.146 C 114.797 291.043,114.822 291.368,115.251 291.641 C 115.558 291.836,140.059 291.948,170.800 291.895 L 225.800 291.800 225.914 289.800 C 225.977 288.700,225.858 286.810,225.648 285.600 C 225.337 283.797,225.309 284.140,225.491 287.501 M254.075 286.200 C 254.086 286.640,254.232 287.540,254.400 288.200 L 254.705 289.400 254.725 288.200 C 254.735 287.540,254.589 286.640,254.400 286.200 L 254.056 285.400 254.075 286.200 M312.425 285.925 C 312.392 286.614,313.658 290.475,313.853 290.280 C 313.936 290.197,313.654 289.066,313.227 287.765 C 312.800 286.464,312.439 285.636,312.425 285.925 M115.873 286.553 C 115.723 286.945,115.611 287.566,115.625 287.933 C 115.642 288.375,115.781 288.274,116.037 287.634 C 116.249 287.103,116.361 286.482,116.285 286.254 C 116.209 286.027,116.024 286.161,115.873 286.553 M283.656 286.400 C 283.656 286.730,283.811 287.360,284.000 287.800 C 284.217 288.304,284.344 288.378,284.344 288.000 C 284.344 287.670,284.189 287.040,284.000 286.600 C 283.783 286.096,283.656 286.022,283.656 286.400 M108.449 287.000 C 108.416 287.440,108.296 288.250,108.183 288.800 L 107.977 289.800 108.406 288.819 C 108.642 288.279,108.761 287.469,108.672 287.019 C 108.513 286.221,108.507 286.221,108.449 287.000 M78.602 288.691 C 77.443 291.788,78.206 291.600,66.780 291.600 C 57.896 291.600,56.432 291.515,56.270 290.992 C 56.138 290.567,56.101 290.597,56.146 291.092 C 56.210 291.797,74.524 292.434,77.042 291.820 C 77.806 291.633,79.915 287.382,79.466 286.933 C 79.383 286.850,78.994 287.641,78.602 288.691 M232.867 288.820 C 232.767 292.115,232.364 292.000,244.000 292.000 C 254.189 292.000,255.224 291.872,255.188 290.620 C 255.181 290.389,254.992 290.515,254.768 290.900 C 254.396 291.538,253.444 291.600,243.988 291.600 L 233.615 291.600 233.414 290.700 C 233.304 290.205,233.151 289.080,233.074 288.200 C 232.962 286.912,232.921 287.034,232.867 288.820 M262.487 288.000 C 262.483 288.550,262.624 289.450,262.800 290.000 C 263.231 291.344,263.231 289.892,262.800 288.200 C 262.526 287.122,262.494 287.102,262.487 288.000 M86.229 289.429 C 86.081 290.015,86.038 290.572,86.132 290.666 C 86.227 290.760,86.424 290.358,86.571 289.771 C 86.719 289.185,86.762 288.628,86.668 288.534 C 86.573 288.440,86.376 288.842,86.229 289.429 M284.509 290.200 L 284.600 291.400 273.938 291.400 C 268.074 291.400,263.360 291.535,263.462 291.700 C 263.564 291.865,268.412 292.000,274.236 292.000 C 285.607 292.000,285.662 291.990,284.824 289.974 C 284.431 289.028,284.422 289.035,284.509 290.200 M343.496 290.570 L 343.693 291.600 333.327 291.600 C 325.797 291.600,322.829 291.469,322.480 291.120 C 322.115 290.755,322.000 290.753,322.000 291.112 C 322.000 292.392,343.686 292.337,343.932 291.058 C 344.011 290.649,343.900 290.140,343.687 289.927 C 343.437 289.677,343.369 289.904,343.496 290.570 M107.481 290.933 C 107.237 291.570,106.359 291.616,96.607 291.513 C 90.773 291.451,86.000 291.535,86.000 291.700 C 86.000 292.122,106.879 292.064,107.549 291.640 C 107.851 291.449,108.019 291.056,107.922 290.766 C 107.797 290.391,107.671 290.439,107.481 290.933 M313.767 291.193 C 313.537 291.423,309.160 291.633,303.187 291.700 L 293.000 291.814 303.457 291.907 C 312.442 291.987,313.947 291.915,314.145 291.400 C 314.413 290.701,314.313 290.647,313.767 291.193 " stroke="none" fill="#96a5ad" fill-rule="evenodd"></path></g></svg>