<svg id="svg" version="1.1" xmlns="http://www.w3.org/2000/svg" xmlns:xlink="http://www.w3.org/1999/xlink" width="400" height="400" viewBox="0, 0, 400,400"><g id="svgg"><path id="path0" d="M179.600 0.397 C 179.270 0.612,178.447 0.791,177.770 0.794 C 177.094 0.797,175.024 1.253,173.170 1.806 C 159.826 5.787,150.076 16.551,147.087 30.600 C 146.436 33.659,146.184 362.630,146.829 367.200 C 148.341 377.915,152.946 385.740,161.893 392.800 C 165.184 395.397,172.927 398.604,178.000 399.471 C 181.312 400.038,334.510 399.870,334.700 399.300 C 334.792 399.025,335.392 398.800,336.033 398.800 C 336.675 398.800,337.200 398.620,337.200 398.400 C 337.200 398.180,337.740 398.000,338.400 398.000 C 339.060 398.000,339.600 397.854,339.600 397.675 C 339.600 397.496,340.230 397.102,341.000 396.800 C 341.770 396.498,342.400 396.104,342.400 395.925 C 342.400 395.746,342.760 395.600,343.200 395.600 C 343.640 395.600,344.000 395.420,344.000 395.200 C 344.000 394.980,344.248 394.800,344.552 394.800 C 344.855 394.800,345.845 394.080,346.752 393.200 C 347.659 392.320,348.555 391.600,348.744 391.600 C 349.234 391.600,352.800 388.405,352.800 387.966 C 352.800 387.765,353.520 386.859,354.400 385.952 C 355.280 385.045,356.000 384.055,356.000 383.752 C 356.000 383.448,356.180 383.200,356.400 383.200 C 356.620 383.200,356.800 382.840,356.800 382.400 C 356.800 381.960,356.947 381.600,357.126 381.600 C 357.524 381.600,358.800 378.999,358.800 378.186 C 358.800 377.864,358.960 377.600,359.156 377.600 C 359.352 377.600,359.614 377.015,359.737 376.300 C 360.258 373.288,360.510 372.400,360.845 372.400 C 361.040 372.400,361.200 371.500,361.200 370.400 C 361.200 369.300,361.380 368.400,361.600 368.400 C 361.866 368.400,362.000 312.000,362.000 200.000 C 362.000 88.000,361.866 31.600,361.600 31.600 C 361.380 31.600,361.200 30.700,361.200 29.600 C 361.200 28.500,361.020 27.600,360.800 27.600 C 360.580 27.600,360.400 27.071,360.400 26.424 C 360.400 25.777,360.220 25.136,360.000 25.000 C 359.780 24.864,359.600 24.223,359.600 23.576 C 359.600 22.929,359.420 22.400,359.200 22.400 C 358.980 22.400,358.800 22.136,358.800 21.814 C 358.800 21.001,357.524 18.400,357.126 18.400 C 356.947 18.400,356.800 18.040,356.800 17.600 C 356.800 17.160,356.620 16.800,356.400 16.800 C 356.180 16.800,356.000 16.552,356.000 16.248 C 356.000 15.945,355.280 14.955,354.400 14.048 C 353.520 13.141,352.800 12.255,352.800 12.078 C 352.800 11.580,350.221 9.200,349.681 9.200 C 349.416 9.200,349.200 9.020,349.200 8.800 C 349.200 8.580,349.020 8.400,348.800 8.400 C 348.581 8.400,347.659 7.680,346.752 6.800 C 345.845 5.920,344.855 5.200,344.552 5.200 C 344.248 5.200,344.000 5.020,344.000 4.800 C 344.000 4.580,343.640 4.400,343.200 4.400 C 342.760 4.400,342.400 4.254,342.400 4.075 C 342.400 3.896,341.770 3.502,341.000 3.200 C 340.230 2.898,339.600 2.504,339.600 2.325 C 339.600 2.146,339.060 2.000,338.400 2.000 C 337.740 2.000,337.200 1.820,337.200 1.600 C 337.200 1.380,336.675 1.200,336.033 1.200 C 335.392 1.200,334.792 0.975,334.700 0.700 C 334.488 0.063,180.574 -0.238,179.600 0.397 M204.700 21.705 C 205.635 22.313,206.400 23.063,206.400 23.372 C 206.400 23.681,206.583 23.994,206.806 24.069 C 207.029 24.143,207.405 26.363,207.640 29.002 C 208.118 34.358,208.881 36.252,211.306 38.101 C 214.486 40.527,212.143 40.400,253.837 40.400 L 291.977 40.400 294.089 39.466 C 298.410 37.555,300.000 34.614,300.000 28.531 C 300.000 20.495,299.800 20.600,315.142 20.600 C 328.000 20.600,327.886 20.587,332.000 22.535 C 335.249 24.073,340.000 29.703,340.000 32.014 C 340.000 32.420,340.180 32.864,340.400 33.000 C 340.955 33.343,340.955 366.657,340.400 367.000 C 340.180 367.136,340.000 367.580,340.000 367.986 C 340.000 370.400,335.281 375.906,331.800 377.554 C 330.700 378.075,329.368 378.704,328.839 378.951 C 328.140 379.278,307.729 379.400,253.639 379.400 L 179.400 379.400 176.600 378.036 C 171.222 375.416,168.027 371.008,166.845 364.576 C 166.211 361.122,166.211 38.878,166.845 35.424 C 167.984 29.224,171.261 24.592,176.200 22.203 C 179.663 20.528,180.296 20.462,192.200 20.534 L 203.000 20.600 204.700 21.705 M74.733 21.742 C 73.926 21.994,73.131 22.335,72.966 22.500 C 72.801 22.665,72.382 22.802,72.033 22.804 C 69.353 22.822,63.574 29.417,61.817 34.463 C 60.929 37.011,60.907 86.407,61.792 89.324 C 65.308 100.910,79.264 106.390,89.086 100.042 C 91.638 98.393,95.200 94.943,95.200 94.121 C 95.200 93.834,95.338 93.600,95.506 93.600 C 95.987 93.600,97.263 90.434,97.843 87.800 C 98.597 84.378,98.607 39.690,97.854 36.200 C 96.851 31.546,94.485 27.851,90.660 24.965 C 88.490 23.327,87.678 22.878,84.681 21.656 C 83.266 21.079,76.674 21.136,74.733 21.742 M83.200 56.758 C 86.993 59.473,86.888 64.902,83.000 67.087 C 78.330 69.712,72.781 65.892,73.751 60.720 C 74.509 56.681,79.922 54.411,83.200 56.758 " stroke="none" fill="#54564c" fill-rule="evenodd"></path><path id="path1" d="M66.500 0.289 C 65.785 0.378,65.200 0.619,65.200 0.825 C 65.200 1.031,64.761 1.200,64.224 1.200 C 63.687 1.200,63.136 1.380,63.000 1.600 C 62.864 1.820,62.223 2.000,61.576 2.000 C 60.929 2.000,60.400 2.136,60.400 2.302 C 60.400 2.469,59.815 2.859,59.100 3.170 C 58.385 3.481,57.710 3.840,57.600 3.968 C 57.248 4.376,55.626 5.200,55.174 5.200 C 54.934 5.200,54.076 5.875,53.269 6.700 C 52.461 7.525,51.350 8.436,50.800 8.723 C 49.207 9.557,48.262 10.466,46.855 12.515 C 46.132 13.568,45.194 14.647,44.770 14.911 C 44.347 15.176,44.000 15.709,44.000 16.096 C 44.000 16.483,43.820 16.800,43.600 16.800 C 43.380 16.800,43.200 17.160,43.200 17.600 C 43.200 18.040,43.038 18.400,42.840 18.400 C 42.642 18.400,42.157 19.300,41.761 20.400 C 41.366 21.500,40.898 22.400,40.721 22.400 C 40.544 22.400,40.400 22.940,40.400 23.600 C 40.400 24.260,40.220 24.800,40.000 24.800 C 39.780 24.800,39.600 25.419,39.600 26.176 C 39.600 26.933,39.420 27.664,39.200 27.800 C 38.980 27.936,38.800 28.847,38.800 29.824 C 38.800 30.801,38.620 31.600,38.400 31.600 C 37.845 31.600,37.845 367.857,38.400 368.200 C 38.620 368.336,38.800 369.337,38.800 370.424 C 38.800 371.511,38.980 372.400,39.200 372.400 C 39.420 372.400,39.600 373.030,39.600 373.800 C 39.600 374.570,39.780 375.200,40.000 375.200 C 40.220 375.200,40.400 375.740,40.400 376.400 C 40.400 377.060,40.580 377.600,40.800 377.600 C 41.020 377.600,41.200 377.810,41.200 378.066 C 41.200 378.812,42.523 381.600,42.877 381.600 C 43.055 381.600,43.200 381.945,43.200 382.367 C 43.200 382.788,43.366 383.193,43.570 383.267 C 43.773 383.340,43.998 383.670,44.070 383.999 C 44.141 384.329,44.669 385.049,45.243 385.599 C 45.816 386.150,46.715 387.230,47.239 388.000 C 48.381 389.676,49.909 391.081,50.982 391.443 C 51.413 391.588,52.434 392.402,53.251 393.253 C 54.068 394.104,54.934 394.800,55.174 394.800 C 55.626 394.800,57.248 395.624,57.600 396.032 C 57.710 396.160,58.385 396.519,59.100 396.830 C 59.815 397.141,60.400 397.531,60.400 397.698 C 60.400 397.864,60.929 398.000,61.576 398.000 C 62.223 398.000,62.864 398.180,63.000 398.400 C 63.136 398.620,63.672 398.800,64.190 398.800 C 64.709 398.800,65.208 399.025,65.300 399.300 C 65.432 399.696,77.021 399.813,121.233 399.863 C 151.905 399.898,176.460 399.779,175.800 399.600 C 161.816 395.790,151.391 386.481,148.027 374.800 C 147.742 373.810,147.360 372.640,147.179 372.200 C 146.998 371.760,146.719 370.680,146.560 369.800 C 146.046 366.967,145.899 34.098,146.410 31.600 C 148.262 22.543,151.004 17.111,156.590 11.431 C 159.668 8.302,163.431 5.200,164.151 5.200 C 164.264 5.200,165.413 4.581,166.704 3.825 C 167.995 3.068,169.849 2.248,170.825 2.002 C 179.034 -0.069,182.112 0.053,122.400 0.092 C 92.370 0.112,67.215 0.201,66.500 0.289 M85.000 21.280 C 91.712 23.595,96.550 28.587,98.242 34.940 C 99.045 37.955,99.045 86.045,98.242 89.060 C 93.796 105.759,69.794 108.144,62.623 92.600 C 62.014 91.280,61.310 89.768,61.058 89.239 C 60.417 87.896,60.407 36.137,61.047 34.761 C 63.396 29.712,64.273 28.260,66.079 26.435 C 71.065 21.396,79.040 19.224,85.000 21.280 M76.972 56.913 C 74.823 57.989,73.644 62.240,74.863 64.518 C 77.461 69.372,85.200 67.500,85.200 62.018 C 85.200 57.735,80.792 55.000,76.972 56.913 M226.494 68.015 C 225.022 68.606,224.800 70.018,224.800 78.772 C 224.800 86.584,224.851 87.157,225.629 88.146 L 226.458 89.200 235.806 89.200 C 247.571 89.200,246.400 90.400,246.400 78.340 L 246.400 69.258 245.346 68.429 C 244.197 67.525,228.568 67.182,226.494 68.015 M226.526 145.203 C 224.951 145.837,224.800 146.781,224.809 155.874 C 224.817 163.857,224.883 164.685,225.586 165.600 L 226.354 166.600 235.566 166.600 C 247.701 166.600,246.600 167.682,246.600 155.754 L 246.600 146.731 245.478 145.765 C 244.288 144.742,228.811 144.282,226.526 145.203 M302.800 145.069 C 300.965 145.764,300.818 146.546,300.809 155.678 C 300.800 164.280,300.808 164.365,301.765 165.478 L 302.731 166.600 311.800 166.600 L 320.869 166.600 321.835 165.478 C 323.190 163.903,323.339 147.725,322.015 146.000 L 321.247 145.000 312.323 144.921 C 307.416 144.877,303.130 144.944,302.800 145.069 M307.722 205.099 C 310.099 205.170,313.879 205.169,316.122 205.098 C 318.365 205.027,316.420 204.969,311.800 204.969 C 307.180 204.970,305.345 205.028,307.722 205.099 M190.200 221.779 C 189.980 221.862,189.323 222.035,188.740 222.163 C 187.093 222.524,186.800 224.065,186.800 232.362 C 186.800 239.729,187.109 242.242,188.093 242.866 C 189.348 243.663,206.753 243.247,207.600 242.400 C 208.804 241.196,208.834 224.225,207.636 222.744 C 206.925 221.866,192.133 221.047,190.200 221.779 M301.629 341.454 C 300.250 343.208,300.362 359.046,301.765 360.678 L 302.731 361.800 311.800 361.800 L 320.869 361.800 321.835 360.678 C 323.358 358.907,323.344 342.908,321.818 341.382 L 320.836 340.400 311.647 340.400 L 302.458 340.400 301.629 341.454 " stroke="none" fill="#e9e8e6" fill-rule="evenodd"></path><path id="path2" d="M182.200 21.051 C 175.931 21.644,170.955 25.378,168.414 31.397 L 167.400 33.800 167.400 200.200 L 167.400 366.600 168.873 369.612 C 170.436 372.809,171.934 374.643,173.958 375.839 C 174.641 376.242,175.200 376.714,175.200 376.886 C 175.200 377.059,175.560 377.200,176.000 377.200 C 176.440 377.200,176.800 377.380,176.800 377.600 C 176.800 377.820,177.214 378.000,177.720 378.000 C 178.226 378.000,178.862 378.222,179.133 378.493 C 179.779 379.139,327.139 378.959,328.767 378.311 C 334.705 375.945,337.672 373.043,339.540 367.773 L 340.400 365.347 340.394 199.973 C 340.389 53.732,340.319 34.400,339.786 32.871 C 337.773 27.092,334.844 24.132,328.681 21.651 C 327.936 21.350,323.451 21.200,315.251 21.200 L 302.939 21.200 302.020 22.179 C 300.918 23.352,300.442 25.555,300.415 29.600 C 300.381 34.827,298.565 37.942,294.370 39.969 C 291.634 41.291,215.674 41.276,213.312 39.953 C 208.594 37.311,207.634 35.661,207.166 29.391 C 206.561 21.280,206.132 21.016,193.400 20.950 C 188.120 20.922,183.080 20.967,182.200 21.051 M245.346 68.429 L 246.400 69.258 246.400 78.340 C 246.400 90.400,247.571 89.200,235.806 89.200 L 226.458 89.200 225.629 88.146 C 224.704 86.970,224.348 71.641,225.194 69.415 C 225.802 67.817,226.781 67.653,235.846 67.625 C 243.806 67.601,244.353 67.648,245.346 68.429 M283.656 68.365 C 284.993 69.447,285.152 86.906,283.838 88.358 C 282.831 89.471,265.239 89.657,263.800 88.570 C 262.445 87.546,262.574 69.474,263.944 68.365 C 265.388 67.196,282.212 67.196,283.656 68.365 M320.716 67.856 C 322.528 68.342,322.800 69.717,322.800 78.400 C 322.800 90.038,323.687 89.200,311.361 89.200 L 302.388 89.200 301.596 87.900 C 299.716 84.817,300.616 68.419,302.695 67.877 C 303.773 67.595,319.675 67.577,320.716 67.856 M207.590 106.790 C 209.167 108.367,209.374 125.064,207.838 126.759 C 206.641 128.080,188.864 128.064,187.631 126.741 C 185.887 124.869,185.837 108.874,187.570 107.031 L 188.539 106.000 197.670 106.000 C 206.227 106.000,206.850 106.050,207.590 106.790 M245.833 106.976 C 246.283 107.593,246.400 109.633,246.400 116.876 C 246.400 128.735,247.524 127.600,235.782 127.600 L 226.764 127.600 225.782 126.618 L 224.800 125.636 224.800 116.992 C 224.800 107.990,224.954 107.045,226.526 106.392 C 228.417 105.606,245.203 106.115,245.833 106.976 M321.818 106.982 L 322.800 107.964 322.800 116.906 C 322.800 128.715,323.947 127.600,311.800 127.600 C 299.657 127.600,300.800 128.703,300.800 116.979 C 300.800 108.610,300.847 108.048,301.629 107.054 L 302.458 106.000 311.647 106.000 L 320.836 106.000 321.818 106.982 M245.478 145.765 L 246.600 146.731 246.600 155.754 C 246.600 167.682,247.701 166.600,235.566 166.600 L 226.354 166.600 225.586 165.600 C 224.690 164.433,224.381 147.930,225.226 146.351 C 226.256 144.426,243.346 143.932,245.478 145.765 M283.559 145.762 C 284.720 146.814,284.879 164.408,283.738 165.669 C 283.133 166.337,282.278 166.400,273.800 166.400 C 261.855 166.400,263.000 167.522,263.000 155.819 C 263.000 146.377,263.076 145.970,264.986 145.169 C 266.771 144.421,282.638 144.927,283.559 145.762 M322.015 146.000 C 323.339 147.725,323.190 163.903,321.835 165.478 L 320.869 166.600 311.800 166.600 L 302.731 166.600 301.765 165.478 C 300.808 164.365,300.800 164.280,300.809 155.678 C 300.821 143.885,299.831 144.810,312.323 144.921 L 321.247 145.000 322.015 146.000 M207.600 146.000 C 208.353 146.753,208.400 147.333,208.400 155.800 C 208.400 167.524,209.542 166.400,197.629 166.400 L 188.458 166.400 187.629 165.346 C 186.025 163.307,186.471 146.634,188.160 145.506 C 189.325 144.728,206.771 145.171,207.600 146.000 M283.656 183.965 C 285.001 185.054,285.154 202.903,283.829 204.229 C 282.688 205.369,264.848 205.420,263.714 204.286 C 262.441 203.013,262.645 185.017,263.944 183.965 C 265.388 182.796,282.212 182.796,283.656 183.965 M321.818 184.182 L 322.800 185.164 322.791 194.082 C 322.783 202.255,322.718 203.083,322.014 204.000 L 321.246 205.000 311.800 205.000 L 302.354 205.000 301.586 204.000 C 300.882 203.083,300.817 202.255,300.809 194.082 L 300.800 185.164 301.782 184.182 L 302.764 183.200 311.800 183.200 L 320.836 183.200 321.818 184.182 M207.636 222.744 C 208.834 224.225,208.804 241.196,207.600 242.400 C 206.753 243.247,189.348 243.663,188.093 242.866 C 187.109 242.242,186.800 239.729,186.800 232.362 C 186.800 224.065,187.093 222.524,188.740 222.163 C 189.323 222.035,189.980 221.862,190.200 221.779 C 192.133 221.047,206.925 221.866,207.636 222.744 M244.952 221.982 C 246.583 222.602,246.872 224.474,246.729 233.490 C 246.556 244.327,247.602 243.400,235.554 243.400 C 223.687 243.400,224.800 244.524,224.800 232.538 L 224.800 223.564 225.782 222.582 C 226.842 221.521,242.456 221.033,244.952 221.982 M283.559 222.562 C 284.720 223.614,284.879 241.208,283.738 242.469 C 283.133 243.137,282.278 243.200,273.800 243.200 C 261.838 243.200,263.000 244.370,263.000 232.330 C 263.000 220.708,262.021 221.613,274.459 221.726 C 281.959 221.793,282.795 221.870,283.559 222.562 M207.835 341.322 C 208.789 342.431,208.800 342.543,208.800 350.849 C 208.800 362.741,209.566 361.970,197.722 361.987 C 188.906 362.000,188.837 361.993,187.722 361.035 L 186.600 360.070 186.600 351.097 C 186.600 339.143,185.708 339.992,198.135 340.114 L 206.871 340.200 207.835 341.322 M283.690 341.111 C 284.584 342.006,284.600 342.183,284.600 351.246 C 284.600 363.109,285.714 362.000,273.800 362.000 C 261.975 362.000,263.037 362.959,262.875 352.136 C 262.680 339.066,261.838 339.969,274.090 340.104 C 282.537 340.197,282.805 340.225,283.690 341.111 M321.818 341.382 C 323.344 342.908,323.358 358.907,321.835 360.678 L 320.869 361.800 311.800 361.800 L 302.731 361.800 301.765 360.678 C 300.362 359.046,300.250 343.208,301.629 341.454 L 302.458 340.400 311.647 340.400 L 320.836 340.400 321.818 341.382 " stroke="none" fill="#a4dbf3" fill-rule="evenodd"></path><path id="path3" d="M301.823 107.289 C 301.038 108.409,300.897 124.497,301.657 126.165 C 302.273 127.518,303.667 127.685,313.059 127.528 C 323.291 127.357,322.400 128.359,322.400 117.027 C 322.400 105.237,323.560 106.400,311.800 106.400 C 302.587 106.400,302.436 106.413,301.823 107.289 M188.080 146.080 C 187.152 147.008,187.424 165.078,188.374 165.586 C 188.840 165.835,192.652 166.000,197.964 166.000 L 206.782 166.000 207.413 165.037 C 208.319 163.653,208.128 146.577,207.200 145.991 C 206.275 145.407,188.671 145.489,188.080 146.080 M263.862 184.331 C 262.755 185.554,262.877 202.877,264.000 204.000 C 265.333 205.333,282.262 205.224,283.530 203.874 C 284.683 202.647,284.894 186.084,283.777 184.489 C 282.892 183.225,264.992 183.083,263.862 184.331 M301.583 184.900 C 300.447 186.734,300.549 201.951,301.709 203.719 L 302.418 204.800 311.609 204.800 C 323.540 204.800,322.400 205.910,322.400 194.289 C 322.400 182.426,323.568 183.600,311.771 183.600 L 302.388 183.600 301.583 184.900 " stroke="none" fill="#f37c40" fill-rule="evenodd"></path><path id="path4" d="M176.800 0.400 C 176.350 0.691,176.550 0.788,177.600 0.788 C 178.370 0.788,179.270 0.613,179.600 0.400 C 180.050 0.109,179.850 0.012,178.800 0.012 C 178.030 0.012,177.130 0.187,176.800 0.400 M174.000 1.218 C 173.562 1.515,173.724 1.552,174.600 1.356 C 176.071 1.027,176.390 0.798,175.367 0.806 C 174.945 0.809,174.330 0.995,174.000 1.218 M171.200 2.000 C 170.405 2.514,171.404 2.514,172.600 2.000 L 173.400 1.656 172.600 1.634 C 172.160 1.622,171.530 1.787,171.200 2.000 M166.400 4.054 C 161.312 6.825,157.542 9.956,153.942 14.400 C 151.712 17.153,148.792 22.651,147.995 25.600 C 147.728 26.590,147.364 27.760,147.186 28.200 C 147.009 28.640,146.714 29.900,146.532 31.000 C 146.098 33.614,146.098 366.386,146.532 369.000 C 146.714 370.100,147.009 371.360,147.186 371.800 C 147.364 372.240,147.733 373.410,148.007 374.400 C 150.321 382.770,157.790 391.543,166.359 395.955 C 168.181 396.893,169.760 397.573,169.868 397.466 C 169.975 397.358,168.924 396.716,167.531 396.038 C 163.217 393.936,161.835 392.988,158.200 389.632 C 151.962 383.872,148.110 376.272,146.829 367.200 C 146.184 362.630,146.436 33.659,147.087 30.600 C 149.625 18.668,156.609 9.553,167.460 4.013 C 169.187 3.132,170.330 2.412,170.000 2.415 C 169.670 2.418,168.050 3.155,166.400 4.054 M180.000 20.756 C 173.405 22.106,168.232 27.875,166.845 35.424 C 166.211 38.878,166.211 361.122,166.845 364.576 C 168.027 371.008,171.222 375.416,176.600 378.036 L 179.400 379.400 253.639 379.400 C 307.729 379.400,328.140 379.278,328.839 378.951 C 329.368 378.704,330.700 378.075,331.800 377.554 C 335.281 375.906,340.000 370.400,340.000 367.986 C 340.000 367.580,340.180 367.136,340.400 367.000 C 340.955 366.657,340.955 33.343,340.400 33.000 C 340.180 32.864,340.000 32.420,340.000 32.014 C 340.000 29.703,335.249 24.073,332.000 22.535 C 327.886 20.587,328.000 20.600,315.142 20.600 C 299.800 20.600,300.000 20.495,300.000 28.531 C 300.000 34.614,298.410 37.555,294.089 39.466 L 291.977 40.400 253.837 40.400 C 212.143 40.400,214.486 40.527,211.306 38.101 C 208.881 36.252,208.118 34.358,207.640 29.002 C 207.405 26.363,207.029 24.143,206.806 24.069 C 206.583 23.994,206.400 23.681,206.400 23.372 C 206.400 23.063,205.635 22.313,204.700 21.705 L 203.000 20.600 192.200 20.534 C 186.260 20.498,180.770 20.598,180.000 20.756 M74.584 21.360 C 72.422 22.037,71.133 22.771,72.076 22.788 C 72.448 22.795,72.851 22.641,72.970 22.448 C 73.324 21.876,75.137 21.543,79.600 21.230 L 83.800 20.936 80.000 20.895 C 77.910 20.872,75.473 21.081,74.584 21.360 M204.306 21.980 C 206.471 23.603,206.798 24.450,207.166 29.391 C 207.634 35.661,208.594 37.311,213.312 39.953 C 215.674 41.276,291.634 41.291,294.370 39.969 C 298.565 37.942,300.381 34.827,300.415 29.600 C 300.442 25.555,300.918 23.352,302.020 22.179 L 302.939 21.200 315.251 21.200 C 323.451 21.200,327.936 21.350,328.681 21.651 C 334.844 24.132,337.773 27.092,339.786 32.871 C 340.319 34.400,340.389 53.732,340.394 199.973 L 340.400 365.347 339.540 367.773 C 337.672 373.043,334.705 375.945,328.767 378.311 C 327.139 378.959,179.779 379.139,179.133 378.493 C 178.862 378.222,178.226 378.000,177.720 378.000 C 177.214 378.000,176.800 377.820,176.800 377.600 C 176.800 377.380,176.440 377.200,176.000 377.200 C 175.560 377.200,175.200 377.059,175.200 376.886 C 175.200 376.714,174.641 376.242,173.958 375.839 C 171.934 374.643,170.436 372.809,168.873 369.612 L 167.400 366.600 167.400 200.200 L 167.400 33.800 168.414 31.397 C 170.529 26.388,174.030 23.175,179.000 21.683 C 183.401 20.361,202.447 20.585,204.306 21.980 M84.400 21.600 C 84.730 21.813,85.270 21.988,85.600 21.988 C 86.133 21.988,86.133 21.945,85.600 21.600 C 85.270 21.387,84.730 21.212,84.400 21.212 C 83.867 21.212,83.867 21.255,84.400 21.600 M86.400 22.210 C 86.400 22.325,86.805 22.574,87.300 22.763 C 91.759 24.464,96.558 30.478,97.862 36.000 L 98.382 38.200 98.244 36.332 C 98.077 34.081,96.075 29.646,94.323 27.650 C 91.879 24.864,86.400 21.102,86.400 22.210 M69.076 24.032 C 65.567 26.357,63.181 29.597,61.147 34.800 C 60.498 36.462,60.326 87.201,60.966 88.600 C 61.167 89.040,61.617 90.163,61.966 91.095 C 63.984 96.489,68.766 100.568,75.628 102.746 C 77.317 103.283,82.371 103.348,83.681 102.851 C 84.187 102.659,85.320 102.273,86.200 101.993 C 91.815 100.206,97.847 93.031,98.244 87.668 L 98.382 85.800 97.851 88.000 C 97.241 90.529,95.955 93.600,95.506 93.600 C 95.338 93.600,95.200 93.834,95.200 94.121 C 95.200 94.943,91.638 98.393,89.086 100.042 C 79.264 106.390,65.308 100.910,61.792 89.324 C 60.907 86.407,60.929 37.011,61.817 34.463 C 63.262 30.313,65.450 27.278,68.811 24.760 C 72.076 22.315,72.205 21.960,69.076 24.032 M98.588 62.000 C 98.588 75.090,98.638 80.445,98.700 73.900 C 98.761 67.355,98.761 56.645,98.700 50.100 C 98.638 43.555,98.588 48.910,98.588 62.000 M77.800 56.185 C 72.684 58.029,72.244 64.850,77.080 67.341 C 79.874 68.780,83.930 67.523,85.299 64.794 C 87.819 59.772,83.048 54.295,77.800 56.185 M82.844 57.232 C 86.138 59.577,85.972 64.973,82.557 66.594 C 78.384 68.574,74.400 66.243,74.400 61.821 C 74.400 57.393,79.318 54.720,82.844 57.232 M263.944 68.365 C 262.574 69.474,262.445 87.546,263.800 88.570 C 265.239 89.657,282.831 89.471,283.838 88.358 C 285.152 86.906,284.993 69.447,283.656 68.365 C 282.212 67.196,265.388 67.196,263.944 68.365 M302.695 67.877 C 300.616 68.419,299.716 84.817,301.596 87.900 L 302.388 89.200 311.361 89.200 C 323.687 89.200,322.800 90.038,322.800 78.400 C 322.800 69.717,322.528 68.342,320.716 67.856 C 319.675 67.577,303.773 67.595,302.695 67.877 M187.570 107.031 C 186.629 108.032,186.596 108.278,186.466 115.311 C 186.226 128.385,185.504 127.600,197.754 127.600 C 209.682 127.600,208.560 128.615,208.724 117.680 C 208.913 105.076,209.787 106.000,197.670 106.000 L 188.539 106.000 187.570 107.031 M226.526 106.392 C 224.954 107.045,224.800 107.990,224.800 116.992 L 224.800 125.636 225.782 126.618 L 226.764 127.600 235.782 127.600 C 247.524 127.600,246.400 128.735,246.400 116.876 C 246.400 109.633,246.283 107.593,245.833 106.976 C 245.203 106.115,228.417 105.606,226.526 106.392 M301.629 107.054 C 300.501 108.489,300.361 125.221,301.467 126.600 L 302.108 127.400 301.754 126.600 C 301.063 125.037,301.093 108.422,301.789 107.360 C 302.407 106.417,302.431 106.414,311.704 106.300 L 321.000 106.185 311.729 106.092 L 302.458 106.000 301.629 107.054 M321.768 107.189 C 322.295 108.014,322.400 109.646,322.400 117.027 C 322.400 126.421,322.367 126.593,320.400 127.316 C 319.917 127.494,319.933 127.543,320.484 127.568 C 322.940 127.682,324.244 109.727,321.968 107.144 L 321.136 106.200 321.768 107.189 M264.986 145.169 C 263.076 145.970,263.000 146.377,263.000 155.819 C 263.000 167.522,261.855 166.400,273.800 166.400 C 282.278 166.400,283.133 166.337,283.738 165.669 C 284.879 164.408,284.720 146.814,283.559 145.762 C 282.638 144.927,266.771 144.421,264.986 145.169 M188.160 145.506 C 186.471 146.634,186.025 163.307,187.629 165.346 L 188.458 166.400 197.629 166.400 C 209.542 166.400,208.400 167.524,208.400 155.800 C 208.400 144.079,209.530 145.198,197.700 145.206 C 192.695 145.209,188.402 145.344,188.160 145.506 M207.200 145.991 C 208.128 146.577,208.319 163.653,207.413 165.037 L 206.782 166.000 197.964 166.000 C 192.652 166.000,188.840 165.835,188.374 165.586 C 187.424 165.078,187.152 147.008,188.080 146.080 C 188.671 145.489,206.275 145.407,207.200 145.991 M269.323 183.499 C 271.920 183.569,276.060 183.568,278.523 183.498 C 280.985 183.428,278.860 183.371,273.800 183.372 C 268.740 183.372,266.725 183.429,269.323 183.499 M307.300 183.498 C 309.665 183.569,313.535 183.569,315.900 183.498 C 318.265 183.428,316.330 183.370,311.600 183.370 C 306.870 183.370,304.935 183.428,307.300 183.498 M262.970 194.200 C 262.971 199.040,263.029 200.965,263.099 198.478 C 263.169 195.991,263.169 192.031,263.098 189.678 C 263.028 187.325,262.970 189.360,262.970 194.200 M322.570 194.200 C 322.571 199.040,322.629 200.965,322.699 198.478 C 322.769 195.991,322.769 192.031,322.698 189.678 C 322.628 187.325,322.570 189.360,322.570 194.200 M284.569 194.200 C 284.570 198.820,284.628 200.655,284.699 198.278 C 284.770 195.901,284.769 192.121,284.698 189.878 C 284.627 187.635,284.569 189.580,284.569 194.200 M283.402 203.998 C 283.003 204.439,282.807 204.800,282.967 204.800 C 283.388 204.800,284.528 203.595,284.312 203.379 C 284.211 203.278,283.802 203.556,283.402 203.998 M269.722 205.099 C 272.099 205.170,275.879 205.169,278.122 205.098 C 280.365 205.027,278.420 204.969,273.800 204.969 C 269.180 204.970,267.345 205.028,269.722 205.099 M225.782 222.582 L 224.800 223.564 224.800 232.538 C 224.800 244.524,223.687 243.400,235.554 243.400 C 247.602 243.400,246.556 244.327,246.729 233.490 C 246.929 220.907,247.591 221.600,235.356 221.600 C 226.767 221.600,226.763 221.600,225.782 222.582 M265.400 221.926 C 262.883 222.789,263.000 222.282,263.000 232.330 C 263.000 244.370,261.838 243.200,273.800 243.200 C 285.594 243.200,284.400 244.402,284.400 232.530 C 284.400 220.725,285.412 221.824,274.459 221.726 C 269.917 221.685,265.840 221.775,265.400 221.926 M188.586 340.370 C 186.674 341.171,186.600 341.572,186.600 351.097 L 186.600 360.070 187.722 361.035 C 188.837 361.993,188.906 362.000,197.722 361.987 C 209.566 361.970,208.800 362.741,208.800 350.849 C 208.800 342.543,208.789 342.431,207.835 341.322 L 206.871 340.200 198.135 340.114 C 193.331 340.067,189.034 340.182,188.586 340.370 M264.317 340.608 C 262.845 341.423,262.729 342.350,262.875 352.136 C 263.037 362.959,261.975 362.000,273.800 362.000 C 285.714 362.000,284.600 363.109,284.600 351.246 C 284.600 339.142,285.627 340.231,274.090 340.104 C 266.987 340.026,265.202 340.118,264.317 340.608 M171.000 398.000 C 172.196 398.514,173.195 398.514,172.400 398.000 C 172.070 397.787,171.440 397.622,171.000 397.634 L 170.200 397.656 171.000 398.000 M173.600 398.800 C 173.930 399.013,174.470 399.188,174.800 399.188 C 175.333 399.188,175.333 399.145,174.800 398.800 C 174.470 398.587,173.930 398.412,173.600 398.412 C 173.067 398.412,173.067 398.455,173.600 398.800 M176.400 399.600 C 177.840 400.061,180.473 400.061,179.400 399.600 C 178.960 399.411,177.880 399.262,177.000 399.268 C 175.625 399.278,175.541 399.325,176.400 399.600 " stroke="none" fill="#8d908e" fill-rule="evenodd"></path></g></svg>